<svg width="159" height="141" viewBox="0 0 159 141" fill="none" xmlns="http://www.w3.org/2000/svg">
<g clip-path="url(#clip0_431_1672)">
<path fill-rule="evenodd" clip-rule="evenodd" d="M107.302 71.7092C107.247 71.4971 107.263 70.5808 107.398 70.4011C107.932 69.6909 110.9 71.0719 110.984 69.3533C111.031 68.3971 110.976 67.2865 110.964 66.3161C110.958 65.8499 110.884 65.43 111.465 65.3601C111.865 65.3119 112.402 65.3318 112.555 65.7664C112.655 66.0494 112.673 71.3326 112.583 71.6868C112.407 72.376 110.521 72.1277 109.918 72.1286C109.419 72.1294 107.456 72.3038 107.302 71.7092ZM117.931 70.2745C116.069 70.2554 116.448 70.0186 116.444 68.2561L116.445 53.9372C116.438 52.5282 116.622 52.7867 118.896 52.7866C121.25 52.7865 123.605 52.7727 125.958 52.7992L125.978 47.2497C126.941 47.1224 126.633 45.7296 126.633 44.9278C126.633 43.9453 126.635 42.9628 126.634 41.9802C126.633 38.4581 125.94 38.7995 129.413 38.8003C133.473 38.8012 137.536 38.8106 141.596 38.7985C141.921 38.804 142.334 38.8851 142.583 39.0896C142.734 39.7728 142.615 42.2822 142.616 43.1593C142.617 43.9837 142.525 46.6453 142.698 47.2612C143.561 47.2748 143.322 47.9029 143.323 48.6334L143.335 62.876C143.496 60.1824 143.422 57.479 143.418 54.7813C143.417 53.9459 143.296 51.5674 143.617 50.9268C144.329 49.5052 144.991 51.2429 144.999 52.1693L144.999 64.4663C144.999 65.7979 145.276 66.9512 144.395 68.0063C143.08 69.5815 143.55 69.1888 143.386 71.1041C143.248 72.7108 141.948 72.5629 140.7 72.5636C133.91 72.5678 126.561 72.6549 119.835 72.5699C118.117 72.5481 117.939 71.7573 117.931 70.2745ZM111.111 57.9542C111.513 57.6221 112.717 55.9604 113.109 55.9722C113.469 56.4415 110.989 63.0348 110.543 63.2331C110.24 63.3678 107.605 63.2822 107.075 63.2753C104.885 64.0535 106.069 64.5856 105.381 65.5623C104.591 66.6834 103.726 65.1546 103.089 64.4552C102.172 63.4481 101.266 62.4325 100.353 61.4228C99.8842 60.9052 98.0295 59.104 98.1531 58.4719C98.3762 57.3304 103.33 59.0133 100.655 57.5938C99.9803 57.2361 99.4419 57.0375 98.9968 56.3762C98.6814 55.9077 98.6474 55.4429 99.2032 55.154C99.8664 54.8095 100.638 55.0925 101.32 55.2237C103.411 55.6255 101.698 54.6437 101.003 54.2177C99.4635 53.2727 98.8032 52.7401 98.7891 50.7894C98.7812 49.6768 98.6885 47.3605 100.48 47.8511C101.422 48.109 103.53 49.2513 104.371 49.043C105.333 48.8047 105.754 48.2787 106.384 49.3731C106.969 50.3887 107.21 52.5243 107.614 53.0934C107.913 53.5147 107.647 51.1465 108.658 50.8707C109.551 50.6271 110.559 51.7848 110.807 52.5818C111.178 53.7686 111.09 56.6076 111.111 57.9542ZM115.559 22.2095C116.732 21.9035 117.944 21.777 119.142 21.5918C122.263 21.1092 121.289 20.3701 122.912 29.6105L124.663 40.2622C124.933 41.8576 125.392 42.3301 123.591 42.6399C124.596 44.5832 123.414 44.3231 120.209 44.7923L106.437 46.8098C105.009 47.0219 105.24 46.6491 105.03 45.3559C103.406 45.5895 103.72 44.7809 103.478 43.3505C103.294 42.2668 103.132 41.1676 102.956 40.0805L100.884 26.9552C100.702 25.8059 100.108 24.6428 101.586 24.427C102.708 24.2634 103.86 24.0568 104.995 24.0766C104.075 23.7686 104.483 21.8774 104.521 21.0941C104.549 20.5077 104.554 19.9013 104.594 19.3189C104.738 17.1912 107.516 20.2126 107.93 17.8721C108.148 16.6386 108.063 15.965 109.534 15.8253C110.285 15.7539 111.985 15.8786 112.581 16.3708C113.193 16.8763 112.396 18.2714 112.149 18.9153C111.681 20.1316 114.052 20.5473 115.559 22.2095ZM78.196 15.2134C73.7439 17.9495 80.454 14.4537 84.9303 15.6434C88.0995 16.4857 90.4644 19.1098 91.7249 22.0032C92.4764 23.7283 92.8355 25.5631 92.6747 27.4412C92.6418 27.8264 91.7434 32.3404 90.952 30.885C90.8167 30.6361 89.1757 26.3295 89.7282 29.1947C90.0669 30.9509 89.9921 32.9555 89.2116 34.5883C89.0261 35.0899 89.0748 35.8703 88.8473 36.2454C89.0126 36.6138 89.4906 36.7848 89.5887 37.4403C89.6925 38.1346 89.3789 38.3599 89.0619 38.8778L88.7696 39.5858L89.3597 39.5254C89.2439 39.8538 88.7813 40.0627 88.4731 40.2083C88.6336 40.4462 88.7677 41.3469 88.8699 41.7141C90.1733 44.1744 90.6637 47.8074 90.1189 50.5097C90.6142 51.3193 91.597 51.703 91.8788 52.3394C92.5073 53.7583 90.5324 53.242 90.6684 54.1333C90.9776 56.1619 92.5065 57.4255 92.4223 59.5805C92.3552 61.302 91.4344 63.4316 90.5099 64.8864C89.422 66.5985 88.5077 67.5346 86.4818 68.0852L87.0038 68.3614C95.9724 71.7132 100.387 81.1836 102.31 89.8291C102.504 90.0433 102.562 89.9764 102.872 89.9911C104.119 90.1431 104.636 91.8347 104.156 92.6589C104.205 93.2714 103.831 94.4944 103.676 95.1424C103.754 95.4679 105.317 98.6646 105.392 98.6894C105.515 95.4308 105.407 91.9976 105.399 88.7211C105.395 87.0666 105.38 85.4047 105.393 83.751C105.411 81.5161 106.396 81.6671 108.276 81.7085C114.771 82.1394 121.274 82.5127 127.77 82.9252C131.044 83.133 134.318 83.3246 137.592 83.5286C139.63 83.6556 145.571 83.7427 147.091 84.4798C152.298 74.6197 155.194 62.7361 154.992 51.6244C154.79 40.5292 151.415 30.4286 143.109 22.6782C135.279 15.3714 124.594 11.6189 113.984 10.6896C101.391 9.58672 90.2058 11.9259 78.196 15.2134Z" fill="#EDF8FF"/>
<path fill-rule="evenodd" clip-rule="evenodd" d="M36.005 69.0058L35.2566 69.7309C32.4535 73.4654 30.4573 76.3605 29.9115 81.1579C29.4637 85.0923 30.174 85.8765 30.3983 88.7685C30.5794 91.1033 30.2797 94.2785 30.2204 96.7074C29.9947 105.959 29.9598 119.325 28.3037 128.089L29.4726 130.341L46.3787 129.427C42.5701 123.938 42.1321 122.805 39.1966 117.028C38.0959 114.862 36.8697 112.878 35.5787 110.823C32.2525 105.527 31.0189 102.572 30.8282 96.1473C30.766 94.0477 30.9477 92.8752 31.7267 90.9542C32.5655 88.8858 33.1702 88.5696 33.5639 87.6926C33.6214 87.5645 33.7808 86.8625 33.8978 87.1828C34.5973 89.1004 34.2132 94.2635 36.1119 90.9167C36.1622 90.8281 37.2956 88.5188 37.2247 89.2231C37.1648 89.8192 36.8903 90.5787 36.7495 91.1765C36.4792 92.3239 36.3199 93.4597 36.1443 94.6214C35.3718 99.7295 36.9273 101.437 41.646 98.534C48.8991 94.0712 52.2119 95.5956 55.3793 93.5346C57.2106 92.343 55.5161 91.7875 54.2446 91.4778C49.7176 90.3756 44.4721 93.5942 42.1636 94.0403C42.1619 94.0407 44.6811 92.9447 45.8216 92.5312C47.8861 91.7828 50.9684 91.33 52.6772 90.1802C53.4838 89.6376 54.3408 88.2824 54.4167 87.2948C54.4314 87.1048 54.2466 86.1777 54.7265 86.3673C55.3988 86.6328 55.6247 87.7701 55.7082 86.4329C55.795 85.0412 55.4418 84.3811 54.9179 83.0596C53.9197 80.5407 52.9553 79.5738 51.3945 77.4983C50.6097 76.4546 50.5143 76.1974 51.6431 77.1547C53.3744 78.6231 54.7569 79.9297 56.0644 81.8022C59.3772 86.5466 59.2158 91.7613 60.1795 97.2016C61.1118 102.464 63.1214 106.717 65.4177 111.484C66.4071 111.486 67.3713 111.469 68.3638 111.499C69.3117 111.527 70.141 111.687 71.0601 111.742C72.5906 110.479 74.546 109.337 76.1931 108.139C77.0945 107.484 80.4711 104.739 81.1383 104.461C82.4769 103.903 77.6925 107.958 77.5235 108.102C76.0398 109.372 74.2454 110.88 72.5881 111.899C73.358 112.193 75.0016 112.385 75.9339 112.593C76.6703 112.757 78.6553 113.313 79.257 113.015L84.3932 110.218C85.0407 107.935 85.5506 105.672 86.1478 103.384C87.3155 98.9091 88.4179 92.9535 87.3638 88.3738C87.1123 87.2808 86.7026 86.276 86.2424 85.2553C83.9199 80.1033 86.9049 86.1235 87.2029 85.6811C87.5571 85.1553 86.5273 80.5213 86.3279 79.6985C86.2311 79.2996 85.056 74.8053 86.15 77.789C87.1047 80.3927 87.2677 82.3792 87.8667 84.2674C88.435 86.0591 88.7877 82.3107 88.8809 83.2417C88.9265 83.6977 88.4534 87.7643 89.7629 86.0439C90.1075 85.5911 91.8822 81.7616 91.8234 82.3482C91.643 84.1495 90.3905 85.9864 89.5749 87.5467C88.3579 89.8746 88.4613 92.2904 88.3439 94.827C88.1988 97.9629 89.2195 96.4837 90.5855 95.1964C94.2682 91.7256 97.2769 90.4466 102.31 89.8291C100.387 81.1836 95.9724 71.7132 87.0038 68.3614C86.3867 68.8514 84.2531 69.6401 83.4388 69.8724C81.8571 70.3239 80.6646 70.3748 79.1334 70.6669L79.0406 70.9229C78.5598 73.8953 77.3768 77.3052 74.7204 79.0655C71.7158 81.0564 68.2524 80.1003 65.5749 78.0763C60.3438 74.1219 57.9049 66.6974 59.1533 60.4303C54.8492 60.6691 50.0235 61.7107 45.9961 63.2361C41.9385 64.773 39.3401 66.2975 36.005 69.0058Z" fill="#456C91"/>
<path fill-rule="evenodd" clip-rule="evenodd" d="M9.68778 131.305C7.99652 131.459 6.34455 131.556 4.65168 131.659C3.28854 131.743 1.61364 131.845 0.681519 132.972C-0.158706 133.988 -0.217986 135.699 0.48136 136.8C1.282 138.061 2.87146 138.232 4.24692 138.322C10.9606 138.76 17.728 139.016 24.4515 139.384C31.1986 139.752 37.95 140.081 44.6989 140.42C49.203 140.646 61.1669 141.487 64.826 141.219C66.9063 139.51 66.1341 138.016 65.8092 135.476C65.6944 134.578 66.6024 134.659 67.2429 134.628C70.5113 134.471 73.7775 134.25 77.0449 134.095L91.6924 133.281C92.1565 133.252 96.5616 133.107 93.6022 132.94C88.606 133.328 83.5022 133.433 78.4855 133.635L67.0219 134.076C65.2816 134.149 64.8516 134.289 65.4689 132.415C59.417 132.198 53.2271 131.824 47.1518 131.54C46.1428 131.493 45.1273 131.453 44.1197 131.385C42.76 131.293 43.9246 130.406 44.4542 130.085C46.063 129.792 48.0521 129.952 49.7238 129.944C55.0097 129.916 60.2998 129.707 65.5731 129.338C67.4606 129.205 68.8206 129.131 70.727 129.255C72.4523 129.367 74.1767 129.458 75.9034 129.544C79.3982 129.718 82.9037 129.859 86.3956 130.051C88.597 130.173 91.0373 130.002 93.2775 129.939C93.8932 129.922 93.888 129.924 94.16 130.432C94.8874 131.791 95.2491 131.248 95.724 131.681L95.186 132.912C98.6432 132.963 106.365 132.367 110.232 132.144L140.693 130.486C145.713 130.211 150.953 130.089 155.936 129.627L144.971 128.681C144.567 129.842 143.439 129.52 142.324 129.517L125.223 129.503C120.582 129.485 124.027 129.773 122.472 126.655C120.683 126.52 118.881 126.65 117.089 126.69C115.212 126.733 113.337 126.768 111.46 126.814L81.0183 127.537C80.0221 127.558 79.5071 127.754 78.7055 127.136C78.246 127.84 76.46 127.628 75.6581 127.67C72.2725 127.847 68.6033 128.111 65.2846 128.224C63.0149 128.301 60.6165 128.392 58.3577 128.575C56.5812 128.719 53.3616 129.063 51.7813 129.076L51.0829 129.13C50.5469 129.34 47.2285 129.378 46.3787 129.427L29.4725 130.341L27.6523 130.395L28.3037 128.089C29.9598 119.325 29.9947 105.959 30.2204 96.7074C30.2796 94.2785 30.5794 91.1033 30.3983 88.7685C30.174 85.8765 29.4637 85.0924 29.9114 81.1579C30.4573 76.3605 32.4535 73.4654 35.2566 69.7309L18.8569 69.6921C13.1803 69.6874 13.356 69.4903 13.3541 75.1621C13.3536 76.9867 13.3552 78.8115 13.3553 80.6362L13.3532 124.093C13.353 125.635 13.4976 128.008 13.3265 129.451C13.0821 131.512 11.2889 131.264 9.68778 131.305Z" fill="#667385"/>
<path fill-rule="evenodd" clip-rule="evenodd" d="M129.213 94.3775C130.441 94.7587 133.835 94.2398 135.256 94.5963L135.116 94.9564C135.307 96.2621 135.057 99.0664 134.984 100.517C134.929 101.636 135.208 102.338 133.968 101.913C131.829 101.18 132.906 101.446 132.372 100.713L132.117 101.129C131.629 100.852 132.295 100.309 130.223 100.713C129.565 100.841 128.344 101.339 128.17 100.555C127.81 98.9346 127.888 97.0741 127.374 95.4455L127.59 95.1619C127.34 95.2244 126.884 94.7204 126.725 94.4979L126.849 94.3861C126.403 94.1819 125.48 94.2751 124.985 94.3407C125.436 92.9621 126.471 91.9811 128.028 92.1024C128.957 92.1749 131.014 93.4995 130.886 94.3515C130.472 94.5407 129.702 94.3546 129.213 94.3775ZM125.205 109.509C124.838 109.444 124.329 109.459 124.056 109.312C123.831 109.1 123.841 94.6479 124.079 94.4209C124.394 94.2578 124.636 94.3189 124.985 94.3407L125.738 109.497L125.765 110.287C125.902 111.76 125.982 113.266 126.078 114.745C126.22 116.947 126.633 116.72 124.953 118.1C123.36 119.407 121.047 121.247 119.23 122.156L119.681 122.806C120.868 122.126 121.967 121.339 123.068 120.538C123.485 120.235 125.985 118.116 126.239 118.194C126.48 118.726 126.637 124.152 126.762 125.27C127.16 125.698 129.224 126.192 129.327 126.563L122.472 126.655C124.027 129.773 120.582 129.485 125.223 129.503L142.324 129.517C143.439 129.52 144.567 129.842 144.971 128.681C144.575 125.145 141.922 128.121 141.346 124.895C140.964 122.755 140.555 120.618 140.164 118.479C139.78 116.379 139.288 114.159 138.982 112.065C138.778 110.673 139.969 110.851 140.955 110.886C142.167 110.929 143.462 111.037 144.665 111.022C147.812 110.981 147.736 108.972 147.737 106.491C147.737 103.965 147.739 101.438 147.738 98.9115C147.737 96.385 147.738 93.8585 147.738 91.3319C147.737 89.4054 148.078 86.0986 147.091 84.4798C145.571 83.7428 139.63 83.6556 137.592 83.5286C134.318 83.3246 131.044 83.133 127.77 82.9252C121.274 82.5127 114.771 82.1394 108.276 81.7085C106.908 83.0333 107.28 84.7382 107.276 86.5315L107.281 103.965C107.292 109.501 106.944 108.872 113.725 109.149C117.504 109.303 121.439 109.592 125.205 109.509Z" fill="#818EA0"/>
<path fill-rule="evenodd" clip-rule="evenodd" d="M85.1154 50.9068C85.8433 51.4278 86.3222 52.1222 87.0784 52.6131C87.5019 52.888 87.9423 52.9561 88.1928 53.4326C88.371 53.7714 88.5159 54.5152 88.4588 54.8925C88.2657 56.1712 86.8241 55.0824 86.1173 54.8891C83.8253 54.2624 81.7137 56.7506 80.3178 56.3868C79.7763 56.2457 79.7171 55.5874 79.8615 55.1463C80.027 54.6413 80.4536 54.5398 80.8882 54.3307C82.8589 53.3828 83.6751 52.4583 85.1154 50.9068ZM54.8355 24.605C54.3957 25.2505 53.8123 25.6542 53.3007 26.4663C52.8265 27.2189 52.5283 27.9774 52.2724 28.8237C51.7602 30.5181 51.6304 33.2513 52.077 34.9565C52.1259 36.3001 52.9887 38.4778 53.5337 39.744C53.8083 40.3822 54.2439 41.2109 54.5978 41.8096C54.9005 42.3216 55.612 43.4196 55.7664 43.916C56.2176 42.4308 55.9141 41.4325 57.2338 40.1973C58.1978 39.2952 59.7113 38.8297 60.9623 39.4172C63.1271 40.434 62.3723 45.6481 61.8425 47.5178C61.7253 47.8798 61.5568 48.4702 61.2992 48.7373C60.6164 48.9283 59.9101 48.8546 59.243 48.6374C59.5079 49.324 60.4322 50.4898 60.1771 51.1808C59.7523 52.3312 59.5622 53.1127 59.5715 54.3566C59.5846 56.0949 60.5723 58.5786 62.0336 59.6101C62.3133 56.2982 61.6988 58.3734 65.141 59.8952C68.3694 61.3224 69.0717 63.5097 71.6626 64.6702C73.5858 65.5315 74.0801 66.5389 76.4629 67.3559C77.3848 67.6722 78.6394 67.687 79.3706 68.2605C79.9141 68.0472 80.3959 68.243 81.1928 67.9377C81.6746 67.7531 82.247 67.3507 82.7585 67.4772C84.3164 67.8625 83.9965 68.1471 86.4817 68.0852C88.5076 67.5346 89.4218 66.5985 90.5098 64.8864C91.4342 63.4316 92.3551 61.302 92.4222 59.5805C92.5063 57.4256 90.9775 56.1619 90.6682 54.1333C90.5323 53.242 92.5071 53.7583 91.8787 52.3395C91.5968 51.703 90.6141 51.3193 90.1188 50.5097C90.0748 50.4892 89.2849 49.7163 89.1782 49.6055C88.9145 49.3319 88.3595 48.9396 88.2315 48.7752C87.5389 48.583 86.5078 47.8776 85.7056 47.9593C84.824 47.7505 84.29 47.8254 83.4196 48.0062C82.1002 48.1477 78.187 50.3674 76.7189 50.9992C76.2292 51.383 75.7176 51.7324 75.2349 52.1171C74.4863 52.7138 74.5146 52.8393 73.5356 52.467C69.4765 50.9229 68.0572 47.0799 67.2014 43.0754C66.5621 40.9743 65.5971 38.5523 66.28 36.3903C67.0988 33.7979 67.3201 31.9376 66.4634 29.2836C66.3004 28.7785 65.3508 27.0029 65.6828 26.6345C66.0426 26.2351 68.55 26.3013 69.2288 26.2502C71.8037 26.0565 74.133 25.244 76.7212 25.8368C78.7589 26.3034 80.7355 27.3942 82.2549 28.8034C83.3211 29.7924 85.5301 33.294 84.8266 29.5539C84.777 29.2905 84.0281 27.1528 84.4431 27.1633C84.9403 27.1756 86.1926 28.5036 86.519 28.8972C88.0044 30.6874 88.6445 32.3771 89.2115 34.5883C89.992 32.9555 90.0668 30.9509 89.728 29.1947C89.1755 26.3295 90.8166 30.6361 90.9519 30.8851C91.7433 32.3404 92.6417 27.8265 92.6746 27.4412C92.8354 25.5631 92.4762 23.7283 91.7248 22.0032C90.4642 19.1098 88.0994 16.4857 84.9302 15.6434C80.4539 14.4537 73.7438 17.9495 78.1959 15.2135C79.0039 14.6439 79.7824 14.1075 80.696 13.7059C81.0356 13.5566 82.9322 13.1244 82.0774 12.513C80.4076 11.3189 77.1655 12.1726 75.3672 12.7471C73.4626 13.3557 70.8512 14.6346 68.8854 14.4032C66.599 14.1339 66.0261 13.0166 63.374 16.096C62.312 17.3291 60.745 19.3829 59.3435 20.1785C58.2074 20.8234 61.491 17.2255 61.2328 16.7231C60.9716 16.2147 57.3809 16.5988 56.1103 18.7964C55.5392 19.7841 55.3849 21.0679 55.53 22.183C55.675 23.2975 55.99 23.914 54.8355 24.605Z" fill="#334160"/>
<path fill-rule="evenodd" clip-rule="evenodd" d="M25.9002 34.4218C25.7274 33.5407 26.8605 33.484 27.0088 34.1008C27.2021 34.9047 26.0249 35.0577 25.9002 34.4218ZM40.8519 18.6339C41.7032 18.3736 41.8474 19.5349 41.2429 19.7375C40.4431 20.0055 40.1252 18.8561 40.8519 18.6339ZM11.7729 18.6314C12.5127 18.42 12.7819 19.5311 12.1642 19.7322C11.366 19.9922 11.0792 18.8295 11.7729 18.6314ZM34.7445 10.6865C34.4099 12.0286 30.2276 16.7304 29.125 18.2389C28.5443 19.0332 28.5923 20.0236 28.1448 20.7244C27.6786 21.4543 26.7225 21.7242 25.9011 21.5033C25.1547 21.3025 24.5474 20.5301 23.7693 20.1743C23.0286 19.8355 22.0697 19.5338 21.2884 19.2497C17.7455 17.9618 19.7812 18.2594 22.1734 18.3679C23.3052 18.4192 24.099 18.5615 25.1838 18.1308C25.8606 17.8621 26.9635 17.6111 27.5027 17.2189C28.7677 16.2991 32.4812 12.4755 34.7445 10.6865ZM26.2937 4.99335C26.9678 4.59398 27.5167 5.66557 26.8566 5.99691C26.128 6.36256 25.6659 5.36537 26.2937 4.99335ZM20.0788 4.2896C10.5974 8.03674 6.30084 18.9066 11.2529 27.8725C16.0667 36.5878 27.7177 39.5273 36.0047 33.6774C38.8443 30.6143 40.6747 28.9014 41.8207 24.6796C43.9311 16.9055 40.1004 9.12554 32.6837 5.58231C28.4438 3.55681 24.6419 3.56277 20.0788 4.2896Z" fill="#DFE9F1"/>
<path fill-rule="evenodd" clip-rule="evenodd" d="M32.9656 44.8679C33.4268 45.3463 33.0537 45.5176 32.6893 46.007L29.6545 50.2636C28.3322 52.1904 27.0988 54.1617 25.8954 56.1607C24.1991 58.9786 20.2481 66.078 19.335 68.9703L36.005 69.0058C39.3402 66.2975 41.9385 64.773 45.9961 63.2361C50.0236 61.7107 54.8492 60.6691 59.1533 60.4303L61.6993 60.3914C61.9058 60.0219 61.9826 60.0812 62.0337 59.6101C60.5725 58.5786 59.5847 56.0949 59.5716 54.3566C59.5623 53.1127 59.7525 52.3312 60.1772 51.1808C60.4323 50.4898 59.5081 49.324 59.2432 48.6374C57.5571 47.9246 56.0679 46.2858 55.9717 44.3901L55.7666 43.916C55.6122 43.4196 54.9007 42.3216 54.5979 41.8096C54.2441 41.2109 53.8085 40.3822 53.5338 39.744C52.9889 38.4778 52.126 36.3001 52.0772 34.9565C49.7481 38.2877 48.4019 40.1155 44.7738 42.2458C41.088 44.4101 37.2165 45.0863 32.9656 44.8679Z" fill="#EDF8FF"/>
<path fill-rule="evenodd" clip-rule="evenodd" d="M95.1859 132.912L93.6021 132.94C96.5615 133.107 92.1565 133.252 91.6923 133.281L77.0448 134.095C73.7775 134.25 70.5112 134.471 67.2428 134.628C66.6023 134.659 65.6943 134.578 65.8092 135.476C66.134 138.016 66.9062 139.51 64.8259 141.219C81.9619 140.13 99.0971 139.021 116.23 137.89C129.003 137.047 142.005 136.316 154.739 135.4C156.478 135.275 158.675 135.043 158.964 132.954C159.259 130.828 157.678 130.123 155.936 129.627C150.953 130.089 145.713 130.211 140.693 130.486L110.231 132.144C106.365 132.367 98.6432 132.963 95.1859 132.912Z" fill="#818EA0"/>
<path fill-rule="evenodd" clip-rule="evenodd" d="M40.6626 105.24C41.5595 107.722 43.02 110.318 44.185 112.706C45.3081 115.007 46.762 117.5 48.0875 119.707C49.0471 120.149 49.8568 120.667 50.8882 121.096C51.8919 121.513 52.9531 121.874 54.0057 122.151C56.1942 122.727 59.2764 123.155 61.5297 123.074C63.4756 120.565 66.0166 118.198 68.7806 116.586C72.9702 114.143 75.7365 114.699 80.2531 114.349C74.8591 112.878 66.4679 110.863 60.9511 112.498C59.0225 113.069 58.9135 113.467 57.9487 113.867C57.3264 114.124 58.3684 113.359 58.3923 113.344C60.0157 112.278 61.453 112.096 63.2881 111.647C62.7159 109.448 61.429 106.566 60.5966 104.364C59.6966 101.984 58.6751 99.6553 57.7625 97.2876C53.8739 97.4094 50.9211 97.7583 47.4008 99.4856C46.0304 100.158 44.808 101.04 43.6798 102.053C42.518 103.096 41.7305 104.2 40.6626 105.24Z" fill="#FDDBCC"/>
<path fill-rule="evenodd" clip-rule="evenodd" d="M119.286 64.6349C120.21 63.9568 122.19 64.2656 123.342 64.2669C125.156 64.2691 136.311 64.1245 136.567 64.4398C136.873 64.8178 132.987 64.6784 132.748 64.6781C129.045 64.674 122.33 64.857 119.286 64.6349ZM117.93 70.2745C123.235 70.3066 128.553 70.2612 133.859 70.2648C134.908 70.2655 141.188 70.4838 141.629 70.0757C142.059 69.6779 141.868 63.3339 141.773 62.4633C141.998 60.5989 141.843 57.987 141.839 56.0446C141.831 52.3299 142.588 52.7982 138.733 52.795C134.497 52.7916 130.177 52.8719 125.958 52.7992C123.605 52.7728 121.25 52.7865 118.896 52.7866C116.622 52.7867 116.437 52.5283 116.445 53.9373L116.444 68.2562C116.448 70.0186 116.069 70.2554 117.93 70.2745Z" fill="#F8F3DF"/>
<path fill-rule="evenodd" clip-rule="evenodd" d="M115.559 22.2095L115.389 22.6261L116.043 23.1523C116.078 23.5493 115.198 25.7129 114.906 26.0246C114.416 26.1546 112.466 25.7808 111.828 25.6972C109.478 25.3894 109.517 25.5868 109.48 24.5349L109.353 23.4779L107.459 23.4411L107.314 24.1739C106.685 24.3381 105.69 24.0289 104.995 24.0766C103.86 24.0568 102.708 24.2634 101.587 24.427C100.108 24.6428 100.702 25.8059 100.885 26.9552L102.956 40.0805C103.132 41.1676 103.294 42.2668 103.478 43.3505C103.721 44.7809 103.406 45.5895 105.03 45.3559L123.591 42.6399C125.392 42.3301 124.933 41.8576 124.663 40.2622L122.912 29.6106C121.289 20.3701 122.263 21.1092 119.142 21.5918C117.944 21.777 116.732 21.9035 115.559 22.2095Z" fill="#F8F3DF"/>
<path fill-rule="evenodd" clip-rule="evenodd" d="M46.3787 129.427C47.2284 129.378 50.5469 129.34 51.0828 129.13C51.329 127.965 53.3631 125.6 53.3971 125.313C52.7557 124.784 51.0945 124.491 50.2217 123.695C49.4043 123.218 49.4069 122.598 49.0765 121.785C48.779 121.052 48.3928 120.407 48.0874 119.707C46.7619 117.5 45.308 115.007 44.1849 112.706C43.0199 110.318 41.5594 107.722 40.6625 105.24C39.0304 101.984 39.0054 102.154 40.9833 100.324C42.4189 98.9956 43.9427 97.9126 45.7311 97.0846C48.5618 95.7739 52.5855 94.8462 55.7507 95.3342C57.0722 95.5379 57.275 96.1799 57.7624 97.2876C58.675 99.6553 59.6965 101.984 60.5965 104.364C61.4289 106.566 62.7158 109.448 63.288 111.647L65.4176 111.484C63.1214 106.717 61.1117 102.464 60.1795 97.2016C59.2157 91.7613 59.3771 86.5466 56.0643 81.8022C54.7568 79.9297 53.3743 78.6231 51.643 77.1548C50.5142 76.1975 50.6096 76.4546 51.3945 77.4983C52.9552 79.5738 53.9196 80.5407 54.9178 83.0596C55.4417 84.3811 55.7949 85.0412 55.7081 86.4329C55.6247 87.7701 55.3988 86.6328 54.7264 86.3673C54.2465 86.1777 54.4313 87.1048 54.4166 87.2948C54.3407 88.2824 53.4837 89.6376 52.6771 90.1802C50.9683 91.33 47.886 91.7828 45.8215 92.5312C44.681 92.9447 42.1618 94.0407 42.1635 94.0403C44.472 93.5942 49.7175 90.3756 54.2446 91.4778C55.516 91.7875 57.2105 92.343 55.3793 93.5346C52.2119 95.5956 48.899 94.0712 41.6459 98.534C36.9272 101.437 35.3717 99.7295 36.1442 94.6214C36.3198 93.4597 36.4792 92.3239 36.7494 91.1765C36.8902 90.5787 37.1647 89.8192 37.2247 89.2231C37.2956 88.5188 36.1622 90.8281 36.1119 90.9167C34.2131 94.2635 34.5972 89.1004 33.8977 87.1828C33.7807 86.8625 33.6213 87.5645 33.5638 87.6926C33.1702 88.5696 32.5655 88.8858 31.7266 90.9542C30.9476 92.8752 30.7659 94.0477 30.8281 96.1473C31.0188 102.572 32.2524 105.527 35.5786 110.823C36.8696 112.878 38.0958 114.862 39.1966 117.028C42.132 122.805 42.57 123.938 46.3787 129.427Z" fill="#23456D"/>
<path fill-rule="evenodd" clip-rule="evenodd" d="M61.5295 123.074L65.0385 123.105C71.8539 122.992 78.6793 122.534 85.516 122.367C87.6225 122.316 90.2901 122.192 92.3429 122.539C94.3913 122.885 96.1945 123.497 98.3246 123.653C100.645 123.824 102.391 123.437 104.609 122.904C107.351 122.245 107.731 122.745 110.363 123.178C112.138 123.47 113.488 124.561 114.648 125.857L116.508 125.846C114.848 123.475 112.715 122.286 110.114 121.036C110.08 121.02 107.616 120.007 108.493 120.085C109.73 120.196 112.583 121.552 113.697 122.222C115.448 123.275 116.277 124.186 117.404 125.836L118.502 125.83C117.087 123.385 115.828 122.52 113.806 120.685C112.538 119.534 113.999 120.336 114.503 120.669C115.419 121.274 116.456 122.017 117.251 122.765C117.369 122.876 119.057 124.783 118.868 123.645C118.739 122.868 117.528 121.452 116.968 120.854C115.089 118.846 113.5 117.948 110.847 117.199C108.156 116.44 106.154 114.984 103.254 115.419C100.693 115.803 97.8233 116.484 95.3898 117.362C93.9782 117.871 93.1775 118.066 91.6861 117.629C87.8569 116.506 84.1536 115.323 80.253 114.349C75.7364 114.699 72.9701 114.143 68.7805 116.586C66.0165 118.198 63.4755 120.565 61.5295 123.074Z" fill="#F0B0AE"/>
<path fill-rule="evenodd" clip-rule="evenodd" d="M96.4082 95.8247C94.5665 98.5571 94.5337 101.113 95.0297 104.394C95.1068 104.903 95.2087 105.389 95.3074 105.893C95.4666 106.706 95.4159 106.559 96.2283 106.719C96.7406 106.784 98.7726 107.043 99.0653 107.419C99.2022 107.595 96.5636 107.382 96.3479 107.386C91.297 107.48 85.4598 110.402 81.0304 112.823C79.7586 113.518 80.7716 113.768 81.6119 113.991C83.7561 114.56 85.9123 115.195 88.0382 115.83C89.7677 116.347 92.6731 117.588 94.3727 117.024C96.6837 116.258 98.3 115.65 100.747 115.142C103.631 114.543 104.758 114.129 107.531 115.394L110.305 114.328L110.303 113.528C110.252 113.448 109.653 109.943 109.634 109.608C106.557 109.323 105.43 109.818 105.417 106.154C105.408 103.71 105.5 101.113 105.392 98.6894C105.317 98.6646 103.754 95.4679 103.676 95.1424C103.072 94.4424 103.353 93.9291 102.306 94.1034C101.608 94.2195 100.875 94.3731 100.192 94.5576C99.2271 94.8189 97.2095 95.3396 96.4082 95.8247Z" fill="#FDDBCC"/>
<path fill-rule="evenodd" clip-rule="evenodd" d="M36.0047 33.6774C27.7177 39.5273 16.0668 36.5878 11.2529 27.8725C6.30087 18.9066 10.5974 8.03675 20.0788 4.28962C28.1862 1.03854 37.2357 4.41703 41.4096 11.8928C45.6203 19.4343 43.1456 28.8693 36.0047 33.6774ZM24.6084 39.4991C28.8593 39.7176 32.7308 39.0414 36.4166 36.8771C40.0447 34.7467 41.3909 32.919 43.72 29.5877C44.4054 27.8213 45.2649 26.2671 45.6946 25.2782C46.1244 24.2892 46.3352 23.4415 46.4108 22.5938C46.4865 21.7461 46.4785 20.6158 46.4785 19.2363C46.4785 17.8567 45.1463 12.0139 42.6633 8.55638C35.7538 -1.06456 21.6122 -2.71567 12.5308 5.76664C3.65416 14.0574 4.36128 27.9402 14.0439 35.3967C17.3197 37.9194 20.5625 38.8759 24.6084 39.4991Z" fill="#667385"/>
<path fill-rule="evenodd" clip-rule="evenodd" d="M74.5587 40.2154C74.6963 40.1462 75.6318 40.2138 75.88 40.202C77.3814 40.1311 78.5724 39.6137 79.876 39.5269C79.8511 39.8344 79.1979 39.9484 78.8569 40.4388C78.5325 40.9052 78.1192 41.1604 77.5473 41.2579C76.4931 41.4375 76.7056 40.9204 76.0465 40.7258C75.6572 40.6108 74.7994 40.5612 74.5587 40.2154ZM81.7487 34.5165C82.2864 35.2044 82.1821 36.6886 81.3949 37.2158C80.8009 37.6137 78.9048 37.5759 78.0993 37.6668C75.8992 37.9149 73.7906 38.7501 71.703 37.766C70.4246 37.1634 71.4729 36.7649 72.3084 36.3479C74.7062 35.1505 78.372 35.2843 81.7487 34.5165ZM67.2016 43.0754C68.9582 42.4401 69.2882 41.9078 71.4413 41.8901C72.9366 41.8779 74.5729 42.2502 75.8556 43.0229C77.0951 43.7695 78.1806 44.8502 77.7198 46.3956C77.1823 48.1986 76.9454 49.102 76.719 50.9992C78.1871 50.3674 82.1003 48.1477 83.4197 48.0062C82.6614 47.4031 81.6553 47.8246 81.025 46.3064C80.6177 45.6245 81.2576 44.7043 81.4724 44.0252C81.7278 43.2177 81.8716 42.3141 81.937 41.4715C81.9674 41.0804 81.8561 38.7091 81.8681 38.6821C82.1529 38.0393 83.5571 38.0564 84.1255 38.1073C84.0335 37.8011 83.6404 36.9964 83.7796 36.7412C83.946 36.8548 85.079 39.4979 85.3098 39.9435C85.7879 40.8662 86.484 42.1301 87.0261 43.0125C87.3813 42.5765 88.2593 41.607 88.8699 41.7141C88.7677 41.3469 88.6337 40.4462 88.4731 40.2083C86.4838 40.8535 86.538 39.927 86.0338 39.7274C85.7188 39.6027 85.4607 39.7588 85.2504 39.4524C85.9345 38.6933 88.4906 39.7386 88.7696 39.5858L89.062 38.8778C88.6296 38.2406 88.7516 38.0073 87.8679 37.6865C85.992 37.0055 84.336 38.3504 84.5943 36.3196C84.6489 35.8902 84.8891 34.9493 85.2011 34.6581C86.0014 34.4583 88.1338 35.7951 88.8474 36.2454C89.0748 35.8703 89.0261 35.09 89.2116 34.5883C88.6447 32.3771 88.0045 30.6874 86.5192 28.8971C86.1928 28.5036 84.9404 27.1756 84.4433 27.1633C84.0283 27.1528 84.7771 29.2905 84.8267 29.5539C85.5303 33.294 83.3213 29.7924 82.255 28.8034C80.7357 27.3942 78.759 26.3034 76.7214 25.8368C74.1331 25.244 71.8038 26.0565 69.2289 26.2502C68.5502 26.3013 66.0427 26.2351 65.6829 26.6345C65.351 27.0029 66.3006 28.7785 66.4636 29.2836C67.3202 31.9375 67.099 33.7979 66.2802 36.3903C65.5973 38.5523 66.5622 40.9743 67.2016 43.0754Z" fill="#FDDBCC"/>
<path fill-rule="evenodd" clip-rule="evenodd" d="M9.68774 131.305C11.2888 131.264 13.0821 131.512 13.3265 129.451C13.4975 128.008 13.3529 125.635 13.3531 124.093L13.3552 80.6362C13.3551 78.8115 13.3535 76.9867 13.354 75.162C13.356 69.4903 13.1802 69.6874 18.8569 69.6921L35.2565 69.7309L36.005 69.0057L19.3349 68.9703C10.6959 68.9177 9.71552 68.1869 9.71693 73.0565L9.71703 95.4586C9.71794 107.378 9.87063 119.399 9.68774 131.305Z" fill="#3B4A61"/>
<path fill-rule="evenodd" clip-rule="evenodd" d="M79.0405 70.923C77.3335 70.4783 75.7527 70.5852 73.955 70.077C71.9544 69.5115 70.4908 68.273 70.1846 68.863C69.8558 69.4965 70.082 73.401 70.2208 74.2761C70.3076 74.8231 70.6886 76.1014 70.6699 76.5175C70.6378 77.2327 69.6222 74.6767 69.7705 69.8075C69.8444 67.3835 69.2082 67.813 67.7284 66.1872C64.6129 62.7642 65.7135 63.1444 61.6993 60.3914L59.1533 60.4304C57.9049 66.6974 60.3438 74.1219 65.5749 78.0763C68.2523 80.1004 71.7157 81.0564 74.7204 79.0655C77.3768 77.3053 78.5597 73.8953 79.0405 70.923Z" fill="#FDDBCC"/>
<path fill-rule="evenodd" clip-rule="evenodd" d="M110.303 113.528L110.306 114.328C110.357 115.111 110.302 115.678 110.177 116.443C112.667 116.848 113.443 117.014 115.565 118.444C117.001 119.412 118.327 120.688 119.23 122.156C121.047 121.247 123.36 119.407 124.953 118.1C126.633 116.72 126.22 116.947 126.078 114.745C125.982 113.266 125.902 111.76 125.765 110.287L116.591 109.918C116.192 110.396 114 111.358 113.313 111.694C112.761 111.963 112.191 112.232 111.631 112.481C111.024 112.752 110.357 112.866 110.303 113.528Z" fill="#FEFEFE"/>
<path fill-rule="evenodd" clip-rule="evenodd" d="M107.075 63.2753C106.421 61.9728 101.433 56.4472 105.568 57.9698C105.944 58.1082 106.458 58.3145 106.786 58.534C106.991 58.6714 107.514 59.2579 107.609 59.2536C107.72 58.7706 107.274 58.1104 107.538 57.3329C107.668 56.9496 108.285 55.9715 108.662 55.8167C109.889 55.313 110.238 58.3462 111.111 57.9542C111.09 56.6076 111.178 53.7686 110.807 52.5818C110.559 51.7848 109.551 50.6271 108.658 50.8707C107.647 51.1465 107.913 53.5147 107.614 53.0934C107.21 52.5243 106.969 50.3887 106.384 49.3731C105.754 48.2787 105.333 48.8047 104.371 49.043C103.53 49.2513 101.422 48.109 100.48 47.8511C98.6885 47.3605 98.7812 49.6768 98.7891 50.7894C98.8032 52.7401 99.4634 53.2727 101.003 54.2177C101.698 54.6437 103.411 55.6255 101.32 55.2237C100.638 55.0925 99.8664 54.8095 99.2032 55.1541C98.6473 55.4429 98.6814 55.9077 98.9968 56.3762C99.4419 57.0375 99.9803 57.2361 100.654 57.5938C103.33 59.0133 98.3762 57.3304 98.1531 58.4719C98.0295 59.104 99.8842 60.9052 100.353 61.4229C101.266 62.4325 102.172 63.4481 103.089 64.4552C103.726 65.1546 104.591 66.6834 105.381 65.5623C106.069 64.5856 104.885 64.0535 107.075 63.2753Z" fill="#46867D"/>
<path fill-rule="evenodd" clip-rule="evenodd" d="M125.979 47.2497L141.487 47.2584C141.668 46.6296 141.563 43.8425 141.565 42.9909C141.567 41.7209 141.467 40.0148 141.596 38.7985C137.536 38.8106 133.474 38.8012 129.413 38.8003C125.941 38.7995 126.633 38.4581 126.634 41.9803C126.635 42.9628 126.633 43.9453 126.633 44.9279C126.633 45.7296 126.941 47.1225 125.979 47.2497Z" fill="#EAD5B1"/>
<path fill-rule="evenodd" clip-rule="evenodd" d="M65.0386 123.105C64.0368 123.23 62.5501 123.013 61.6933 123.159C61.2387 123.236 60.3529 124.56 60.1816 125.019L60.5202 125.202C64.9152 125.303 73.2407 125.237 77.492 124.742C79.3081 124.531 84.0117 123.705 85.1142 123.715C86.8592 123.73 91.5429 123.909 93.0008 124.524C93.4677 124.863 94.7158 125.591 95.2487 125.734C96.1147 125.967 96.1678 125.086 97.7825 125.333C98.8063 125.49 99.9404 125.587 100.976 125.646C102.02 125.706 103.002 125.976 103.942 125.453C106.647 123.948 105.906 124.24 109.747 124.22C111.198 124.212 111.302 124.088 112.452 124.966C113.434 125.716 113.392 125.954 114.648 125.857C113.489 124.561 112.138 123.47 110.363 123.178C107.731 122.745 107.351 122.245 104.609 122.904C102.391 123.437 100.645 123.824 98.3247 123.653C96.1945 123.497 94.3914 122.885 92.3429 122.539C90.2902 122.192 87.6225 122.316 85.5161 122.367C78.6794 122.534 71.854 122.992 65.0386 123.105Z" fill="#CE8784"/>
<path fill-rule="evenodd" clip-rule="evenodd" d="M143.335 62.876C142.88 62.8855 142.352 62.9507 141.898 62.8346L141.847 62.4246L141.774 62.4633C141.868 63.3339 142.059 69.6779 141.629 70.0757C141.188 70.4838 134.908 70.2655 133.859 70.2648C128.553 70.2612 123.235 70.3066 117.931 70.2745C117.939 71.7573 118.117 72.5481 119.835 72.5699C126.561 72.6549 133.91 72.5678 140.7 72.5636C141.948 72.5629 143.248 72.7108 143.386 71.1041C143.55 69.1888 143.081 69.5815 144.396 68.0063C145.277 66.9512 144.999 65.798 144.999 64.4663L144.999 52.1694C144.991 51.2429 144.329 49.5053 143.617 50.9268C143.296 51.5674 143.417 53.9459 143.418 54.7814C143.422 57.479 143.496 60.1824 143.335 62.876Z" fill="#CDD6DE"/>
<path fill-rule="evenodd" clip-rule="evenodd" d="M86.3956 130.051C85.4299 130.337 82.5874 130.308 81.4456 130.325C79.7641 130.348 78.0178 130.37 76.3412 130.441C74.6528 130.513 72.9591 130.547 71.2696 130.589C69.7082 130.628 68.0645 130.563 66.6181 131.172C66.0613 131.635 65.8857 131.821 65.4689 132.415C64.8516 134.289 65.2816 134.149 67.0219 134.076L78.4855 133.635C83.5022 133.433 88.606 133.328 93.6022 132.94L95.186 132.912L95.724 131.681C95.2491 131.248 94.8874 131.791 94.1601 130.432C93.888 129.924 93.8933 129.922 93.2775 129.939C91.0373 130.002 88.597 130.173 86.3956 130.051Z" fill="#DFE9F1"/>
<path fill-rule="evenodd" clip-rule="evenodd" d="M125.958 52.7992C130.178 52.8719 134.497 52.7915 138.733 52.795C142.588 52.7982 141.831 52.3299 141.839 56.0446C141.843 57.9869 141.998 60.5988 141.773 62.4633L141.847 62.4246C142.809 62.338 142.847 61.9459 142.847 61.0996L142.865 54.1075C142.876 52.5645 142.867 51.0188 142.866 49.4755C142.864 47.4093 142.652 47.7193 139.845 47.7208L128.045 47.7238C126.051 47.7213 126.35 47.8964 126.356 50.7388C126.358 51.7838 126.51 51.8832 125.958 52.7992Z" fill="#EAD5B1"/>
<path fill-rule="evenodd" clip-rule="evenodd" d="M93.0007 124.524C91.762 124.271 87.3774 124.459 85.9811 124.6C84.5906 124.74 82.4747 126.413 80.9652 126.864C80.2304 127.052 79.4709 126.72 78.7053 127.136C79.507 127.754 80.0219 127.558 81.0182 127.537L111.46 126.814C113.337 126.768 115.212 126.733 117.089 126.69C118.881 126.65 120.683 126.52 122.471 126.655L129.327 126.563C129.224 126.192 127.16 125.698 126.762 125.27C126.046 125.635 126.013 125.888 125.141 125.869C124.427 125.853 123.712 125.838 122.998 125.835C122.354 125.832 119.49 125.967 119.151 125.704C118.95 125.874 118.784 125.818 118.502 125.83L117.404 125.836L116.508 125.846L114.648 125.857C113.392 125.954 113.434 125.716 112.452 124.966C111.302 124.089 111.197 124.212 109.747 124.22C105.906 124.24 106.646 123.948 103.942 125.453C103.002 125.976 102.02 125.706 100.976 125.646C99.9403 125.587 98.8062 125.49 97.7824 125.333C96.1677 125.086 96.1145 125.967 95.2486 125.734C94.7156 125.591 93.4675 124.863 93.0007 124.524Z" fill="#98A2AC"/>
<path fill-rule="evenodd" clip-rule="evenodd" d="M67.2017 43.0754C68.0574 47.0798 69.4767 50.9229 73.5359 52.4669C74.5149 52.8393 74.4866 52.7137 75.2351 52.1171C75.7178 51.7324 76.2294 51.3829 76.7191 50.9992C76.9454 49.102 77.1824 48.1986 77.7199 46.3956C78.1806 44.8501 77.0952 43.7695 75.8557 43.0229C74.573 42.2502 72.9367 41.8779 71.4414 41.8901C69.2883 41.9078 68.9583 42.4401 67.2017 43.0754Z" fill="#DC908D"/>
<path fill-rule="evenodd" clip-rule="evenodd" d="M62.0336 59.6101C61.9825 60.0812 61.9056 60.0219 61.6992 60.3914C65.7134 63.1444 64.6128 62.7642 67.7283 66.1872C69.2081 67.813 69.8443 67.3835 69.7704 69.8075C69.6221 74.6767 70.6377 77.2327 70.6698 76.5175C70.6885 76.1014 70.3075 74.8231 70.2207 74.2761C70.0819 73.401 69.8558 69.4965 70.1845 68.863C70.4907 68.273 71.9543 69.5115 73.9549 70.077C75.7526 70.5852 77.3335 70.4783 79.0405 70.923L79.1333 70.6669L79.3706 68.2606C78.6394 67.687 77.3849 67.6722 76.4629 67.356C74.0801 66.5389 73.5859 65.5315 71.6626 64.6702C69.0718 63.5098 68.3694 61.3224 65.141 59.8952C61.6988 58.3734 62.3133 56.2982 62.0336 59.6101Z" fill="#DC908D"/>
<path fill-rule="evenodd" clip-rule="evenodd" d="M104.995 24.0766C105.69 24.0289 106.684 24.3382 107.313 24.1739L107.459 23.4411L109.353 23.4779L109.479 24.5349L114.086 25.0783C114.552 24.573 114.945 23.1961 115.389 22.6261L115.559 22.2095C114.052 20.5474 111.681 20.1317 112.149 18.9153C112.396 18.2715 113.193 16.8763 112.581 16.3708C111.985 15.8786 110.285 15.7539 109.534 15.8253C108.063 15.9651 108.148 16.6387 107.93 17.8721C107.516 20.2126 104.738 17.1912 104.594 19.3189C104.554 19.9013 104.548 20.5078 104.521 21.0941C104.483 21.8775 104.075 23.7686 104.995 24.0766Z" fill="#3B4A61"/>
<path fill-rule="evenodd" clip-rule="evenodd" d="M88.1982 108.506L84.7167 110.114L84.3932 110.218L79.2569 113.015C78.6552 113.313 76.6702 112.757 75.9339 112.593C75.0016 112.385 73.358 112.193 72.588 111.899C72.2128 111.951 71.4625 111.809 71.0601 111.742C70.141 111.687 69.3117 111.527 68.3638 111.499C67.3713 111.469 66.407 111.486 65.4176 111.484L63.288 111.647C61.4529 112.096 60.0157 112.278 58.3923 113.344C58.3683 113.359 57.3263 114.124 57.9486 113.867C58.9135 113.467 59.0224 113.069 60.951 112.498C66.4678 110.863 74.8591 112.878 80.2531 114.349C84.1536 115.323 87.857 116.506 91.6862 117.629C93.1776 118.066 93.9782 117.871 95.3898 117.362C97.8233 116.484 100.693 115.803 103.254 115.419C106.154 114.984 108.156 116.44 110.847 117.199C113.5 117.948 115.089 118.846 116.968 120.854C117.528 121.452 118.739 122.868 118.868 123.645C119.057 124.783 117.369 122.876 117.251 122.765C116.456 122.017 115.419 121.274 114.503 120.669C113.999 120.336 112.538 119.534 113.806 120.685C115.828 122.52 117.087 123.385 118.502 125.83C118.784 125.818 118.95 125.874 119.151 125.704C119.092 125.368 118.886 124.986 118.956 124.66C119.36 124.537 119.899 124.61 120.256 124.413C120.247 123.857 119.866 123.325 119.681 122.806L119.23 122.156C118.327 120.688 117.001 119.412 115.565 118.444C113.443 117.014 112.667 116.848 110.177 116.443C109.565 116.339 107.943 115.811 107.531 115.394C104.758 114.129 103.631 114.543 100.747 115.142C98.3 115.65 96.6837 116.258 94.3727 117.024C92.6731 117.588 89.7677 116.347 88.0382 115.83C85.9123 115.195 83.756 114.56 81.6119 113.991C80.7716 113.768 79.7586 113.518 81.0304 112.823C85.4598 110.402 91.297 107.48 96.3479 107.386C96.5636 107.382 99.2021 107.595 99.0653 107.419C98.7726 107.043 96.7406 106.784 96.2283 106.719C93.286 106.675 90.8728 107.395 88.1982 108.506Z" fill="#C08987"/>
<path fill-rule="evenodd" clip-rule="evenodd" d="M105.392 98.6894C105.5 101.113 105.408 103.71 105.417 106.154C105.43 109.818 106.557 109.323 109.634 109.608L116.591 109.918L125.765 110.287L125.738 109.497L125.205 109.509C121.439 109.592 117.504 109.303 113.725 109.149C106.944 108.872 107.292 109.501 107.281 103.965L107.276 86.5315C107.28 84.7381 106.908 83.0333 108.276 81.7085C106.396 81.6671 105.411 81.5161 105.393 83.751C105.38 85.4047 105.395 87.0666 105.399 88.7211C105.407 91.9976 105.515 95.4308 105.392 98.6894Z" fill="#667385"/>
<path fill-rule="evenodd" clip-rule="evenodd" d="M51.7812 129.076C53.3615 129.063 56.5811 128.719 58.3576 128.575C60.6164 128.392 63.0148 128.301 65.2845 128.224C68.6032 128.111 72.2724 127.847 75.6581 127.67C76.4599 127.628 78.2459 127.84 78.7054 127.136C79.471 126.72 80.2304 127.052 80.9653 126.864C82.014 126.197 83.6558 125.552 84.5317 124.91C85.0745 124.512 83.3854 124.953 83.3524 124.96C76.8975 126.292 65.8913 126.254 59.2789 125.865C57.3628 125.753 56.4239 125.351 54.6927 126.373C53.4807 127.09 52.5917 127.941 51.7812 129.076Z" fill="#DC908D"/>
<path fill-rule="evenodd" clip-rule="evenodd" d="M86.8938 104.97C87.2229 106.019 88.0774 107.45 88.1984 108.506C90.8729 107.395 93.2862 106.675 96.2285 106.719C95.416 106.559 95.4667 106.706 95.3076 105.893C95.2088 105.389 95.1069 104.903 95.0298 104.394C94.5338 101.113 94.5666 98.5571 96.4083 95.8247C92.4254 97.0533 88.4831 101.244 86.8938 104.97Z" fill="#DC908D"/>
<path fill-rule="evenodd" clip-rule="evenodd" d="M84.3933 110.218L84.7169 110.114C85.0049 109.335 85.4735 108.395 85.804 107.577C86.0518 106.963 86.5772 105.439 86.8938 104.97C88.483 101.244 92.4254 97.0533 96.4083 95.8247C97.2097 95.3395 99.2272 94.8189 100.193 94.5576C100.875 94.3731 101.608 94.2195 102.306 94.1034C103.354 93.9291 103.072 94.4424 103.677 95.1424C103.831 94.4944 104.205 93.2714 104.156 92.6589C97.1331 93.5256 91.8113 96.2482 87.8694 101.962C87.8305 102.018 86.8196 103.715 86.9214 103.234C87.0969 102.405 87.437 101.491 87.6376 100.623C87.8617 99.6525 87.9588 98.6711 88.5562 97.8313C89.336 96.735 91.2495 95.0873 92.3376 94.227C95.5808 91.6625 98.8145 90.6181 102.872 89.991C102.562 89.9764 102.504 90.0433 102.31 89.8291C97.2769 90.4466 94.2683 91.7256 90.5855 95.1964C89.2196 96.4837 88.1989 97.9629 88.344 94.827C88.4613 92.2904 88.3579 89.8746 89.5749 87.5467C90.3905 85.9864 91.6431 84.1495 91.8234 82.3482C91.8822 81.7616 90.1075 85.5911 89.763 86.0439C88.4535 87.7643 88.9266 83.6977 88.8809 83.2417C88.7877 82.3107 88.4351 86.0591 87.8667 84.2674C87.2678 82.3792 87.1048 80.3927 86.1501 77.789C85.0561 74.8052 86.2312 79.2996 86.328 79.6985C86.5274 80.5213 87.5572 85.1553 87.2029 85.6811C86.905 86.1235 83.92 80.1033 86.2424 85.2553C86.7026 86.276 87.1123 87.2808 87.3639 88.3738C88.418 92.9535 87.3155 98.9091 86.1479 103.384C85.5506 105.672 85.0407 107.935 84.3933 110.218Z" fill="#23456D"/>
<path fill-rule="evenodd" clip-rule="evenodd" d="M40.6624 105.24C41.7303 104.2 42.5178 103.096 43.6797 102.053C44.8078 101.04 46.0303 100.158 47.4006 99.4856C50.9209 97.7583 53.8737 97.4095 57.7623 97.2876C57.2749 96.1799 57.0722 95.5379 55.7506 95.3342C52.5854 94.8462 48.5618 95.774 45.731 97.0846C43.9426 97.9127 42.4188 98.9956 40.9832 100.324C39.0053 102.154 39.0304 101.984 40.6624 105.24Z" fill="#DC908D"/>
<path fill-rule="evenodd" clip-rule="evenodd" d="M104.156 92.6589C104.636 91.8347 104.119 90.1431 102.872 89.9911C98.8144 90.6181 95.5807 91.6625 92.3375 94.227C91.2494 95.0873 89.3359 96.735 88.5561 97.8313C87.9587 98.6711 87.8616 99.6525 87.6375 100.623C87.4369 101.491 87.0968 102.405 86.9213 103.234C86.8195 103.715 87.8304 102.018 87.8693 101.962C91.8112 96.2482 97.133 93.5256 104.156 92.6589Z" fill="#456C91"/>
<path fill-rule="evenodd" clip-rule="evenodd" d="M20.0786 4.28961C24.6417 3.56278 28.4436 3.55681 32.6835 5.58232C40.1002 9.12554 43.9309 16.9055 41.8205 24.6796C40.6745 28.9014 38.8441 30.6143 36.0045 33.6774C43.1454 28.8693 45.62 19.4343 41.4094 11.8928C37.2355 4.41703 28.186 1.03853 20.0786 4.28961Z" fill="#B1BECB"/>
<path fill-rule="evenodd" clip-rule="evenodd" d="M107.075 63.2753C107.605 63.2823 110.24 63.3678 110.543 63.2331C110.989 63.0348 113.469 56.4415 113.109 55.9722C112.717 55.9604 111.513 57.6221 111.111 57.9542C110.238 58.3463 109.889 55.313 108.662 55.8167C108.285 55.9715 107.668 56.9496 107.538 57.3329C107.274 58.1104 107.72 58.7706 107.609 59.2536C107.514 59.2579 106.991 58.6714 106.786 58.5341C106.458 58.3145 105.944 58.1082 105.568 57.9698C101.433 56.4472 106.421 61.9728 107.075 63.2753Z" fill="#FDA955"/>
<path fill-rule="evenodd" clip-rule="evenodd" d="M51.0828 129.13L51.7812 129.075C52.5917 127.941 53.4807 127.089 54.6927 126.373C56.4239 125.351 57.3628 125.753 59.2789 125.865C65.8913 126.254 76.8975 126.292 83.3524 124.96C83.3854 124.953 85.0746 124.512 84.5317 124.91C83.6558 125.552 82.014 126.197 80.9653 126.863C82.4748 126.413 84.5907 124.74 85.9812 124.6C87.3775 124.459 91.7621 124.271 93.0007 124.524C91.5429 123.909 86.8591 123.73 85.1141 123.715C84.0116 123.705 79.308 124.531 77.4919 124.742C73.2406 125.237 64.9151 125.303 60.5201 125.202C56.7457 125.088 53.7096 125.471 50.2217 123.695C51.0945 124.491 52.7557 124.784 53.3971 125.313C53.3631 125.6 51.329 127.965 51.0828 129.13Z" fill="#986766"/>
<path fill-rule="evenodd" clip-rule="evenodd" d="M119.681 122.806C119.866 123.325 120.247 123.857 120.256 124.413C119.899 124.61 119.36 124.537 118.956 124.66C118.886 124.986 119.092 125.368 119.151 125.704C119.49 125.967 122.355 125.832 122.998 125.835C123.712 125.838 124.427 125.853 125.141 125.869C126.013 125.888 126.046 125.635 126.762 125.27C126.637 124.152 126.48 118.726 126.239 118.194C125.984 118.116 123.485 120.235 123.068 120.538C121.967 121.339 120.868 122.126 119.681 122.806Z" fill="#FEFEFE"/>
<path fill-rule="evenodd" clip-rule="evenodd" d="M44.4541 130.085L66.618 131.172C68.0644 130.563 69.7081 130.628 71.2695 130.589C72.959 130.547 74.6527 130.513 76.3411 130.441C78.0176 130.37 79.764 130.348 81.4455 130.325C82.5873 130.308 85.4298 130.337 86.3954 130.051C82.9036 129.859 79.3982 129.718 75.9033 129.544C74.1766 129.458 72.4522 129.367 70.7269 129.255C68.8205 129.131 67.4605 129.205 65.573 129.338C60.2997 129.707 55.0096 129.916 49.7237 129.944C48.052 129.952 46.0629 129.792 44.4541 130.085Z" fill="#FDDD8A"/>
<path fill-rule="evenodd" clip-rule="evenodd" d="M81.0249 46.3064C82.3892 45.6876 85.5107 46.9597 87.5253 45.9475C88.233 45.592 87.7534 45.1099 87.4538 44.5609C86.3059 42.4573 85.1445 40.2704 84.1254 38.1073C83.5569 38.0565 82.1528 38.0393 81.868 38.6821C81.856 38.7091 81.9673 41.0804 81.9369 41.4715C81.8714 42.3141 81.7276 43.2177 81.4722 44.0252C81.2574 44.7043 80.6176 45.6245 81.0249 46.3064Z" fill="#DC908D"/>
<path fill-rule="evenodd" clip-rule="evenodd" d="M60.9546 45.3921C60.756 45.4262 59.7195 44.7388 59.4871 44.5845C58.8723 44.1761 58.6201 44.0132 58.1891 43.4028C57.1925 41.9913 57.8565 40.5525 59.6159 40.7372C60.3345 40.8127 60.8102 41.164 61.1301 41.7956C61.7153 42.9517 61.3155 42.743 60.5903 42.7611C59.732 42.7824 59.4863 43.6076 59.9309 44.2187C60.1457 44.514 61.0725 45.001 60.9546 45.3921ZM55.7664 43.9161L55.9715 44.3901L56.0099 44.2474C57.0137 47.1208 58.9941 47.5677 61.8424 47.5179C62.3722 45.6481 63.127 40.434 60.9622 39.4172C59.7113 38.8298 58.1978 39.2952 57.2337 40.1974C55.914 41.4325 56.2176 42.4309 55.7664 43.9161Z" fill="#FDDBCC"/>
<path fill-rule="evenodd" clip-rule="evenodd" d="M105.03 45.3558C105.24 46.6491 105.009 47.0219 106.437 46.8098L120.209 44.7923C123.414 44.3231 124.596 44.5832 123.591 42.6399L105.03 45.3558Z" fill="#CDD6DE"/>
<path fill-rule="evenodd" clip-rule="evenodd" d="M134.075 95.7054C134.787 95.966 134.158 96.2508 133.81 96.672C133.51 97.034 133.196 97.4467 132.951 97.8476C132.534 98.5316 131.922 99.8737 130.957 99.8618C130.447 99.8555 130.058 99.3995 129.855 98.9798C129.63 98.5162 130.32 98.4359 130.713 98.1658C131.076 97.917 132.549 96.4632 132.354 96.1047C132.014 95.8143 129.146 96.2291 127.374 95.4455C127.888 97.0741 127.81 98.9346 128.17 100.555C128.344 101.338 129.565 100.841 130.223 100.713C132.295 100.309 131.629 100.852 132.117 101.129L132.372 100.713C132.906 101.446 131.829 101.18 133.968 101.913C135.208 102.338 134.929 101.636 134.984 100.517C135.057 99.0664 135.307 96.262 135.116 94.9564C134.79 95.5661 134.769 95.7183 134.075 95.7054Z" fill="#667385"/>
<path fill-rule="evenodd" clip-rule="evenodd" d="M50.2217 123.695C53.7096 125.471 56.7458 125.088 60.5201 125.202L60.1816 125.019C60.3529 124.56 61.2386 123.236 61.6933 123.159C62.5501 123.013 64.0367 123.23 65.0385 123.105L61.5296 123.074C59.2763 123.155 56.1942 122.727 54.0056 122.151C52.953 121.874 51.8918 121.513 50.8881 121.096C49.8567 120.667 49.047 120.149 48.0874 119.707C48.3928 120.407 48.779 121.052 49.0765 121.785C49.4069 122.598 49.4043 123.218 50.2217 123.695Z" fill="#DC908D"/>
<path fill-rule="evenodd" clip-rule="evenodd" d="M34.7445 10.6865C32.4812 12.4755 28.7677 16.2991 27.5027 17.2189C26.9635 17.6111 25.8606 17.8621 25.1838 18.1308C24.099 18.5615 23.3052 18.4192 22.1734 18.3679C19.7812 18.2594 17.7455 17.9618 21.2884 19.2497C22.0697 19.5338 23.0286 19.8355 23.7693 20.1743C24.5474 20.5301 25.1547 21.3025 25.9011 21.5033C26.7225 21.7242 27.6786 21.4543 28.1448 20.7244C28.5923 20.0236 28.5443 19.0332 29.125 18.2389C30.2277 16.7304 34.4099 12.0286 34.7445 10.6865Z" fill="#0F2947"/>
<path fill-rule="evenodd" clip-rule="evenodd" d="M65.469 132.415C65.8858 131.821 66.0614 131.634 66.6181 131.172L44.4543 130.085C43.9247 130.406 42.7601 131.293 44.1198 131.385C45.1274 131.453 46.1429 131.493 47.1519 131.54C53.2272 131.824 59.4171 132.198 65.469 132.415Z" fill="#DDAD5B"/>
<path fill-rule="evenodd" clip-rule="evenodd" d="M81.7485 34.5165C78.3719 35.2843 74.7061 35.1505 72.3082 36.3478C71.4728 36.7649 70.4245 37.1634 71.7029 37.766C73.7904 38.75 75.8991 37.9149 78.0991 37.6668C78.9047 37.5759 80.8008 37.6137 81.3948 37.2158C82.182 36.6886 82.2863 35.2044 81.7485 34.5165Z" fill="#4E3951"/>
<path fill-rule="evenodd" clip-rule="evenodd" d="M85.1156 50.9068C83.6753 52.4583 82.8591 53.3828 80.8884 54.3308C80.4538 54.5398 80.0272 54.6413 79.8617 55.1463C79.7173 55.5875 79.7765 56.2458 80.318 56.3868C81.7139 56.7506 83.8255 54.2624 86.1175 54.8891C86.8243 55.0825 88.2659 56.1713 88.459 54.8925C88.5161 54.5152 88.3712 53.7714 88.193 53.4326C87.9425 52.9561 87.5022 52.888 87.0786 52.6131C86.3224 52.1222 85.8435 51.4278 85.1156 50.9068Z" fill="#FDDBCC"/>
<path fill-rule="evenodd" clip-rule="evenodd" d="M125.205 109.509L125.738 109.497L124.985 94.3407C124.637 94.3189 124.394 94.2578 124.08 94.4209C123.841 94.6478 123.831 109.1 124.056 109.312C124.329 109.459 124.838 109.444 125.205 109.509Z" fill="#B1BECB"/>
<path fill-rule="evenodd" clip-rule="evenodd" d="M107.302 71.7091C107.457 72.3038 109.419 72.1294 109.918 72.1286C110.522 72.1277 112.408 72.376 112.583 71.6867C112.673 71.3325 112.655 66.0494 112.555 65.7664C112.402 65.3318 111.865 65.3119 111.465 65.36C110.884 65.43 110.958 65.8498 110.964 66.3161C110.976 67.2865 111.031 68.3971 110.984 69.3533C110.9 71.0719 107.933 69.6909 107.398 70.4011C107.263 70.5807 107.247 71.497 107.302 71.7091Z" fill="#CDD6DE"/>
<path fill-rule="evenodd" clip-rule="evenodd" d="M125.958 52.7992C126.51 51.8833 126.358 51.7838 126.356 50.7389C126.35 47.8964 126.051 47.7214 128.045 47.7239L139.845 47.7209C142.652 47.7194 142.864 47.4093 142.866 49.4755C142.867 51.0188 142.876 52.5646 142.865 54.1075L142.847 61.0997C142.847 61.946 142.809 62.3381 141.847 62.4246L141.898 62.8346C142.352 62.9507 142.88 62.8855 143.335 62.876L143.323 48.6334C143.322 47.9029 143.561 47.2748 142.698 47.2612L141.487 47.2584L125.978 47.2497L125.958 52.7992Z" fill="#2A364B"/>
<path fill-rule="evenodd" clip-rule="evenodd" d="M87.0261 43.0125C87.1929 43.5137 87.5785 44.2169 87.8321 44.7028C88.3644 45.7229 88.4399 45.4533 87.8398 46.2491L88.2316 48.7752C88.3597 48.9395 88.9146 49.3318 89.1783 49.6055C89.285 49.7163 90.075 50.4892 90.1189 50.5097C90.6637 47.8074 90.1733 44.1743 88.8699 41.714C88.2593 41.607 87.3813 42.5764 87.0261 43.0125Z" fill="#DC908D"/>
<path fill-rule="evenodd" clip-rule="evenodd" d="M79.3706 68.2605L79.1333 70.6669C80.6645 70.3748 81.8571 70.3239 83.4387 69.8724C84.253 69.6401 86.3866 68.8514 87.0037 68.3614L86.4817 68.0852C83.9966 68.1471 84.3164 67.8625 82.7586 67.4772C82.2471 67.3507 81.6747 67.7531 81.1929 67.9377C80.396 68.243 79.9141 68.0472 79.3706 68.2605Z" fill="#23456D"/>
<path fill-rule="evenodd" clip-rule="evenodd" d="M110.303 113.528C110.357 112.866 111.024 112.752 111.631 112.481C112.191 112.232 112.761 111.963 113.313 111.694C114 111.358 116.192 110.396 116.592 109.918L109.635 109.608C109.654 109.943 110.252 113.448 110.303 113.528Z" fill="#DFE9F1"/>
<path fill-rule="evenodd" clip-rule="evenodd" d="M84.1254 38.1073C85.1445 40.2703 86.3059 42.4573 87.4538 44.5609C87.7535 45.1099 88.2331 45.592 87.5253 45.9475C85.5107 46.9597 82.3893 45.6876 81.0249 46.3064C81.6552 47.8246 82.6613 47.4031 83.4196 48.0062C84.2901 47.8254 84.8241 47.7505 85.7056 47.9593C85.9683 47.6138 86.4842 47.4143 86.8409 47.1304C87.2297 46.821 87.497 46.5363 87.8397 46.2491C88.4398 45.4533 88.3643 45.7229 87.832 44.7028C87.5784 44.2169 87.1928 43.5137 87.026 43.0125C86.4839 42.1301 85.7878 40.8662 85.3097 39.9435C85.0789 39.4979 83.9459 36.8547 83.7795 36.7411C83.6403 36.9964 84.0334 37.8011 84.1254 38.1073Z" fill="#B87D7B"/>
<path fill-rule="evenodd" clip-rule="evenodd" d="M89.062 38.8778C89.379 38.3599 89.6925 38.1346 89.5887 37.4403C89.4906 36.7848 89.0126 36.6138 88.8474 36.2454C88.1338 35.7951 86.0014 34.4583 85.2011 34.658C84.8891 34.9493 84.6489 35.8902 84.5943 36.3196C84.336 38.3504 85.992 37.0055 87.8679 37.6865C88.7516 38.0073 88.6296 38.2406 89.062 38.8778Z" fill="#4E3951"/>
<path fill-rule="evenodd" clip-rule="evenodd" d="M127.374 95.4455C129.146 96.2291 132.014 95.8144 132.354 96.1047C132.549 96.4632 131.076 97.9171 130.713 98.1658C130.32 98.4359 129.63 98.5163 129.855 98.9798C130.058 99.3996 130.447 99.8555 130.957 99.8618C131.922 99.8737 132.534 98.5317 132.951 97.8476C133.196 97.4468 133.51 97.0341 133.81 96.672C134.158 96.2508 134.787 95.966 134.074 95.7054C132.998 95.6957 131.86 95.6055 130.781 95.545C130.02 95.5024 128.134 95.572 127.59 95.1619L127.374 95.4455Z" fill="#545D6A"/>
<path fill-rule="evenodd" clip-rule="evenodd" d="M71.0601 111.742C71.4625 111.809 72.2127 111.951 72.588 111.899C74.2453 110.88 76.0397 109.372 77.5234 108.102C77.6924 107.958 82.4768 103.903 81.1382 104.461C80.471 104.739 77.0944 107.484 76.193 108.139C74.5459 109.337 72.5905 110.479 71.0601 111.742Z" fill="#23456D"/>
<path fill-rule="evenodd" clip-rule="evenodd" d="M124.985 94.3406C125.48 94.2751 126.404 94.1819 126.849 94.386L129.213 94.3774C129.702 94.3546 130.472 94.5407 130.886 94.3515C131.014 93.4994 128.957 92.1749 128.028 92.1024C126.471 91.981 125.436 92.9621 124.985 94.3406Z" fill="#667385"/>
<path fill-rule="evenodd" clip-rule="evenodd" d="M60.9548 45.3921C61.0727 45.0009 60.1459 44.5139 59.9311 44.2187C59.4864 43.6076 59.7321 42.7824 60.5904 42.7611C61.3156 42.743 61.7155 42.9517 61.1302 41.7955C60.8104 41.164 60.3346 40.8127 59.6161 40.7372C57.8567 40.5524 57.1927 41.9913 58.1892 43.4028C58.6203 44.0132 58.8724 44.176 59.4872 44.5845C59.7196 44.7387 60.7562 45.4262 60.9548 45.3921Z" fill="#DC908D"/>
<path fill-rule="evenodd" clip-rule="evenodd" d="M141.487 47.2584L142.697 47.2612C142.525 46.6453 142.617 43.9837 142.616 43.1593C142.615 42.2822 142.734 39.7728 142.583 39.0896C142.334 38.8851 141.921 38.804 141.596 38.7985C141.467 40.0148 141.567 41.7209 141.564 42.9909C141.562 43.8425 141.668 46.6296 141.487 47.2584Z" fill="#AC8A72"/>
<path fill-rule="evenodd" clip-rule="evenodd" d="M127.59 95.1619C128.134 95.572 130.02 95.5023 130.781 95.5449C131.86 95.6054 132.998 95.6956 134.074 95.7054C134.769 95.7183 134.79 95.5661 135.116 94.9564L135.256 94.5963C133.835 94.2398 130.441 94.7586 129.213 94.3774L126.849 94.386L126.725 94.4978C126.884 94.7203 127.34 95.2243 127.59 95.1619Z" fill="#B1BECB"/>
<path fill-rule="evenodd" clip-rule="evenodd" d="M136.567 64.4398C136.311 64.1244 125.156 64.2691 123.342 64.2669C122.189 64.2656 120.21 63.9567 119.286 64.6348C122.33 64.8569 129.045 64.6739 132.748 64.6781C132.987 64.6784 136.873 64.8177 136.567 64.4398Z" fill="#4C8B91"/>
<path fill-rule="evenodd" clip-rule="evenodd" d="M109.479 24.5349C109.517 25.5868 109.478 25.3894 111.828 25.6972C112.466 25.7807 114.416 26.1545 114.906 26.0245C115.198 25.7129 116.078 23.5493 116.043 23.1522L115.389 22.626C114.945 23.1961 114.552 24.573 114.086 25.0783L109.479 24.5349Z" fill="#EAD5B1"/>
<path fill-rule="evenodd" clip-rule="evenodd" d="M84.7168 110.114L88.1983 108.506C88.0773 107.45 87.2228 106.019 86.8937 104.97C86.5771 105.439 86.0518 106.963 85.8039 107.577C85.4734 108.395 85.0048 109.335 84.7168 110.114Z" fill="#DFE9F1"/>
<path fill-rule="evenodd" clip-rule="evenodd" d="M116.508 125.846L117.404 125.836C116.277 124.186 115.448 123.275 113.697 122.222C112.583 121.552 109.73 120.196 108.493 120.085C107.616 120.007 110.08 121.02 110.114 121.036C112.715 122.286 114.848 123.475 116.508 125.846Z" fill="#986766"/>
<path fill-rule="evenodd" clip-rule="evenodd" d="M55.9717 44.3901C56.0679 46.2858 57.5571 47.9246 59.2432 48.6374C59.9102 48.8546 60.6166 48.9283 61.2993 48.7373C61.557 48.4701 61.7255 47.8798 61.8427 47.5178C58.9943 47.5677 57.0139 47.1207 56.0102 44.2473L55.9717 44.3901Z" fill="#DC908D"/>
<path fill-rule="evenodd" clip-rule="evenodd" d="M74.5586 40.2155C74.7992 40.5612 75.657 40.6109 76.0464 40.7258C76.7055 40.9204 76.493 41.4375 77.5471 41.2579C78.119 41.1604 78.5324 40.9052 78.8568 40.4388C79.1978 39.9484 79.851 39.8344 79.8758 39.5269C78.5723 39.6138 77.3813 40.1311 75.8799 40.202C75.6317 40.2138 74.6962 40.1462 74.5586 40.2155Z" fill="#3C2728"/>
<path fill-rule="evenodd" clip-rule="evenodd" d="M107.531 115.394C107.943 115.811 109.565 116.339 110.177 116.443C110.302 115.679 110.356 115.111 110.305 114.328L107.531 115.394Z" fill="#DC908D"/>
<path fill-rule="evenodd" clip-rule="evenodd" d="M88.473 40.2083C88.7812 40.0627 89.2438 39.8538 89.3597 39.5254L88.7695 39.5858C88.4905 39.7386 85.9343 38.6933 85.2502 39.4524C85.4606 39.7588 85.7187 39.6027 86.0337 39.7274C86.5378 39.927 86.4837 40.8535 88.473 40.2083Z" fill="#211B22"/>
<path fill-rule="evenodd" clip-rule="evenodd" d="M85.7058 47.9593C86.5081 47.8776 87.5392 48.5829 88.2317 48.7752L87.8399 46.2491C87.4972 46.5362 87.2299 46.821 86.8411 47.1304C86.4844 47.4143 85.9685 47.6138 85.7058 47.9593Z" fill="#FDDBCC"/>
<path fill-rule="evenodd" clip-rule="evenodd" d="M29.4726 130.341L28.3037 128.089L27.6523 130.395L29.4726 130.341Z" fill="#23456D"/>
<path fill-rule="evenodd" clip-rule="evenodd" d="M40.8521 18.6339C40.1253 18.8561 40.4432 20.0055 41.243 19.7375C41.8475 19.5349 41.7033 18.3736 40.8521 18.6339Z" fill="#5297A9"/>
<path fill-rule="evenodd" clip-rule="evenodd" d="M26.2939 4.99336C25.666 5.36538 26.1281 6.36257 26.8567 5.99692C27.5168 5.66558 26.968 4.59399 26.2939 4.99336Z" fill="#3890A0"/>
<path fill-rule="evenodd" clip-rule="evenodd" d="M11.7729 18.6314C11.0792 18.8295 11.366 19.9922 12.1642 19.7322C12.7819 19.5311 12.5127 18.42 11.7729 18.6314Z" fill="#5297A9"/>
<path fill-rule="evenodd" clip-rule="evenodd" d="M25.9002 34.4217C26.0249 35.0577 27.2021 34.9047 27.0089 34.1008C26.8605 33.4839 25.7274 33.5406 25.9002 34.4217Z" fill="#4C8B91"/>
</g>
<defs>
<clipPath id="clip0_431_1672">
<rect width="159" height="141" fill="white"/>
</clipPath>
</defs>
</svg>
