<svg width="159" height="141" viewBox="0 0 159 141" fill="none" xmlns="http://www.w3.org/2000/svg">
<path d="M36.2224 35.2712C8.28478 35.2712 -17.745 76.9104 15.8808 102.952C51.2839 130.37 44.3867 130.719 56.1742 137.489C62.678 142.642 81.8873 140.3 91.7374 138.046C113.463 133.074 106.544 135.261 125.033 130.719C140.826 126.84 127.22 142.128 149.537 113.336C152.198 109.903 167.162 25.0678 139.176 9.6472C108.594 -7.20339 85.7617 35.2712 36.2224 35.2712Z" fill="#EDF8FF"/>
<path d="M62.762 140.173C54.3188 139.258 56.2171 133.876 56.4609 130.735L61.1015 128.704L82.1678 126.937C84.9961 127.379 91.2386 127.228 91.9546 131.277C92.9139 136.702 96.8358 137.945 82.1678 140.173C75.2106 141.23 73.34 141.32 62.762 140.173Z" fill="#315679"/>
<path fill-rule="evenodd" clip-rule="evenodd" d="M25.4083 19.2876C27.6474 18.466 28.7628 22.1035 26.5412 22.8396C24.3381 23.5696 22.923 20.1994 25.4083 19.2876ZM35.4174 16.2611C37.7129 15.4576 38.8219 19.1006 36.4904 19.8471C34.3075 20.5463 32.8982 17.1431 35.4174 16.2611ZM45.3316 13.8083C47.3423 13.3878 47.7713 16.4667 45.9313 16.8442C43.9023 17.2602 43.2643 14.2405 45.3316 13.8083ZM46.3477 39.8515C49.1456 41.093 52.9947 42.0319 56.1423 41.6467C55.568 41.1229 53.9793 40.6606 52.118 38.8183C51.0869 37.7978 49.7976 36.155 49.2028 34.7996C48.9716 34.4307 48.5056 33.504 48.4838 33.1001L51.2408 30.9285C51.831 30.1027 54.249 28.5194 55.8763 25.3659C56.1254 24.883 56.7368 23.2491 56.9579 23.0252C58.1707 17.3456 57.1364 13.4578 53.6558 8.91313C47.2798 0.58821 36.1783 -0.876982 28.1856 5.94006C26.7976 7.12397 24.7528 6.17626 20.7735 7.69421C16.3868 9.36753 12.8169 13.2158 12.6224 18.1184C12.4148 23.3538 15.105 23.2471 13.6455 25.1293C10.527 29.1511 13.4532 35.2374 17.3607 37.6675C23.8616 41.711 33.3465 39.4976 40.1977 37.3375C41.803 36.8313 42.0931 37.5436 43.2991 38.3118C44.209 38.8912 45.3579 39.4195 46.3477 39.8515Z" fill="#76B1D6"/>
<path fill-rule="evenodd" clip-rule="evenodd" d="M67.8772 74.4153C64.851 75.0138 57.8476 77.0484 55.2076 78.5696C52.1028 80.358 50.3392 84.3666 49.7927 87.8429C50.1842 88.3334 53.4546 90.5424 54.1777 90.9956C54.8003 91.3858 57.5315 93.5075 57.6501 93.6383L57.4285 93.8773C56.4796 94.5054 59.1053 107.422 57.1826 113.322C61.646 114.721 65.1531 115.953 69.9695 114.857C79.7454 112.633 84.2873 102.282 86.7838 93.4235C87.0314 92.545 88.2121 93.0057 88.6881 93.7013C90.3761 93.7937 98.2385 91.232 99.4242 90.1855C98.9792 89.7121 96.3681 82.6252 93.4716 79.8567C91.4356 77.9107 88.2329 76.6341 85.504 75.7825C84.9228 75.6013 80.7916 74.756 80.7035 74.2603C79.7217 75.4983 80.2259 75.1319 78.5037 76.386C76.811 77.6186 76.1406 77.3196 74.0596 77.2349C71.6177 76.4836 69.605 76.9254 67.8772 74.4153Z" fill="#456C91"/>
<path fill-rule="evenodd" clip-rule="evenodd" d="M148.638 69.4699C147.953 71.4216 145.114 70.4094 145.76 68.4568C146.387 66.5608 149.325 67.5143 148.638 69.4699ZM137.676 67.2623C137.357 65.102 140.327 64.8077 140.663 66.6512C141.055 68.7953 137.956 69.1602 137.676 67.2623ZM131.312 64.1632C132.96 63.4549 133.761 65.9993 132.262 66.5663C130.723 67.1482 129.671 64.8686 131.312 64.1632ZM120.636 66.9954C120.498 70.3266 121.29 72.1367 123.22 74.703C123.827 75.5103 125.078 76.6184 125.891 77.2171C126.844 77.9197 128.332 78.6206 129.073 79.2184C129.08 80.1437 127.764 82.2562 127.156 83.045C126.218 84.2619 125.246 84.8254 123.975 85.6739C125.957 85.7626 127.968 85.293 129.786 84.5561C131.802 83.739 132.49 83.0027 134.124 81.8145C134.786 81.1059 136.327 81.6658 137.259 81.7988C137.751 81.8691 140.503 82.1272 140.645 82.1974L140.743 82.1495C143.776 82.5666 148.392 82.3202 151.239 81.2922C153.843 80.351 156.013 78.5434 156.922 75.8403C157.417 74.3671 157.558 72.5902 156.921 71.1388C155.935 68.8952 154.37 70.1237 155.711 68.1569C159.422 62.7107 154.918 56.0841 149.366 54.6545C147.66 54.2152 146.04 54.149 144.296 54.3642C141.224 54.7428 142.865 54.9347 139.897 54.061C136.808 53.1514 133.417 53.1687 130.398 54.351C125.312 56.3426 121.226 61.5013 120.636 66.9954Z" fill="#76B1D6"/>
<path fill-rule="evenodd" clip-rule="evenodd" d="M15.5737 116.258C16.0382 116.086 26.9435 116.22 28.4209 116.22C28.4539 116.22 43.0763 115.627 39.3913 117.375C38.7853 117.663 20.4444 117.378 16.7388 117.474C15.4723 117.507 14.2231 116.759 15.5737 116.258ZM15.4415 114.004C15.8917 113.749 22.8579 113.889 23.9539 113.887C24.1077 113.887 33.6063 113.519 30.8754 115.026C30.446 115.263 23.413 115.161 22.3297 115.164C22.1857 115.164 12.7762 115.513 15.4415 114.004ZM39.4339 115.062C38.98 115.197 34.3709 115.228 33.9595 115.064C33.4827 114.874 33.458 114.133 33.9462 113.947C34.2919 113.816 37.0674 113.888 37.6589 113.889C38.2341 113.889 40.8107 113.764 39.4339 115.062ZM34.7149 111.531C34.9511 111.531 41.65 111.322 39.4119 112.671C38.9089 112.975 28.1165 112.778 26.5936 112.779C26.2594 112.779 12.4609 113.402 15.4711 111.657C15.8957 111.411 32.0072 111.525 34.7149 111.531ZM15.5587 109.264C15.941 109.125 32.1764 109.213 34.918 109.217C35.9974 109.218 37.0973 109.239 38.174 109.214C39.0987 109.193 40.8185 109.73 39.4047 110.404C38.8139 110.686 20.4331 110.41 16.7408 110.497C15.4634 110.527 14.1509 109.776 15.5587 109.264ZM13.9877 103.361C8.47087 103.862 9.84272 110.798 9.82572 114.722C9.80318 119.923 9.01082 124.378 15.7222 124.4C20.6967 124.415 26.1582 124.578 31.0805 124.365C34.1577 124.232 34.2333 125.083 35.8564 127.383C38.342 130.904 35.7598 124.892 37.7593 124.396C39.67 123.922 42.0092 124.952 43.8719 122.818C44.8425 121.705 44.8469 119.747 44.8847 118.3C44.9731 114.931 45.8133 106.963 43.4391 104.59C41.409 102.56 32.409 103.327 29.3344 103.324C24.7147 103.32 18.4074 102.959 13.9877 103.361Z" fill="#B7DDF4"/>
<path fill-rule="evenodd" clip-rule="evenodd" d="M40.1342 70.1271C40.9805 71.6116 42.5926 73.5033 40.5161 74.9234C40.4546 76.5844 40.827 77.076 39.2329 77.8643C39.0952 78.4856 39.2666 78.97 38.6557 79.4241C37.938 79.9575 38.3761 80.0066 38.0029 80.8805C37.4589 82.1549 36.196 81.9607 35.0813 81.6992C33.6535 81.364 30.1413 79.9532 29.9692 78.4268C31.0766 78.8268 36.989 82.003 36.4433 78.798C36.3103 78.5436 32.4002 76.8301 31.6668 76.5306C30.7815 76.1693 30.8949 75.4769 31.4721 75.4807C31.6611 75.482 36.8889 78.1408 37.8766 78.312C38.6728 73.9726 30.9342 74.6431 32.1337 72.8287C32.8266 72.7401 35.1646 73.8757 35.8564 74.2526C36.4257 74.5629 37.037 74.7915 37.5867 75.1224C38.0136 75.3797 38.6605 76.1299 39.0446 76.1673C39.4706 75.5211 39.1832 74.4245 38.8549 73.729C38.2946 72.5407 38.3879 72.7849 37.2026 72.2293C35.1019 71.2445 33.0808 71.4968 33.3351 70.3037C34.0567 70.0417 36.2551 71.0972 37.0361 71.4422C38.2717 71.9877 39.1604 72.4673 40.0398 73.4601C40.1875 70.8977 38.6754 69.2121 38.8728 69.257C38.3625 68.7889 34.3009 67.8797 33.3876 67.8448C31.9972 67.7916 31.7898 68.2135 31.6432 69.501C31.5078 70.6924 30.9509 70.8007 30.6756 71.942C30.327 73.3866 30.1509 73.1526 29.4786 74.2787C28.7048 75.5749 29.4419 75.9366 29.2957 77.1085C28.9865 79.5824 29.6922 80.1943 31.8947 81.1736C34.175 82.1871 33.5604 80.8926 34.4315 85.5913C35.0025 88.6712 37.5849 100.478 38.7316 101.987C38.7851 102.003 41.3852 107.531 43.4517 108.543C47.9327 110.738 52.39 101.517 51.8278 96.0017C51.689 94.6397 50.5259 93.1644 49.9542 91.9283C49.6842 91.344 47.4871 89.4363 47.4435 89.098L44.7624 92.799C45.8603 94.8552 46.6487 98.454 45.1298 100.536C45.661 98.9516 45.5006 96.563 44.6247 95.104C42.6113 91.7508 40.8383 91.3788 37.6927 82.4646L39.1932 81.5006L39.385 81.894C39.315 81.0606 40.8009 80.2468 41.3837 79.6515C46.4455 74.4829 42.28 74.0667 44.4753 66.4957C44.856 65.1832 44.4896 63.8635 42.9338 64.6301C40.7398 65.711 40.7639 69.5112 40.1342 70.1271Z" fill="#FDDBCC"/>
<path fill-rule="evenodd" clip-rule="evenodd" d="M110.778 92.3809L111.872 93.827C109.77 95.7173 108.39 97.4597 106.618 98.4288C103.56 100.101 102.324 100.901 102.018 105.211C101.35 101.981 102.56 101.192 103.893 98.9688C102.675 97.4621 101.386 92.6097 101.021 92.2401C97.0642 96.4037 96.1045 100.431 97.5634 106.07C100.353 116.851 106.871 109.03 107.598 108.723C109.149 107.276 115.082 95.1283 115.311 94.9967C116.895 94.774 119.451 95.27 120.454 93.5047C120.836 92.8343 120.847 91.8271 121.185 90.9158C121.543 89.9475 121.14 89.149 120.867 88.2513C120.587 87.3304 120.853 86.6038 120.457 85.3236C120.17 84.3976 120.923 83.2695 120.085 82.5721C119.008 81.6747 115.695 81.8855 114.267 81.7738C113.297 82.423 111.62 83.9635 112.057 85.4126C114.416 84.8831 113.668 84.6108 117.669 84.1488C118.752 84.0238 119.204 84.673 118.556 84.9718C118.131 85.1677 115.238 84.8736 114.198 85.2196C113.321 85.5115 112.228 87.0879 112.428 88.0915C112.501 88.1133 120.309 85.9736 119.344 87.6224C118.954 88.2894 112.89 87.1717 112.993 90.4538C113.929 90.476 119.35 89.7306 119.59 89.8577C120.004 90.0761 119.837 90.6217 119.189 90.6881C118.616 90.7472 118.031 90.7828 117.448 90.8552C116.764 90.9405 114.726 91.0488 114.27 91.3974C113.387 94.1736 118.603 93.2462 120.025 92.9661C119.647 94.0246 111.497 96.7478 112.286 91.4844C111.534 90.6176 111.627 90.7132 111.95 89.5925C111.671 89.104 111.295 89.2354 111.194 88.3333C111.125 87.7174 111.396 87.2129 111.501 86.623C110.848 85.5863 110.25 85.6259 111.103 84.0383C111.805 82.7319 112.279 82.8344 113.067 82.1027C112.44 81.5881 113.289 77.5663 111.4 76.1848C110.325 75.3989 109.438 75.9968 109.4 77.3282C109.365 78.541 109.649 79.5857 109.54 80.8513C109.344 83.1318 108.011 84.9895 108.432 87.088C108.764 88.7443 110.706 91.8172 110.778 92.3809Z" fill="#FDDBCC"/>
<path fill-rule="evenodd" clip-rule="evenodd" d="M69.3502 68.8818L69.2881 72.3911C70.947 73.337 73.6397 73.9903 75.5646 73.6418C78.2214 73.1608 77.9491 72.3219 79.5801 70.8218L79.6128 67.8533C77.9036 68.5548 77.6012 69.3546 75.2259 69.7933C73.1068 70.1848 71.2219 69.5352 69.3502 68.8818Z" fill="#DC908D"/>
<path fill-rule="evenodd" clip-rule="evenodd" d="M76.3574 55.8462C75.5607 54.3507 78.4893 53.1039 79.5442 54.4985C79.6246 54.605 79.8399 55.0254 79.8958 55.1649C80.0569 55.5666 80.0768 55.652 79.9092 55.9418C79.1765 55.7128 79.5746 54.4676 78.1764 54.3395C76.6599 54.2005 77.0717 55.5851 76.3574 55.8462ZM68.0397 47.8639C68.0867 49.6151 65.5992 55.9154 67.7168 60.5809C68.4119 60.0933 68.5366 59.7806 70.0882 59.2202C71.6751 58.6473 72.3142 58.821 73.7789 58.9198C75.367 59.0268 76.1086 59.1398 77.8034 59.7536C79.2502 60.2777 79.4207 60.0942 80.1739 61.2272C81.465 59.6529 82.3225 53.1804 82.6024 50.7568L82.0857 45.9981C79.9647 45.2462 69.4215 46.5464 68.0397 47.8639Z" fill="#FDDBCC"/>
<path fill-rule="evenodd" clip-rule="evenodd" d="M81.3873 56.8904C79.5331 57.2142 78.1135 56.6712 77.6243 57.0288C77.135 57.3864 76.2559 59.6676 78.363 60.4661C79.5116 60.9014 80.9285 63.7492 81.2368 58.8863C81.2676 58.4032 81.5984 57.982 81.5984 56.8483C81.4928 56.8483 81.4723 56.8756 81.3873 56.8904Z" fill="#DC908D"/>
<path fill-rule="evenodd" clip-rule="evenodd" d="M65.8932 56.1951C67.3578 56.6271 67.3803 55.6124 69.7402 56.0924C70.1331 56.1723 71.0246 58.9723 68.9175 59.7708C67.7689 60.2061 66.352 63.0539 66.0437 58.191C66.013 57.708 65.6821 57.2867 65.6821 56.1531C65.7877 56.1531 65.8105 56.1707 65.8932 56.1951Z" fill="#DC908D"/>
<path fill-rule="evenodd" clip-rule="evenodd" d="M66.0826 55.9211L65.9352 55.7365C65.0327 55.9454 64.6443 56.8475 64.5011 57.7988C64.3192 59.0097 64.9335 60.0874 65.7635 60.8667C65.8101 59.8532 66.1017 56.2478 66.0826 55.9211Z" fill="#FDDBCC"/>
<path fill-rule="evenodd" clip-rule="evenodd" d="M69.8775 59.8732L70.1849 59.9974C70.4225 59.4481 72.8621 60.1648 73.5874 60.2084C74.3728 60.2559 76.9051 60.122 77.4001 60.4332C77.6858 60.5726 77.7142 60.612 77.6028 60.939C77.3994 62.0394 76.9125 63.0588 76.1021 63.7586C75.7278 64.0818 75.2114 64.1206 74.7938 63.8571C74.3679 63.5884 73.907 63.3402 73.2812 63.2865C72.5605 63.2248 72.2641 63.4979 71.9996 63.7073C71.7562 63.9005 71.4775 63.9778 71.1707 63.9371C70.8638 63.8965 70.6144 63.7493 70.428 63.4992C70.2283 63.2311 70.0681 62.9262 69.9352 62.6061C69.7043 62.05 69.2819 60.1721 69.8775 59.8732ZM67.0016 45.5852C66.4576 45.8538 65.5 49.3065 65.2976 51.9353C65.3115 53.0443 65.2876 54.3711 65.7899 56.1632C66.0589 58.4104 65.4051 61.2004 65.5036 63.663C66.2305 66.1344 67.6997 67.3222 69.6925 69.6196C70.3591 69.8059 71.4884 70.2159 72.7344 70.3297C73.9629 70.4419 75.3059 70.2611 76.3565 70.0586C78.7316 69.6199 77.9037 68.5548 79.6129 67.8533C79.8272 67.4956 81.0852 66.8569 81.5656 66.1562C82.2121 65.2134 82.7166 64.6602 82.8505 63.5063L82.8173 55.532L82.8404 55.018C82.7405 53.7483 83.0348 48.7884 82.3432 47.9638L82.1194 49.2449C82.0593 49.7661 81.6095 51.526 81.6973 52.4413C82.012 55.7204 81.1875 59.9914 80.174 61.2271C79.4208 60.0941 79.1603 59.8826 77.7135 59.3585C76.0187 58.7447 75.3671 59.0267 73.779 58.9197C72.3143 58.8209 71.4349 58.3131 69.8481 58.886C68.2964 59.4464 68.412 60.0932 67.7169 60.5808C65.5993 55.9153 68.0868 49.615 68.0398 47.8638C68.0641 47.2907 67.2864 45.4201 67.0016 45.5852Z" fill="#334160"/>
<path fill-rule="evenodd" clip-rule="evenodd" d="M69.6153 39.7695C65.9226 41.2148 64.3692 42.627 64.3894 45.6137C64.4052 47.9629 66.7279 49.8052 68.1322 50.2687C68.0213 48.238 70.4624 47.4163 70.8045 47.3512C71.0122 47.9258 71.4389 49.7239 71.8019 50.0087C72.3713 48.4488 74.138 47.3832 74.6812 46.9275C74.7139 47.6633 73.711 48.2602 74.9289 49.2996C76.734 48.107 80.8169 49.4581 81.8023 48.7424C82.7356 49.3673 82.6584 55.4269 82.3181 55.9696L82.2949 56.4836L84.203 56.8526C85.1443 55.2869 86.9483 50.3613 87.0416 48.5084C87.1738 47.0686 86.7124 46.2525 86.2277 45.6137L85.5141 45.1466C85.527 44.3219 86.3648 43.5046 83.6463 42.4567C82.8003 42.1306 82.3525 40.6218 80.6023 39.419C80.2413 39.1709 79.7858 39.1813 79.4362 39.4455C79.0866 39.7098 78.9475 40.1491 79.0803 40.5698C79.0993 40.6304 79.0967 40.6488 79.0712 40.6162C78.6026 40.0116 77.6922 39.6315 77.1233 39.3096C76.5129 38.9646 74.7224 38.6509 73.5033 38.3283C73.3911 38.2986 73.2775 38.3428 73.2139 38.4412C73.1504 38.5396 73.3926 39.0331 73.4646 39.125C74.151 40.0013 75.2415 40.1039 75.2922 40.3447C73.5937 39.9154 71.2738 39.1203 69.6153 39.7695Z" fill="#334160"/>
<path fill-rule="evenodd" clip-rule="evenodd" d="M90.9912 96.8045C92.1515 100.405 95.1185 107.426 97.2027 110.483C98.367 112.191 100.665 115.134 103.03 114.015C104.477 113.33 106.829 110.161 107.598 108.723C106.871 109.03 100.353 116.851 97.5634 106.07C96.1045 100.431 97.0643 96.4038 101.021 92.2401L100.772 91.3204L90.9912 96.8045Z" fill="#DC908D"/>
<path fill-rule="evenodd" clip-rule="evenodd" d="M47.4435 89.0978C47.4871 89.4363 48.7964 91.6435 49.0666 92.2277C49.6382 93.4639 49.9729 94.6397 50.1119 96.0017C50.674 101.517 47.4593 109.481 42.9783 107.286C40.9119 106.274 38.7851 102.003 38.7314 101.987C38.7428 103.092 40.962 107.98 41.7516 108.936C43.8118 111.43 46.2548 109.895 48.1179 108.016C50.4592 105.654 54.5242 99.4807 56.274 96.4659L47.8685 88.0448L47.4435 89.0978Z" fill="#DC908D"/>
<path fill-rule="evenodd" clip-rule="evenodd" d="M40.134 70.127L38.8727 69.2569C38.6751 69.212 40.1872 70.8977 40.0396 73.4602C39.1603 72.4673 38.2715 71.9877 37.0359 71.4422C36.2549 71.0972 34.0565 70.0417 33.3348 70.3038C33.0806 71.4968 35.1016 71.2443 37.2024 72.2292C38.3877 72.7849 38.2945 72.5408 38.8548 73.729C39.1829 74.4245 39.4703 75.5212 39.0445 76.1672C38.6603 76.1298 38.0135 75.3797 37.5866 75.1224C37.0368 74.7915 36.4257 74.5629 35.8562 74.2526C35.1644 73.8757 32.8263 72.7401 32.1336 72.8287C30.934 74.6431 38.6727 73.9724 37.8765 78.312C36.8887 78.1406 31.661 75.482 31.4719 75.4808C30.8946 75.4769 30.7812 76.1692 31.6666 76.5306C32.4 76.8299 36.3102 78.5436 36.4432 78.7978C36.9888 82.0029 31.0766 78.8269 29.969 78.4268C30.1412 79.9532 33.6534 81.3639 35.0811 81.6991C36.1958 81.9607 37.4587 82.155 38.0029 80.8806C38.376 80.0066 37.9379 79.9576 38.6557 79.4241C39.2665 78.97 39.0949 78.4856 39.2328 77.8643C40.8268 77.0761 40.4543 76.5844 40.516 74.9234C42.5925 73.5032 40.9803 71.6116 40.134 70.127Z" fill="#DC908D"/>
<path fill-rule="evenodd" clip-rule="evenodd" d="M113.067 82.1027C112.279 82.8344 111.805 82.732 111.103 84.0383C110.25 85.626 110.848 85.5863 111.501 86.6231C111.396 87.2129 111.125 87.7174 111.194 88.3333C111.295 89.2354 111.671 89.1041 111.95 89.5925C111.627 90.7132 111.534 90.6177 112.286 91.4845C111.497 96.7478 119.647 94.0246 120.026 92.9661C118.603 93.2462 113.387 94.1736 114.27 91.3974C114.726 91.0488 116.764 90.9405 117.448 90.8553C118.031 90.7828 118.616 90.7472 119.189 90.6882C119.837 90.6217 120.004 90.0762 119.59 89.8577C119.35 89.7307 113.929 90.476 112.993 90.4539C112.89 87.1717 118.954 88.2894 119.344 87.6224C120.309 85.9737 112.501 88.1133 112.429 88.0916C112.228 87.0879 113.321 85.5115 114.198 85.2196C115.238 84.8736 118.131 85.1677 118.556 84.9719C119.204 84.673 118.752 84.0239 117.67 84.1489C113.668 84.6109 114.416 84.8831 112.057 85.4126C111.62 83.9635 113.298 82.4231 114.267 81.7738L113.067 82.1027Z" fill="#DC908D"/>
<path fill-rule="evenodd" clip-rule="evenodd" d="M44.7623 92.7989C42.5571 88.8797 39.8091 87.1466 39.3849 81.894L39.1932 81.5003L37.6926 82.4645C39.7419 90.0231 42.6112 91.7507 44.6246 95.1039C45.5005 96.5629 45.6609 98.9515 45.1297 100.536C46.6486 98.4539 45.8603 94.8553 44.7623 92.7989Z" fill="#DC908D"/>
<path fill-rule="evenodd" clip-rule="evenodd" d="M47.8684 88.0449L55.6924 96.7015L56.2735 97.1137L57.9653 94.439L58.4087 93.9611C58.2901 93.8303 54.8003 91.3858 54.1776 90.9956C53.4546 90.5424 50.1842 88.3334 49.7927 87.8429L48.34 86.842L47.8684 88.0449Z" fill="#23456D"/>
<path fill-rule="evenodd" clip-rule="evenodd" d="M80.5564 74.4477C80.6445 74.9435 85.0575 75.9422 85.6387 76.1234C88.3677 76.975 91.4356 77.9106 93.4716 79.8566C96.3681 82.6251 98.9792 89.7121 99.4242 90.1854L100.319 89.8188C99.8101 89.1268 98.36 85.2293 97.7572 84.0264C96.9728 82.4612 95.7396 80.1218 94.468 78.9568C91.2189 75.9794 84.5782 75.0887 80.7861 73.636L80.5564 74.4477Z" fill="#456C91"/>
<path fill-rule="evenodd" clip-rule="evenodd" d="M48.3398 86.8419L49.7926 87.8428C50.3391 84.3665 52.1027 80.358 55.2074 78.5695C57.8475 77.0484 64.9151 75.2383 67.9413 74.6398L67.8215 73.7719C63.9091 74.3972 58.0609 75.7532 54.6119 77.7641C50.8304 79.9687 50.0104 82.962 48.3398 86.8419Z" fill="#456C91"/>
<path fill-rule="evenodd" clip-rule="evenodd" d="M103.893 98.9688C102.56 101.192 101.35 101.981 102.018 105.211C102.324 100.901 103.285 100.641 106.344 98.9688C107.988 98.0697 110.778 95.5817 111.872 93.8271L110.778 92.381C109.677 94.0954 109.248 94.8092 107.721 96.101C107.07 96.6517 104.532 98.618 103.893 98.9688Z" fill="#DC908D"/>
<path fill-rule="evenodd" clip-rule="evenodd" d="M82.8036 61.0671C84.174 60.9103 83.9933 60.4464 84.52 59.2471C85.5479 56.9061 84.6913 56.4 84.52 56.2562C84.3487 56.1123 83.8691 55.9933 83.4973 56.0761C83.1255 56.1589 82.7996 56.4743 82.7996 56.4743L82.8036 61.0671Z" fill="#FDDBCC"/>
<path fill-rule="evenodd" clip-rule="evenodd" d="M69.3266 72.3289C69.3184 72.6793 68.9449 72.9771 68.5715 73.156L67.75 73.8306C68.3686 77.4383 71.2859 77.8891 74.3884 78.0084C77.1247 78.1137 80.6171 76.8594 81.0944 73.7729C80.5701 73.5338 80.4757 73.553 80.0264 72.9457L79.5802 70.8218C77.9493 72.3218 78.0918 72.8719 75.4351 73.353C73.5101 73.7016 70.9856 73.2749 69.3266 72.3289Z" fill="#FDDBCC"/>
<path fill-rule="evenodd" clip-rule="evenodd" d="M56.585 130.106L56.5852 132.269L56.6939 136.343C57.0599 135.454 63.206 127.765 63.7196 127.758L64.2394 127.068L62.3782 126.763C62.2009 127.264 57.3683 129.876 56.585 130.106Z" fill="#1F3953"/>
<path fill-rule="evenodd" clip-rule="evenodd" d="M85.9221 127.061L92.0108 131.42C91.8181 130.271 91.8636 129.406 91.4332 127.971L90.6125 125.42L85.9221 127.061Z" fill="#1F3953"/>
<path fill-rule="evenodd" clip-rule="evenodd" d="M84.2803 133.95C86.1989 133.95 92.4217 135.148 93.188 135.577L92.5028 133.408L91.9186 130.761L84.6915 131.51L80.3062 134.357C80.3062 134.357 82.3618 133.95 84.2803 133.95Z" fill="#1F3953"/>
<path fill-rule="evenodd" clip-rule="evenodd" d="M56.5532 130.669C56.6006 129.749 56.6479 128.879 57.0205 127.239L57.6447 125.096L62.3783 126.763C62.2008 127.264 57.3366 130.439 56.5532 130.669Z" fill="#1F3953"/>
<path fill-rule="evenodd" clip-rule="evenodd" d="M77.6026 60.939C77.5051 60.6459 77.6768 60.7159 77.4317 60.8183C77.2544 61.4844 76.8372 62.2427 76.2 62.4547C76.0601 62.9215 74.6462 63.3747 74.355 62.9605C73.6155 63.0248 71.7848 63.1245 71.2693 62.6355C70.0293 62.4148 69.864 60.9171 69.8774 59.8732C69.2818 60.1722 69.7042 62.0501 69.9351 62.6062C70.068 62.9262 70.2281 63.2312 70.4279 63.4993C70.6142 63.7494 70.8637 63.8965 71.1705 63.9372C71.4774 63.9778 71.7561 63.9005 71.9995 63.7074C72.264 63.498 72.5604 63.2248 73.281 63.2866C73.9069 63.3403 74.3678 63.5884 74.7936 63.8571C75.2111 64.1207 75.7276 64.0818 76.102 63.7586C76.9124 63.0589 77.3993 62.0395 77.6026 60.939Z" fill="#FDDBCC"/>
<path fill-rule="evenodd" clip-rule="evenodd" d="M70.1848 59.9974C70.4412 61.354 72.4377 61.4353 73.5795 61.47C74.8878 61.5095 76.211 60.9015 77.4 60.4332C76.9051 60.122 74.3727 60.2559 73.5873 60.2084C72.8619 60.1648 70.4225 59.448 70.1848 59.9974Z" fill="#FCFCFB"/>
<path fill-rule="evenodd" clip-rule="evenodd" d="M71.2694 62.6355C72.0514 61.5489 75.1996 61.6778 76.1898 62.4495L76.2001 62.4547C76.8372 62.2427 77.2545 61.4844 77.4318 60.8183C77.6769 60.7159 77.5051 60.646 77.6027 60.9391C77.7141 60.612 77.6857 60.5727 77.4 60.4332C76.211 60.9015 74.8878 61.5095 73.5795 61.47C72.4377 61.4353 70.4412 61.354 70.1848 59.9974L69.8774 59.8734C69.8639 60.9171 70.0294 62.4148 71.2694 62.6355Z" fill="#712D28"/>
<path fill-rule="evenodd" clip-rule="evenodd" d="M80.244 53.0521C80.7254 52.6538 80.6436 52.3017 80.452 51.7631C79.9487 51.5711 78.8365 51.5521 78.2382 51.4903C77.5417 51.4184 76.6026 50.3617 76.4563 51.2508C76.2821 52.308 77.3248 52.8425 78.0211 52.903C78.5256 52.9464 79.8568 53.1956 80.244 53.0521Z" fill="#4E3951"/>
<path fill-rule="evenodd" clip-rule="evenodd" d="M69.1243 52.0027C69.4153 52.2354 72.2544 52.0231 72.5584 51.8329C72.8545 51.5842 73.121 50.84 72.8117 50.5002C72.5756 50.2409 71.516 50.6869 71.1243 50.7058C70.165 50.7519 68.5905 50.3342 69.1243 52.0027Z" fill="#4E3951"/>
<path fill-rule="evenodd" clip-rule="evenodd" d="M73.5589 53.0143C73.4026 53.3707 74.5399 52.3755 74.5399 53.9223C74.5399 54.2199 74.2338 55.6656 74.1329 56.1684C73.9544 57.058 75.2354 57.4846 74.5502 58.1625C74.4034 58.2686 72.794 58.4313 72.4082 58.0722C71.7647 57.4731 72.4172 57.2866 72.6605 56.4624C72.7291 56.2296 73.0662 55.2734 73.2387 54.7007C73.2561 54.6431 73.7634 52.5475 73.5589 53.0143Z" fill="#DC908D"/>
<path fill-rule="evenodd" clip-rule="evenodd" d="M74.6156 58.1822C73.5157 58.1814 73.4293 58.3128 72.3755 57.9156C72.0277 56.9573 73.0937 56.3268 73.2566 55.3037C73.4589 54.4071 73.99 52.6642 73.6776 52.2009C73.4055 52.4582 73.56 53.2586 73.222 54.4789C73.0596 55.0652 72.8376 55.5633 72.5821 56.0823C72.3311 56.5921 71.8633 57.2158 71.8997 57.7919C71.9479 58.5529 74.1645 58.5109 74.6156 58.1822Z" fill="#B87D7B"/>
<path fill-rule="evenodd" clip-rule="evenodd" d="M71.2693 62.6354C71.7846 63.1244 73.6154 63.0248 74.3551 62.9605L76.1897 62.4495C75.1995 61.6778 72.0513 61.5489 71.2693 62.6354Z" fill="#EF6982"/>
<path fill-rule="evenodd" clip-rule="evenodd" d="M57.1827 113.322L56.5452 128.262C56.2655 130.619 57.4578 131.242 57.902 131.491L58.9738 132.093L64.0198 133.42C65.4664 133.646 65.9064 133.732 67.6053 134.013C68.4169 134.147 69.6981 134.405 70.2426 134.491C70.2551 134.492 70.9686 134.429 71.3793 134.469C72.9991 134.626 75.0476 134.538 76.008 134.65L77.1683 134.62L77.3822 134.663C78.3621 134.402 80.1063 134.394 81.3247 134.15C81.8622 134.042 82.6609 133.667 83.0764 134.032C83.4818 134.389 83.7592 135.136 84.2538 135.208L83.0183 133.841L83.9437 133.661L90.0897 131.345L91.4399 130.786C91.9302 130.583 91.9171 130.051 92.0127 129.524C92.0774 129.165 92.1086 127.999 92.0156 127.578C91.006 122.998 89.8412 99.9844 88.8291 95.2208L89.8703 97.2725L90.9911 96.8045L100.772 91.3204L100.319 89.8188L99.4242 90.1854C98.2385 91.2319 90.3761 93.7936 88.6881 93.7012L86.886 82.5831C86.3154 84.1158 87.2815 91.6575 86.7838 93.4235C84.9597 99.8966 82.0433 107.167 76.7906 111.481C74.8549 113.07 72.602 114.258 69.9696 114.857C65.1531 115.953 61.646 114.721 57.1827 113.322Z" fill="#23456D"/>
<path fill-rule="evenodd" clip-rule="evenodd" d="M76.3573 55.8462C77.0717 55.585 76.6598 54.2004 78.1763 54.3395C79.5744 54.4676 79.1765 55.7127 79.909 55.9418C80.0768 55.652 80.0568 55.5666 79.8957 55.1647C79.8397 55.0254 79.6245 54.6048 79.5442 54.4985C78.4892 53.1037 75.5605 54.3507 76.3573 55.8462Z" fill="#3A373B"/>
<path fill-rule="evenodd" clip-rule="evenodd" d="M68.3759 55.0423C69.1305 55.1238 68.7104 54.7368 69.177 54.1577C69.5952 53.6384 70.7918 53.367 71.3665 54.3801C71.7007 54.9693 71.3956 55.305 72.0274 55.3179C72.1053 52.3229 68.2042 52.9236 68.3759 55.0423Z" fill="#3A373B"/>
<path fill-rule="evenodd" clip-rule="evenodd" d="M74.3552 62.9603C74.6463 63.3744 76.0602 62.9214 76.2001 62.4547L76.1898 62.4495L74.3552 62.9603Z" fill="#F4E9E7"/>
<path fill-rule="evenodd" clip-rule="evenodd" d="M120.68 125.987L119.204 132.312C119.669 132.474 120.14 133.355 120.86 133.756C121.61 134.175 122.62 134.393 123.457 134.589C124.521 134.839 127.977 135.952 128.48 134.528C128.388 134.335 128.492 134.093 128.314 133.848C127.895 133.273 126.201 133.338 126.17 133.039C126.479 132.871 129.205 134.038 129.715 132.869C130.375 131.36 127.253 131.393 126.944 131.092C127.024 130.927 127.345 131.08 127.509 131.119C128.415 131.336 130.702 131.986 131.039 130.76C131.498 129.091 127.828 129.14 127.561 128.816C127.635 128.674 127.738 128.752 127.928 128.801C128.649 128.983 129.817 129.155 130.509 128.988C131.69 128.702 131.319 127.669 130.496 127.209C128.737 126.227 124.714 125.935 124.477 125.748C124.859 125.645 125.767 125.969 126.21 125.941C126.413 125.388 126.705 123.661 126.68 123.062C126.628 121.804 126.068 121.188 126.071 120.911C125.91 120.658 125.368 120.593 125.103 120.797C124.502 121.259 124.878 122.886 123.853 124.084C123.402 124.613 121.365 126.28 120.68 125.987Z" fill="#72B7E1"/>
<path fill-rule="evenodd" clip-rule="evenodd" d="M119.343 126.163C119.535 126.027 119.749 126.109 119.978 126.166L119.928 126.449C119.698 126.491 119.346 126.449 119.343 126.163ZM118.578 126.14C118.601 125.957 118.653 125.944 118.834 125.989C118.999 126.03 119.013 126.044 119.007 126.189C118.843 126.308 118.723 126.266 118.578 126.14ZM117.896 125.943C118.008 125.788 118.231 125.844 118.406 125.928L118.351 126.08C118.176 126.142 117.994 126.094 117.896 125.943ZM119.077 132.444L120.609 125.887C120.399 125.589 117.867 125.03 117.374 125.369C116.922 125.679 116.464 127.81 116.291 128.425C116.146 128.942 115.312 131.261 115.612 131.599C116.037 132.079 118.871 132.125 118.923 132.564L119.077 132.444Z" fill="#71B5DE"/>
<path fill-rule="evenodd" clip-rule="evenodd" d="M106.483 57.6422C107.019 57.3552 108.592 55.3064 109.128 55.6549C109.793 56.0877 108.848 56.6937 108.486 57.0284C108.079 57.405 107.582 57.8084 107.208 58.2025C106.576 58.8679 106.424 58.818 105.844 58.1558C105.491 57.7521 105.064 57.2336 104.731 56.8093C104.28 56.2326 104.703 55.4688 105.394 56.3509C105.555 56.5568 106.347 57.5468 106.483 57.6422ZM106.061 52.7027C100.35 53.8126 101.944 62.5429 107.832 61.4086C113.57 60.303 111.819 51.5839 106.061 52.7027Z" fill="#74B9DE"/>
<path d="M99.2834 17.3381C99.4359 16.9082 99.6385 16.6256 99.8912 16.4905C100.16 16.3611 100.486 16.3626 100.867 16.4949L105.964 18.2641C109.643 19.5413 110.961 21.6516 109.917 24.595C109.624 25.4217 109.091 26.1097 108.32 26.659C107.57 27.1974 106.726 27.4245 105.788 27.3403L105.744 27.4643C106.928 28.1165 107.694 28.9211 108.043 29.8781C108.399 30.8186 108.395 31.8014 108.031 32.8266C107.321 34.8274 106.177 35.9809 104.598 36.287C103.041 36.5824 101.459 36.451 99.8511 35.8929L94.63 34.0806C94.2488 33.9483 93.994 33.7484 93.8654 33.4809C93.7535 33.2192 93.7738 32.8734 93.9262 32.4434L99.2834 17.3381ZM99.6726 24.7439L102.532 25.7363C103.062 25.9204 103.622 25.9942 104.212 25.9576C104.825 25.9102 105.393 25.6988 105.917 25.3236C106.447 24.9318 106.853 24.3391 107.134 23.5453C107.515 22.4705 107.415 21.5722 106.833 20.8503C106.258 20.1118 105.514 19.5844 104.602 19.268L101.942 18.3445L99.6726 24.7439ZM96.6377 33.3011L99.9692 34.4575C100.947 34.7969 101.934 34.8236 102.929 34.5376C103.929 34.235 104.664 33.4223 105.134 32.0994C105.427 31.2726 105.46 30.5228 105.233 29.8498C105.007 29.1768 104.619 28.6153 104.072 28.1651C103.53 27.6985 102.936 27.353 102.289 27.1286L99.2064 26.0584L96.6377 33.3011ZM114.248 27.101C113.883 26.9745 113.645 26.7803 113.533 26.5186C113.437 26.2626 113.466 25.9197 113.619 25.4898L114.146 24.0015C114.246 23.7204 114.352 23.5253 114.466 23.416C114.595 23.3125 114.803 23.2266 115.088 23.1583C116.132 22.8895 117.085 22.7746 117.946 22.8135C118.824 22.8581 119.727 23.0416 120.655 23.3637C122.296 23.9333 123.356 24.775 123.836 25.8887C124.339 26.9917 124.364 28.1798 123.913 29.453C123.344 31.057 122.082 32.5688 120.126 33.9886C118.193 35.3976 115.17 36.8367 111.056 38.3058L117.545 40.5583L118.09 39.0205C118.295 38.4417 118.55 38.0657 118.853 37.8925C119.173 37.725 119.549 37.716 119.98 37.8656C120.344 37.9922 120.574 38.1835 120.67 38.4394C120.782 38.7011 120.761 39.047 120.609 39.4769L119.747 41.9076C119.647 42.1887 119.449 42.3523 119.154 42.3983C118.864 42.4277 118.471 42.3561 117.974 42.1835L109.148 39.1199C108.949 39.0508 108.815 38.93 108.746 38.7575C108.693 38.5907 108.702 38.4081 108.772 38.2096C108.895 37.8624 109.119 37.6244 109.444 37.4958L109.907 37.2941C113.718 35.6272 116.419 34.0759 118.007 32.6403C119.602 31.1882 120.59 29.9247 120.971 28.8499C121.305 27.9073 121.389 27.0169 121.221 26.1786C121.075 25.3294 120.472 24.7208 119.411 24.3526C118.615 24.0764 117.735 24.0123 116.771 24.1603L116.137 25.9462C115.926 26.5415 115.677 26.9286 115.39 27.1076C115.109 27.2701 114.728 27.2679 114.248 27.101Z" fill="#76B1D6"/>
<path d="M9.31659 56.8426C9.24533 56.5372 9.25794 56.2992 9.3544 56.1287C9.46263 55.9556 9.65199 55.8382 9.92246 55.7764L13.5386 54.9514C16.1493 54.3558 17.6986 55.1035 18.1865 57.1943C18.3235 57.7817 18.2701 58.3753 18.0261 58.9754C17.7912 59.561 17.3857 59.9999 16.8099 60.2921L16.8304 60.3802C17.7598 60.329 18.5037 60.518 19.0622 60.9474C19.6179 61.365 19.9807 61.9379 20.1506 62.6662C20.4823 64.0875 20.2466 65.1743 19.4437 65.9266C18.6497 66.6645 17.6824 67.1635 16.5417 67.4238L12.8373 68.2689C12.5668 68.3306 12.3446 68.3071 12.1706 68.1983C12.0083 68.0869 11.8916 67.8785 11.8203 67.573L9.31659 56.8426ZM12.2947 61.0067L14.3233 60.5439C14.6996 60.458 15.0522 60.2972 15.3812 60.0613C15.7191 59.811 15.9705 59.4815 16.1352 59.0727C16.2972 58.6522 16.3124 58.1601 16.1808 57.5962C16.0027 56.8327 15.6106 56.3469 15.0047 56.1387C14.396 55.9188 13.7683 55.8826 13.1215 56.0302L11.234 56.4608L12.2947 61.0067ZM13.7131 67.0855L16.0768 66.5463C16.7707 66.388 17.3532 66.0447 17.8245 65.5166C18.2931 64.9767 18.4177 64.2369 18.1984 63.2971C18.0614 62.7098 17.802 62.2617 17.4203 61.9529C17.0386 61.6441 16.6051 61.4584 16.1199 61.3959C15.6319 61.3217 15.1586 61.3369 14.7 61.4415L12.5126 61.9406L13.7131 67.0855ZM21.2917 55.2425C21.1643 55.3335 21.03 55.395 20.8889 55.4272C20.7478 55.4594 20.6237 55.4321 20.5167 55.3451C20.4097 55.2582 20.3412 55.1501 20.311 55.0209C20.2699 54.8447 20.3632 54.6873 20.591 54.5487L22.8521 53.0122C23.1422 52.8223 23.446 52.6911 23.7635 52.6187C24.0811 52.5462 24.3268 52.5644 24.5008 52.6732C24.6748 52.7819 24.7975 52.989 24.8687 53.2944L27.3601 63.9721L28.8772 63.626C29.1476 63.5642 29.3409 63.5696 29.4569 63.6422C29.5847 63.712 29.6663 63.8232 29.702 63.9759C29.7321 64.1052 29.7215 64.2189 29.6701 64.3173C29.616 64.4038 29.4831 64.4713 29.2715 64.5196L24.0148 65.7188C23.8031 65.7671 23.6538 65.7641 23.5668 65.7097C23.477 65.6436 23.4171 65.5459 23.3869 65.4167C23.3513 65.264 23.3695 65.1299 23.4417 65.0145C23.5256 64.8964 23.7028 64.8064 23.9733 64.7447L25.4903 64.3986L23.077 54.0558L21.2917 55.2425Z" fill="#B7DDF4"/>
</svg>
