<svg width="159" height="141" viewBox="0 0 159 141" fill="none" xmlns="http://www.w3.org/2000/svg">
<g clip-path="url(#clip0_431_1674)">
<path fill-rule="evenodd" clip-rule="evenodd" d="M117.68 93.4642C116.948 93.0629 113.441 95.2487 112.528 95.8665C112.166 96.1118 112.019 96.0773 112.013 96.5113C112.557 96.8408 113.006 96.3325 113.474 96.0557L116.379 94.4446C116.991 94.145 117.765 93.8868 117.68 93.4642ZM128.081 76.4453C128.437 76.6731 129.304 75.7883 129.626 75.485C130.288 74.8604 132.128 73.7205 131.499 73.3804C131.196 73.2162 130.621 73.8105 130.437 73.963L129.548 74.7433C129.069 75.2028 127.613 76.1456 128.081 76.4453ZM131.483 92.8688C129.873 92.845 128.3 92.8074 126.692 92.7873C125.881 92.7771 125.069 92.7617 124.258 92.7503C123.69 92.7422 122.326 92.635 121.915 92.6837C121.004 92.8014 120.376 92.4797 119.587 92.966C119.051 93.2967 118.848 93.8164 118.521 94.5706C118.201 95.3087 117.233 97.693 116.874 98.1686C114.086 98.4877 111.196 99.8094 109.256 101.022C108.698 101.371 108.207 101.677 107.674 102.031L104.553 104.176L103.23 105.441C103.283 105.161 104.975 103.516 104.483 101.288C104.174 99.8883 101.951 97.2646 102.013 98.5756C102.037 99.1023 104.242 102.135 103.372 103.984C103.254 102.718 103.272 102.172 102.802 101.049C102.556 100.462 101.81 98.9709 101.263 99.2432C101.129 99.3657 101.119 99.2903 101.117 99.5677L101.567 100.988L102.018 102.408C102.28 103.424 102.623 105.16 102.294 106.168C102.081 106.444 100.653 107.557 100.315 107.791C100.32 106.445 100.066 105.008 99.3214 104.233C99.6858 105.28 100.185 105.711 100.218 107.148C100.243 108.246 99.7468 108.229 99.114 108.847C98.8806 109.076 98.8277 109.159 98.5728 109.293L97.0738 105.72C96.1731 103.807 92.8438 98.3131 91.0423 97.0611C90.6915 96.8174 90.7111 96.9643 90.7052 96.965C90.6894 96.9669 90.6577 96.9803 90.6449 96.9828C89.9856 97.1152 93.4796 103.117 93.7766 103.752C94.6936 105.714 95.8118 107.784 96.4035 109.957C96.4409 110.094 96.5044 110.381 96.5498 110.474C96.6224 110.622 96.5859 110.56 96.6942 110.656L96.9024 110.803C96.4889 111.297 97.05 111.453 97.4337 111.175L98.8275 109.972C99.7214 109.189 103.253 106.126 104.041 105.745C104.458 105.543 104.922 105.641 105.57 105.393C105.992 105.231 106.324 105.16 106.728 104.998C108.994 104.094 112.491 103.069 114.865 102.74L113.753 105.15C113.51 104.989 112.731 105.155 112.432 105.182L105.57 105.96L103.831 106.368C103.49 106.499 103.464 106.493 103.449 106.823C103.95 107.13 104.711 106.733 105.754 106.686C106.319 106.661 106 106.686 106.43 106.686C106.716 106.669 107.505 106.616 108.005 106.527L113.29 106.212C113.137 106.743 112.731 107.534 112.488 108.044C112.292 108.456 111.938 109.542 111.627 109.783C110.493 109.518 100.55 109.634 99.6015 110.224C99.8071 110.812 101.191 110.421 102.35 110.424C102.604 110.821 102.409 111.029 103.777 111.634C104.775 112.076 109.311 113.706 109.93 113.71C109.553 114.463 109.242 115.256 108.881 116.021C108.696 116.413 108.575 116.749 108.399 117.193C108.345 117.329 107.894 118.232 107.847 118.299C106.964 117.768 105.942 116.996 105.001 116.406L101.857 114.788C100.745 114.241 99.6141 113.829 98.3635 113.511C97.7283 113.349 97.0719 113.211 96.4101 113.119C96.1099 113.078 94.3619 112.813 94.283 112.773C94.869 112.794 94.9317 112.751 95.1877 112.355C95.8399 111.347 95.2611 110.304 94.6225 109.478C94.1629 108.883 92.5412 107.112 91.772 106.903L90.5096 104.579C89.4433 102.618 87.9146 99.1196 87.1506 97.0948C87.2644 96.9121 87.8658 91.4635 92.5863 95.2076C93.5547 95.9758 94.2498 96.7396 95.0403 97.6821C95.4128 98.126 95.7613 98.5598 96.1299 99.0964C96.4589 99.5754 96.7878 100.195 97.1541 100.595C96.9452 99.9113 96.0194 98.6346 95.3636 96.4465C94.8443 94.7141 94.6242 93.1273 94.721 91.19C94.8898 87.8153 96.0269 84.1971 98.0433 82.6909C101.03 80.46 103.641 83.5691 105.337 85.8278C106.679 87.6159 108.729 91.3266 108.624 94.3461C108.493 94.0882 107.753 91.2544 107.208 91.7569C107.113 91.8446 107.173 92.0917 107.204 92.196C108.035 94.9314 108.246 95.7506 108.244 98.7604C108.244 99.9743 108.772 98.8443 108.484 100.018C108.389 100.408 108.592 100.599 108.87 100.236C109.328 99.6369 109.636 98.2653 109.531 97.3725C109.373 96.0292 108.772 96.4573 109.671 95.3668C109.91 95.077 110.11 94.8625 110.351 94.5451C110.69 94.0973 111.259 93.3501 111.485 92.7719C111.362 92.5669 109.804 90.6927 109.276 89.9008C107.852 87.767 106.41 85.3329 106.455 82.5517C106.481 80.9596 107.049 79.5541 107.891 78.8133L111.135 76.9547C112.698 76.3831 114.003 77.223 114.792 77.9617C116.572 79.6283 117.243 82.3502 117.497 85.5243C117.943 85.3241 119.064 83.6244 119.417 82.9968C121.509 79.2845 119.06 77.5339 122.165 75.0551L124.79 73.0838C125.702 72.4638 129.519 69.7303 130.924 70.08C132.5 69.7964 133.646 69.3709 133.896 70.4916C133.896 71.0727 133.793 70.8459 133.871 71.9714C134.147 75.9889 133.664 79.7874 130.177 82.0134C128.91 82.8221 126.935 83.7162 125.155 84.058C125.325 83.7386 125.459 83.8034 125.501 83.4668C124.252 82.3769 120.293 84.4829 119.006 85.2496C118.467 85.5703 117.357 86.1284 117.277 86.5399C118.052 87.1031 120.552 84.6917 122.319 84.3933C121.36 85.0258 119.651 85.768 118.566 86.3877C118.145 86.6281 117.394 86.8645 117.676 87.4052C118.67 87.8863 122.994 85.2579 123.927 84.7975C125.283 84.1282 129.696 83.1808 131.476 83.3138C132.575 83.3959 134.219 83.9005 134.284 84.9612C134.422 87.2252 125.36 89.1495 124.677 88.9832C124.443 88.8379 124.481 88.7813 124.237 88.6386C122.971 87.8993 120.753 88.3819 119.573 88.8825C118.671 89.2647 115.459 90.999 115.384 91.0142C115.333 88.6333 114.592 87.8958 114.679 87.1924C114.95 85.0083 112.801 82.1938 111.904 80.6524C111.45 79.8707 111.142 79.2754 110.351 79.1564C109.431 79.9763 109.933 80.3626 110.358 81.2715C110.855 82.3367 111.452 83.3791 112.021 84.3636C112.942 85.9562 113.635 87.5793 113.942 89.5301C114.194 91.1313 113.962 91.2109 113.766 91.5871C113.592 91.92 113.305 92.2036 113.592 92.4873C113.642 92.6983 114.022 92.7709 114.336 92.6983C115.07 92.6994 116.528 91.3602 118.877 90.6833C119.378 90.5391 121.078 90.0057 121.531 90.1351C123.465 90.6882 123.682 89.42 125.266 89.2771C126.807 89.1379 131.598 88.5432 132.085 90.3315C132.351 91.309 131.782 92.2359 131.483 92.8688Z" fill="#78B5AC"/>
<path fill-rule="evenodd" clip-rule="evenodd" d="M26.6243 51.5586C26.4745 51.7193 23.7973 52.8496 23.3035 53.1014C21.9398 53.7966 19.9297 54.9951 18.8259 55.9852C18.548 56.2344 18.4668 56.2649 18.1661 56.5762C17.6429 57.1175 16.9644 57.6372 16.3423 58.4312C16.1564 58.6684 15.9601 58.8601 15.7713 59.1081C15.5756 59.3652 15.4487 59.6071 15.1878 59.8044C13.4286 57.9887 10.1809 53.4065 8.90023 51.5306C7.79165 49.9069 4.18575 43.9215 4.13242 41.5805C5.08128 41.8455 7.0027 43.5063 7.7053 44.0725C8.6728 44.8523 17.1641 51.8378 17.8112 52.1545C17.6469 51.4944 17.162 48.6741 17.2419 48.0191C17.4107 46.6353 19.8523 47.7968 20.6109 48.0825C22.7951 48.905 25.1033 50.2754 26.6243 51.5586Z" fill="#46867D"/>
<path fill-rule="evenodd" clip-rule="evenodd" d="M148.601 66.3667C137.626 66.3999 101.294 66.5402 93.8934 66.0816L84.9165 20.9749C83.0502 19.5264 81.9214 18.6538 79.4848 17.4632C71.9983 13.8046 64.1499 14.1147 57.1729 18.5651C56.4025 19.0565 55.843 19.5264 55.164 20.0678L53.2993 21.7971L50.9129 24.6707C50.6441 25.033 50.4144 25.4201 50.1548 25.7475C49.835 25.598 48.7707 24.2659 48.4556 23.9125C46.7297 21.9776 45.382 21.9087 44.2465 19.4274C43.4594 17.7073 42.5731 16.0964 41.9364 14.6505C41.1833 12.9406 41.0969 11.8376 41.3973 9.68002C41.8862 6.16766 45.8646 3.27397 48.909 2.17509C52.4326 0.903181 56.7137 0.717595 60.894 0.520136C67.9587 0.186359 78.1144 -0.448916 84.9165 1.29819C89.7687 2.54448 95.6502 3.86673 100.133 6.07569L131.478 21.8291C160.856 30.5538 148.609 61.5687 148.601 66.3667Z" fill="#EDF8FF"/>
<path fill-rule="evenodd" clip-rule="evenodd" d="M20.2152 29.7692C20.2184 30.1322 21.1304 30.5896 21.6461 30.9365C23.8924 32.447 26.9138 35.442 28.7001 37.4178L30.7091 39.4164C31.7191 40.3999 31.7961 39.613 31.0585 38.9865C30.2203 38.2745 27.2469 35.1239 26.372 34.2372C25.5004 33.3537 24.5657 32.4679 23.5389 31.639C23.0014 31.2051 22.5798 30.8691 22.0153 30.4887C21.4508 30.1084 20.6163 29.4488 20.2152 29.7692ZM39.3789 22.3194C39.5476 21.9443 39.1006 20.8582 38.954 20.3713C37.8046 16.5543 36.6403 18.9391 35.4715 15.2211C35.3328 14.7797 35.1086 13.3912 34.5863 13.7132C34.263 13.9126 34.8558 15.2373 34.9717 15.6344L38.4692 20.7673C38.772 21.793 38.766 22.4016 39.3789 22.3194ZM47.2712 25.9521C46.8877 27.0358 45.8465 29.2589 45.2803 30.7374L43.4216 35.5991C43.3101 35.9865 43.1682 36.6064 42.8972 36.8696L41.4057 30.6566C41.1623 29.6114 40.897 28.5612 40.6386 27.5064L40.075 25.155C39.9611 24.6928 40.0015 24.602 39.5658 24.6859C39.4331 25.0671 40.7152 30.6449 40.9001 31.4897C41.083 32.3244 42.2677 37.9411 42.428 38.2679C41.8243 40.3676 40.5964 42.5143 39.2245 44.1074C39.0753 44.2807 38.9473 44.355 38.7939 44.5072C38.394 44.904 37.6035 45.8173 37.0405 46.1176L32.8456 40.9547C32.0866 40.0472 31.7062 40.5375 32.3931 41.3217L34.1933 43.5273C35.1501 44.7377 35.5965 45.2887 36.7123 46.3348C36.3704 46.7342 35.4745 47.2868 34.9626 47.6124C34.3135 48.0251 33.6529 48.378 33.0423 48.7796C32.801 48.0852 29.0846 44.0319 28.367 43.2313L25.2119 39.791C25.0377 39.6195 24.9449 39.4783 24.784 39.296L19.2168 32.6779C18.5729 31.7662 16.4511 29.1341 16.2792 28.1931C15.711 25.0836 19.2443 26.4371 20.8429 26.9957C23.263 27.8413 25.6314 29.1141 27.357 30.7711C28.7437 32.1026 30.2036 33.6148 31.3925 35.1655C31.6724 35.5306 31.9066 35.8826 32.1791 36.2164C33.127 37.3776 35.7848 40.3246 37.6168 40.1704C39.7384 39.9918 37.7702 35.8997 37.3301 34.8539C34.3568 27.789 31.0839 26.9673 30.6541 17.6073C30.6541 16.6146 30.2244 15.6218 30.2244 14.4873C30.2244 13.4463 30.2844 12.582 29.8071 11.1071C29.5464 10.3016 29.3604 9.2329 29.3369 8.34512C29.3011 6.98921 29.5244 6.41145 30.6695 6.44197C31.7724 6.47122 32.4006 6.87212 33.0717 7.37637C35.6906 9.3439 37.6317 11.3734 39.6406 13.92C43.1061 18.3133 45.4035 17.6327 46.7025 23.251C46.7884 23.6231 47.1882 25.8273 47.2712 25.9521Z" fill="#46867D"/>
<path fill-rule="evenodd" clip-rule="evenodd" d="M65.2564 91.5819L65.4177 92.5727L65.8089 96.3469L66.0213 100.966L65.9702 104.788L65.6625 109.139L65.2346 112.918L64.7435 116.218C65.069 116.224 65.1107 116.169 65.3028 116.358C64.7701 116.305 64.4837 116.176 64.1304 115.902C64.3319 115.522 64.2039 115.554 64.0922 115.315C63.9469 115.003 64.0115 114.904 63.9429 114.526C63.5976 112.624 60.5339 108.856 59.1977 106.016C56.9146 101.164 57.1117 98.864 55.7635 94.3768C54.0836 88.7857 50.7503 83.954 45.7575 81.6072C44.2059 80.878 40.3549 80.1895 39.5289 81.0383C39.5986 81.8501 40.4454 81.1475 42.4298 81.3948C45.0591 81.7223 47.9852 83.3018 49.6325 85.1613C49.8101 85.3617 49.8936 85.4079 50.1147 85.599C50.2877 85.7485 50.3888 85.8904 50.55 86.0828L51.3856 87.0849C56.3157 93.5405 55.4145 99.4135 58.2511 105.549C59.952 109.228 60.6367 109.663 62.2729 112.452C62.7258 113.224 63.2088 113.905 63.3711 114.999C62.4136 114.948 61.9556 115.102 61.2148 115.48C59.9966 116.103 57.5306 118.61 57.5694 119.44L57.7804 119.606C58.2061 119.557 58.6493 118.661 58.9032 118.342C59.8115 117.203 61.5489 115.347 63.3192 115.649C63.2847 116.652 62.3422 117.979 61.9486 118.774C61.1946 120.296 61.3643 121.446 59.8461 123.429C59.2429 124.216 58.3851 125.102 57.6616 125.755C57.1179 126.247 56.5717 126.651 56.8755 126.934C57.1721 127.17 57.3352 126.853 57.564 126.658C58.5609 125.81 59.546 124.856 60.337 123.833C61.9377 121.764 61.7267 120.839 62.4777 119.227C62.9357 118.243 63.5982 117.373 63.9222 116.222C64.2271 117.019 64.3181 119.442 64.1934 120.345C63.871 122.68 62.4124 124.312 60.6786 125.665C59.4899 126.593 58.6947 126.962 58.0314 127.459C57.6691 127.73 57.6202 128.482 58.7707 127.764C61.0441 126.346 63.2042 124.832 64.3358 122.309C65.0289 120.764 64.7989 120.212 64.9564 118.507C65.114 119.862 65.5264 121.298 67.0063 120.213C68.7125 118.962 68.7258 118.561 70.3892 120.205C70.8823 120.692 71.2446 121.249 72.2674 121.667C74.2633 122.482 73.836 120.328 73.7332 119.049C75.4884 119.273 76.9966 119.267 78.7695 119.151C84.8838 118.771 88.1531 119.977 92.4043 123.592C92.9315 124.04 94.1372 126.982 94.0746 127.847C90.7841 129.092 87.1332 130.169 83.5331 131.007C76.4541 132.654 66.5214 133.79 59.1725 134.164C55.0055 134.376 50.5606 134.279 46.8391 132.964C43.9234 131.933 42.5037 130.8 40.6179 128.904C40.4636 128.749 39.9695 128.17 39.8388 127.925C39.6938 127.654 39.6031 126.932 39.5302 126.561C38.0353 118.935 36.1639 111.734 34.559 104.232C33.9876 101.561 33.298 98.3243 32.9697 95.5779C32.8483 94.5626 32.8913 93.437 32.7698 92.4537C32.9805 91.2118 39.3312 80.1449 40.0884 79.7517C40.8185 79.6257 40.4761 79.7657 40.8654 79.1198L41.9879 77.4101C42.4589 76.7788 42.5299 76.7178 43.0241 76.2824C43.349 75.9962 43.4184 75.4665 44.2625 75.5833C45.0552 75.6932 45.8939 75.8797 46.6266 76.0874C49.5846 76.9253 52.108 78.5288 54.0936 80.0006C55.219 80.8347 57.5746 82.7988 58.7565 83.9411L64.0207 90.0299C64.2925 90.3943 64.9581 91.3807 65.2564 91.5819Z" fill="#FDA955"/>
<path fill-rule="evenodd" clip-rule="evenodd" d="M131.568 92.6491C133.293 92.5986 135.253 92.715 137.012 92.7409L153.299 93.0182C159.948 93.1422 159.788 92.5696 157.785 97.155L150.995 112.37C150.383 113.704 140.964 135.022 140.815 135.126C140.358 135.278 139.472 135.045 139.059 135.283C132.666 135.477 126.102 135.781 119.718 136.16C116.51 136.35 113.257 136.458 110.045 136.63C108.447 136.716 101.519 137.13 100.476 137.051C101.01 137.016 101.472 136.625 101.705 136.284L103.681 132.009C104.568 130.126 105.376 128.205 106.257 126.33C108.02 122.578 109.649 118.745 111.429 114.999C112.343 113.077 113.184 111.209 114.055 109.291L119.212 97.9422C119.653 96.9876 120.055 96.0493 120.519 95.0832C121.008 94.0669 121.208 92.9677 122.175 92.5812L122.001 92.464C122.412 92.4153 123.775 92.5226 124.343 92.5306C125.154 92.542 125.966 92.5574 126.777 92.5676C128.385 92.5877 129.959 92.6253 131.568 92.6491Z" fill="#B1BECB"/>
<path fill-rule="evenodd" clip-rule="evenodd" d="M39.5228 69.9197C39.4455 70.7358 38.4028 72.1025 38.54 74.9383C38.6029 76.2379 39.2885 78.7587 40.1045 79.3757L40.0882 79.7517C39.331 80.145 32.9803 91.2118 32.7697 92.4537C32.4149 92.8751 31.302 95.5581 30.995 96.2817C30.4312 97.61 29.8821 98.9332 29.3324 100.286C27.2955 105.301 25.0572 111.698 23.478 116.925L21.5628 123.422C21.3772 124.081 21.1815 125.072 20.9581 125.612C18.4219 125.327 15.5041 124.35 13.3847 123.458C10.9634 122.439 9.15339 121.192 7.38395 119.84C6.80656 119.398 6.5707 119.11 6.11902 118.683C5.86493 118.443 5.7305 118.309 5.49226 118.054C4.70916 117.218 4.58851 117.16 3.81582 116.143C0.348618 111.58 -1.35489 105.165 1.29452 99.7068C2.34946 97.5332 4.05931 95.9687 5.96586 94.7712C8.40598 93.2387 12.5408 91.4571 13.8353 90.5941C15.3631 89.5758 16.4524 87.8226 15.9711 85.7938C15.8209 84.4023 14.8739 82.7665 14.3319 81.6335C14.0252 80.9925 13.7252 80.3263 13.4688 79.6659C13.3169 79.2749 12.8745 77.8279 12.6675 77.6221C12.7144 76.8215 9.42711 69.3292 14.1631 61.5089C14.373 61.1624 15.1351 60.009 15.1878 59.8044C15.4486 59.6071 15.5755 59.3652 15.7712 59.1081C15.9601 58.8601 16.1564 58.6684 16.3423 58.4312C16.9644 57.6372 17.6429 57.1175 18.166 56.5762C18.4667 56.2649 18.5479 56.2344 18.8258 55.9852C19.9296 54.9951 21.9398 53.7966 23.3035 53.1014C23.7973 52.8496 26.4744 51.7193 26.6242 51.5586C27.1257 51.5382 29.3223 50.5422 29.927 50.2725C30.4837 50.0241 30.975 49.7978 31.5243 49.5268C32.0162 49.284 32.5677 48.9484 33.0421 48.7795C33.6527 48.3779 34.3134 48.025 34.9625 47.6123C35.4744 47.2868 36.3702 46.7342 36.7122 46.3347C36.9441 46.2482 36.8515 46.2776 37.0403 46.1176C37.6033 45.8173 38.3939 44.904 38.7938 44.5072C38.9472 44.355 39.0751 44.2807 39.2243 44.1073C40.5962 42.5143 41.8242 40.3676 42.4278 38.2679C42.5739 37.9644 42.876 37.2473 42.8971 36.8696C43.168 36.6064 43.31 35.9865 43.4214 35.5991C43.6214 35.8878 43.4665 36.9081 43.4363 37.3777C43.3047 39.4242 43.416 41.1949 43.3023 43.0066C43.0549 46.9521 41.8183 51.5323 39.547 54.5622C38.0279 56.5887 37.0673 56.7688 34.8813 57.5844C25.1984 61.1976 30.0308 69.1865 33.4787 70.5808C35.0458 71.2145 36.7513 70.9683 38.3332 70.3959C38.9554 70.1708 39.3707 69.8433 39.5228 69.9197Z" fill="#2A3652"/>
<path fill-rule="evenodd" clip-rule="evenodd" d="M94.0546 133.38C95.7136 132.819 96.0871 131.853 96.4674 130.181C97.0327 127.696 96.7554 126.495 97.0041 125.122C95.9289 124.808 94.6906 124.377 93.5491 124.015C94.7665 126.607 95.659 129.565 94.5707 132.36C94.4274 132.728 94.1844 133.048 94.0546 133.38ZM78.7695 119.151C78.391 118.37 78.0293 117.753 77.6783 116.809C77.3755 115.994 77.1244 115.122 76.8973 114.251C76.4243 112.437 76.167 110.569 75.8273 108.652C75.8962 108.477 75.8218 108.639 75.9069 108.497L76.4364 107.782C76.8796 107.162 77.9401 105.538 78.0571 104.898C78.2243 104.736 78.3303 104.465 78.3775 104.174C78.5894 104.462 78.57 104.845 78.6382 105.304C78.8936 107.021 79.2751 108.901 79.964 110.474C80.8812 112.57 82.5611 113.397 85.0935 112.949C85.8275 112.82 86.4569 112.585 87.139 112.395C88.1884 112.103 88.368 112.398 89.0892 112.76C89.8479 112.277 90.3464 111.837 91.4522 111.578C92.6475 111.299 94.1032 111.91 93.6746 112.372C93.2584 112.82 92.9493 111.904 91.4215 112.313C90.8545 112.465 90.0198 112.918 89.6626 113.242L89.7266 113.351C89.9111 113.639 89.6258 113.21 89.7946 113.454L90.083 113.835C90.0947 113.848 90.1134 113.869 90.1244 113.881C90.1356 113.893 90.1596 113.917 90.169 113.926L90.2643 114.016C90.7753 113.765 91.1163 113.515 91.7504 113.293L93.4166 112.993C93.2394 113.427 90.8206 114.086 90.728 114.571C90.8647 115.256 92.6815 116.466 93.5736 116.865C95.0269 117.516 96.3141 117.621 98.0705 117.548C99.7805 117.477 100.953 118.054 102.253 118.659C105.437 120.141 104.32 119.928 105.121 120.935C105.563 120.564 106.169 120.17 106.954 120.041L104.993 124.666C104.782 125.122 104.556 125.807 104.287 126.193C102.136 126.032 99.7353 125.74 97.5656 125.79C97.5714 126.607 97.5721 127.312 97.4733 128.115C97.401 128.703 97.1343 129.685 97.1343 130.171C96.9422 131.099 96.6903 131.573 96.401 132.362C96.0015 132.954 95.7062 133.723 94.3877 133.645C93.5918 133.598 93.6918 133.69 93.2364 134.133C92.7904 134.568 92.5329 134.491 92.1851 134.771C90.0465 135.261 87.9048 135.606 85.6312 135.899C83.2731 136.204 73.9541 136.296 70.7919 136.408C69.5509 136.452 68.3323 136.523 67.0942 136.601C65.9631 136.673 64.6505 136.903 63.6683 136.959C59.1786 137.773 57.6891 138.38 52.5942 137.825C49.1547 137.451 45.5169 136.623 43.1747 135.016C42.0438 134.24 42.2991 134.021 41.0769 134.048C35.1677 134.179 28.8597 134.433 23.0298 134.484C22.0732 134.493 20.9284 134.592 20.0018 134.543L24.6822 132.928C27.3696 132.038 31.0185 130.502 33.5912 129.288L36.652 127.651C37.1225 127.378 37.3143 127.277 37.1311 126.704C36.5213 126.668 36.4201 126.84 36.0248 127.09L34.0345 128.197C31.3128 129.681 27.0523 131.226 24.0573 132.353C23.0145 132.746 20.2761 133.688 19.3141 133.908C19.5403 132.496 19.8363 131.104 20.1084 129.711C20.2407 129.034 20.3786 128.334 20.5298 127.637C20.6608 127.033 20.8906 126.219 20.9582 125.612C21.1816 125.072 21.3773 124.081 21.5629 123.422L23.4781 116.925C25.0573 111.698 27.2956 105.301 29.3325 100.286C29.8822 98.9332 30.4313 97.6099 30.9951 96.2816C31.3021 95.558 32.415 92.875 32.7698 92.4536C32.8912 93.437 32.8483 94.5626 32.9696 95.5778C33.298 98.3243 33.9875 101.561 34.5589 104.232C36.1638 111.734 38.0353 118.935 39.5302 126.561C39.6031 126.932 39.6938 127.654 39.8387 127.925C39.9695 128.17 40.4636 128.749 40.6178 128.904C42.5037 130.8 43.9234 131.933 46.839 132.964C50.5605 134.279 55.0055 134.376 59.1725 134.164C66.5214 133.79 76.4541 132.654 83.533 131.006C87.1332 130.169 90.7841 129.091 94.0745 127.847C94.1372 126.982 92.9314 124.04 92.4042 123.592C88.153 119.977 84.8838 118.771 78.7695 119.151Z" fill="#E16C35"/>
<path fill-rule="evenodd" clip-rule="evenodd" d="M80.4592 53.3326C81.2346 54.499 84.5258 55.0058 83.9277 54.057C83.6838 53.67 82.6598 54.2016 81.3362 53.2787C81.1372 53.14 81.1455 53.0875 80.9817 52.9594C80.5364 52.6114 80.2151 52.9656 80.4592 53.3326ZM72.8604 44.774C73.1434 46.2722 74.2872 47.1798 75.8672 47.4782C76.7605 47.6469 77.5826 47.5345 78.2758 47.1167C80.9635 45.4967 77.4146 43.412 75.9333 42.8378C74.0978 42.1264 72.4477 42.5888 72.8604 44.774ZM84.3235 43.327C83.8775 43.2013 83.418 43.0709 83.0278 42.7977C81.9686 42.0561 81.9693 42.8414 80.0963 42.0441C79.2563 41.6864 79.3805 41.3874 78.9569 41.3169C78.7709 42.1725 80.8481 44.5404 83.9101 43.5553C83.9736 43.5349 84.039 43.5146 84.0979 43.4847C84.3252 43.3694 84.2043 43.4398 84.3235 43.327ZM65.34 38.6939C64.5398 38.7891 64.335 38.9946 64.2268 40.0361C64.217 40.1307 64.1997 40.3673 64.2102 40.4554C64.2417 40.7187 64.1686 40.3554 64.2406 40.6082C64.2855 40.7656 64.2675 40.7131 64.3359 40.8081C64.0831 41.3407 63.8044 41.7441 64.3175 42.3736C64.5514 42.6606 65.7413 43.4933 66.0636 42.4979C66.6095 40.812 67.1152 37.9401 64.5822 37.7057C64.2112 37.6714 63.1731 37.6772 62.9245 37.9926C62.7646 38.1956 62.8837 38.2689 62.9812 38.385C63.5485 38.6877 64.5409 38.0044 65.34 38.6939ZM85.47 37.7112C85.4443 37.288 84.4577 36.6634 84.0634 36.4546C81.9576 35.3397 80.2327 35.5958 78.2095 36.5776C77.93 36.7132 77.8969 36.6679 77.8522 36.9773C78.2036 37.088 81.0929 37.2341 81.7852 37.2992C82.381 37.3554 85.2113 37.8569 85.47 37.7112ZM88.3223 43.2506C88.2892 42.6662 88.3958 42.0796 88.499 41.5285L88.7321 40.3548C88.7215 39.8425 88.255 39.666 88.0284 40.5697C87.9366 40.9355 87.8514 41.2924 87.7823 41.6485C87.001 45.6784 88.885 47.2152 88.9517 48.1397C88.5039 48.3249 88.1435 48.5054 87.5681 48.6716C87.237 48.7673 85.4887 48.9847 86.3738 49.7091C86.7089 49.9833 87.2103 50.0187 87.6549 49.9651C87.9757 49.9264 88.0017 49.8301 88.2681 49.7896C88.0603 50.5394 86.613 53.5108 86.1873 54.3671C85.4277 55.8953 84.578 57.3835 83.6588 58.5111C82.6808 59.7108 81.413 60.716 79.0246 60.3857C76.5494 60.0435 75.7188 59.4421 73.8258 58.8844C73.2346 58.567 72.5617 58.3151 71.9732 57.9783C71.3481 57.6206 70.8561 57.3389 70.2773 56.9159C69.4327 56.2987 68.1247 55.1361 67.7137 54.0037C67.2205 51.6944 67.7711 51.394 68.1728 49.4075C68.5621 47.4828 67.5031 46.6876 65.7477 46.5072C64.9006 45.2197 63.933 44.3931 62.253 43.6704C56.4156 41.1591 63.8066 32.5378 67.9897 36.2249C68.6743 37.3772 68.9173 37.8692 68.7663 39.5377C68.7154 40.1 68.5852 40.3481 69.2019 40.3559C69.7316 39.8483 69.5076 38.6944 69.5371 37.8798L69.5728 37.5768C75.1915 36.8615 80.2276 35.8242 84.2509 31.9265L85.7763 30.4471C86.9649 29.1152 89.1067 26.4575 89.3689 24.9073C90.7437 26.9708 91.4422 31.1012 91.2645 33.8911C91.2309 34.4195 91.0468 36.8885 90.6678 37.0974C90.5429 37.1663 90.6378 37.1289 90.4833 37.1862C90.3897 37.2209 90.2669 37.2407 90.1602 37.2766C89.5889 37.4687 88.7847 37.9669 88.77 38.6098C89.279 38.6517 89.9836 38.326 90.507 38.2206C90.0399 40.1636 89.0701 42.1963 88.7712 43.3845L88.3223 43.2506Z" fill="#FDDBCC"/>
<path fill-rule="evenodd" clip-rule="evenodd" d="M93.2483 48.6325C93.2943 49.2112 93.1401 49.8178 93.1499 50.4273C93.2029 53.7859 96.5677 55.2507 94.1082 59.9818C93.7057 60.977 93.4619 61.5084 93.4619 61.5084L89.342 66.6306C89.1063 66.89 89.0436 66.9195 88.8274 67.1998L88.2777 67.8185C87.475 68.8447 87.1515 69.0912 86.2032 70.4163C85.2279 71.779 84.34 73.4841 84.1478 75.2771C83.8546 78.0119 85.6223 80.048 85.0859 83.4319C84.8461 84.9435 84.3545 85.7058 83.7291 86.7505C83.5199 86.5655 82.6363 84.4338 82.4908 84.1276C82.0606 83.2224 81.5943 82.3835 81.1196 81.5806C80.352 80.2822 78.6192 77.8579 77.57 77.2958C77.4033 74.2328 77.1917 72.0382 75.6083 70.0024C74.2391 68.2421 72.3897 66.8423 70.0318 66.806C69.4738 66.7973 69.6076 66.7855 69.5 66.6494C69.5872 66.564 72.1774 61.762 72.3082 61.4124C72.623 61.0769 73.2162 59.7268 73.5725 59.1646C73.7403 58.9 73.6182 59.0321 73.8258 58.8844C75.7189 59.4421 76.5495 60.0435 79.0247 60.3857C81.413 60.7159 82.6808 59.7108 83.6588 58.5111C84.5781 57.3835 85.4277 55.8953 86.1873 54.3671C86.613 53.5108 88.0603 50.5394 88.2681 49.7896L88.6866 49.2648C88.8657 48.9284 88.8031 48.9688 89.087 48.7623C90.3063 47.8756 88.9477 47.09 88.9334 46.2735C88.8982 44.2877 89.4268 44.7035 88.2697 44.1922L88.3224 43.2506L88.7713 43.3845C89.0702 42.1963 90.04 40.1636 90.507 38.2206C89.9836 38.326 89.2791 38.6517 88.7701 38.6098C88.7848 37.9669 89.589 37.4687 90.1602 37.2766C90.2669 37.2407 90.3897 37.2209 90.4833 37.1862C90.6379 37.1289 90.5429 37.1663 90.6678 37.0974C91.0468 36.8885 91.2309 34.4195 91.2645 33.8911C91.4423 31.1012 90.7437 26.9708 89.369 24.9073C89.2523 24.6518 89.2185 24.7104 89.2505 24.3687C89.5246 24.1636 89.6769 23.6228 89.4482 23.3716C90.1053 23.5144 91.7953 24.3804 92.402 24.7122C93.3819 25.2483 94.2337 25.928 94.7864 26.7506C97.4231 30.6747 94.6487 36.4514 93.5752 40.8348C93.1161 42.7098 92.5232 46.7885 93.2483 48.6325Z" fill="#2A3652"/>
<path fill-rule="evenodd" clip-rule="evenodd" d="M63.6683 136.959C63.8293 137.477 64.3702 137.984 64.9225 138.162C65.595 138.379 71.0114 138.088 71.9432 138.05L97.9867 137.172C98.7474 137.146 99.7445 137.138 100.476 137.051C101.519 137.13 108.447 136.716 110.045 136.63C113.257 136.458 116.51 136.35 119.718 136.16C126.103 135.781 132.666 135.477 139.059 135.283C139.928 135.19 142.169 135.678 142.88 136.021C144.326 136.719 143.921 138.086 142.551 138.423C141.862 138.593 139.128 138.368 138.109 138.4C131.777 138.596 123.577 139.632 116.993 140.138C111.138 140.589 105.085 140.637 99.1618 140.697C87.0706 140.821 74.9102 140.791 62.8182 140.952C49.6298 141.127 41.5516 140.1 28.7888 138.385C26.0734 138.02 23.2035 137.639 20.428 137.567C18.9494 137.528 17.3389 137.763 16.8 136.606C16.1125 135.131 18.2855 134.916 19.1689 134.604C19.2128 134.368 18.867 134.326 19.3141 133.908C20.2762 133.689 23.0145 132.746 24.0574 132.353C27.0524 131.226 31.3129 129.681 34.0346 128.198L36.0249 127.09C36.4202 126.84 36.5214 126.668 37.1312 126.704C37.3144 127.277 37.1226 127.378 36.652 127.651L33.5913 129.288C31.0185 130.502 27.3696 132.038 24.6823 132.928L20.0019 134.543C20.9284 134.592 22.0733 134.493 23.0299 134.484C28.8598 134.433 35.1677 134.179 41.0769 134.048C42.2992 134.021 42.0438 134.24 43.1747 135.016C45.517 136.623 49.1548 137.451 52.5943 137.825C57.6891 138.38 59.1787 137.773 63.6683 136.959Z" fill="#818EA0"/>
<path fill-rule="evenodd" clip-rule="evenodd" d="M83.729 86.7504C83.7192 87.0527 85.2781 91.0855 85.5286 91.7593C86.1408 93.4062 86.6839 95.2374 87.2358 96.8751C87.9998 98.9 89.5285 102.398 90.5948 104.36L91.8572 106.683L93.3705 109.504C94.3365 111.212 94.3985 111.117 94.3682 112.553C94.4471 112.593 96.1951 112.858 96.4953 112.899C97.1571 112.991 97.8135 113.13 98.4487 113.291C99.6992 113.61 100.83 114.022 101.942 114.568L105.086 116.186C106.027 116.776 107.049 117.548 107.932 118.079C107.787 118.454 107.659 118.709 107.494 119.081L107.083 119.922C106.982 120.042 107.057 119.972 106.953 120.041C106.169 120.17 105.563 120.564 105.121 120.935C104.32 119.928 105.437 120.141 102.253 118.659C100.953 118.055 99.7803 117.477 98.0704 117.548C96.3139 117.621 95.0268 117.516 93.5734 116.866C92.6814 116.466 90.8645 115.256 90.7278 114.571C90.8204 114.086 93.2392 113.427 93.4165 112.993L91.7502 113.293C91.1161 113.516 90.7751 113.765 90.2641 114.016L90.1689 113.927C90.1595 113.917 90.1355 113.893 90.1243 113.881C90.1133 113.869 90.0945 113.848 90.0828 113.835L89.7944 113.454C89.6257 113.21 89.911 113.639 89.7264 113.351L89.6625 113.242C90.0197 112.918 90.8543 112.465 91.4214 112.313C92.9491 111.904 93.2582 112.82 93.6744 112.372C94.103 111.91 92.6474 111.299 91.452 111.578C90.3462 111.837 89.8478 112.277 89.089 112.76C88.3679 112.398 88.1883 112.103 87.1389 112.395C86.4568 112.585 85.8274 112.82 85.0933 112.95C82.5609 113.397 80.8811 112.57 79.9639 110.475C79.2749 108.901 78.8934 107.021 78.6381 105.304C78.5699 104.845 78.5893 104.463 78.3773 104.174C78.8007 103.648 79.1046 101.537 79.0884 100.706C79.2681 99.3008 78.7304 97.0141 78.2077 95.9577C77.9446 95.3996 77.5864 94.5828 77.383 94.0093C77.1724 93.4161 76.8189 92.6102 76.6742 92.0279L75.1301 87.81L74.6277 86.5096C74.4652 86.2218 74.464 85.9622 74.2052 85.26C74.1191 85.0264 74.0314 84.7357 73.8794 84.4701L73.118 82.4364L73.2084 82.1641C73.5286 80.2964 72.6611 75.6181 72.175 73.8958C71.6125 71.9032 71.0755 70.4351 70.1867 68.6356C70.0506 68.3599 69.9025 68.0765 69.7654 67.8051C69.5021 67.2838 69.5268 67.2069 69.2975 67.1648C69.3191 67.0968 69.3462 66.9642 69.3719 66.8962L69.4998 66.6494C69.6075 66.7854 69.4736 66.7973 70.0317 66.806C72.3895 66.8423 74.2389 68.242 75.6082 70.0024C77.1915 72.0381 77.4032 74.2328 77.5698 77.2957C78.619 77.8579 80.3518 80.2822 81.1194 81.5806C81.5941 82.3835 82.0605 83.2224 82.4906 84.1276C82.6362 84.4338 83.5197 86.5654 83.729 86.7504Z" fill="#FDA955"/>
<path fill-rule="evenodd" clip-rule="evenodd" d="M57.8966 65.5905C58.3384 66.1948 58.6339 67.2866 58.8776 68.0615L61.1316 75.828C61.134 75.9471 61.5044 77.2794 61.5417 77.3618L63.4036 84.2053L60.7378 80.2426C60.3718 79.789 60.0241 79.274 59.5539 78.9192C59.397 78.8009 59.3414 78.7284 59.21 78.5903C58.3871 77.7254 58.8075 78.0886 57.9665 77.4044C57.7555 77.2329 57.8499 77.2578 57.6884 77.1064C57.5834 77.008 57.4689 76.9429 57.3539 76.8482C56.3426 76.0145 54.6739 74.9726 53.5257 74.4844C52.7699 74.1631 52.4447 74.0632 51.9415 73.655C51.0358 72.9202 50.127 72.2655 49.2604 71.4898C48.0951 70.4467 46.4106 69.0658 45.0585 68.3367C44.2197 67.8844 42.5983 67.1014 41.502 66.9535C41.6763 66.5955 42.6886 65.6044 43.039 65.2488C43.2456 65.0393 43.6365 64.7512 43.9154 64.5338C46.7999 62.2857 51.5278 60.6796 54.9121 62.2415C56.1564 62.8157 57.7793 64.6048 57.8966 65.5905Z" fill="#FDA955"/>
<path fill-rule="evenodd" clip-rule="evenodd" d="M63.4036 84.2053L63.5217 84.4095C63.6396 84.7884 63.8314 85.1307 63.9934 85.4898C64.3991 86.3887 64.2771 86.0613 64.024 86.5691L64.5805 88.1451L65.2563 91.5819C64.958 91.3807 64.2924 90.3943 64.0207 90.0299L58.7565 83.9411C57.5745 82.7988 55.219 80.8347 54.0936 80.0006C52.1079 78.5288 49.5845 76.9253 46.6266 76.0874C45.8938 75.8797 45.0551 75.6932 44.2624 75.5833C43.4183 75.4665 43.3489 75.9962 43.024 76.2824C42.5298 76.7178 42.4588 76.7788 41.9878 77.4101L40.8654 79.1198C40.4761 79.7657 40.8185 79.6257 40.0883 79.7517L40.1046 79.3757C39.2886 78.7587 38.603 76.2378 38.5401 74.9383C38.4029 72.1025 39.4456 70.7358 39.5228 69.9196C39.6924 69.7927 40.2879 68.6336 40.4653 68.35C40.7515 67.8929 41.1491 67.2595 41.5021 66.9535C42.5983 67.1014 44.2198 67.8844 45.0586 68.3367C46.4106 69.0658 48.0951 70.4467 49.2605 71.4898C50.1271 72.2655 51.0359 72.9202 51.9415 73.655C52.4448 74.0632 52.7699 74.1631 53.5258 74.4845C54.674 74.9726 56.3426 76.0145 57.354 76.8482C57.469 76.9429 57.5835 77.0081 57.6884 77.1064C57.8499 77.2578 57.7556 77.2329 57.9665 77.4044C58.8075 78.0886 58.3872 77.7255 59.21 78.5903C59.3415 78.7285 59.3971 78.8009 59.5539 78.9193C60.0242 79.274 60.3718 79.789 60.7379 80.2426L63.4036 84.2053Z" fill="#E16C35"/>
<path fill-rule="evenodd" clip-rule="evenodd" d="M100.169 137.173C99.4375 137.26 98.4953 137.396 97.7346 137.422L71.8817 138.336C70.9499 138.374 64.3282 138.553 63.6558 138.336C63.5929 138.312 63.6449 137.539 63.6682 136.959C64.6504 136.903 65.963 136.673 67.0941 136.602C68.3322 136.523 69.5508 136.452 70.7918 136.408C73.954 136.296 83.1215 135.899 85.4796 135.594C87.7532 135.3 90.0464 135.261 92.185 134.771C92.205 135.009 95.4016 134.767 95.888 134.763C97.3148 134.512 99.1035 134.987 100.02 134.827L101.036 133.429C100.644 133.401 100.228 133.152 100.001 132.859L101.26 132.874L102.165 130.886L104.287 126.193C104.556 125.807 104.782 125.122 104.993 124.666L106.954 120.041C107.057 119.972 106.982 120.042 107.083 119.922L107.494 119.081C107.659 118.709 107.787 118.454 107.932 118.079C107.979 118.012 108.43 117.11 108.484 116.973C108.66 116.529 108.781 116.193 108.966 115.801C109.327 115.036 109.638 114.244 110.015 113.49C110.304 112.827 110.626 112.222 110.885 111.559C111.023 111.206 111.135 110.865 111.295 110.555C111.459 110.24 111.669 109.929 111.712 109.563C112.024 109.322 112.377 108.236 112.574 107.824C112.817 107.315 113.223 106.523 113.375 105.992L113.838 104.931L114.95 102.521L115.292 101.692L115.94 100.225L116.96 97.949C117.318 97.4733 118.286 95.089 118.606 94.3509C118.933 93.5967 119.136 93.077 119.673 92.7463C120.461 92.26 121.089 92.5817 122.001 92.464L122.175 92.5811C121.208 92.9677 121.008 94.0669 120.519 95.0831C120.055 96.0492 119.653 96.9876 119.212 97.9422L114.055 109.291C113.183 111.209 112.343 113.077 111.429 114.999C109.649 118.745 108.02 122.578 106.257 126.33C105.376 128.205 104.568 130.126 103.681 132.009L101.848 136.259C101.615 136.601 100.703 137.138 100.169 137.173Z" fill="#655A55"/>
<path fill-rule="evenodd" clip-rule="evenodd" d="M69.4999 66.6494L69.372 66.8962C69.3463 66.9641 69.3192 67.0968 69.2976 67.1647L68.3346 69.1784C67.8764 69.4183 67.8901 69.6272 67.7711 70.2809C67.5209 71.6568 67.0229 72.9364 66.1539 73.9197C65.3307 74.8511 64.0979 75.6487 62.7327 75.7836C61.9589 75.8602 61.9536 75.7886 61.4042 75.7466C61.0388 75.7188 61.2606 75.6301 61.1316 75.828L58.8777 68.0615C60.8791 67.3846 69.217 63.0537 71.4693 61.8133L72.0816 61.5086C72.2477 61.4156 72.1616 61.4709 72.2501 61.3992L72.3081 61.4124C72.1773 61.762 69.5871 66.5639 69.4999 66.6494Z" fill="#FDDBCC"/>
<path fill-rule="evenodd" clip-rule="evenodd" d="M65.3027 116.358C66.1244 116.385 66.6612 117.187 67.1833 117.276C67.3481 117.538 67.39 117.518 67.6416 117.688C67.8165 117.806 67.9166 117.882 68.0839 117.997C68.3819 118.203 68.7731 118.482 69.1584 118.56C69.6494 119.297 72.6643 118.915 73.7331 119.049C73.8359 120.328 74.2632 122.482 72.2673 121.667C71.2445 121.249 70.8821 120.692 70.389 120.205C68.7256 118.561 68.7124 118.961 67.0062 120.213C65.5262 121.298 65.1138 119.862 64.9563 118.507C64.7987 120.212 65.0287 120.764 64.3357 122.309C63.2041 124.831 61.0439 126.346 58.7706 127.764C57.6201 128.482 57.6689 127.73 58.0313 127.459C58.6945 126.962 59.4897 126.593 60.6784 125.665C62.4123 124.312 63.8709 122.68 64.1933 120.345C64.3179 119.442 64.227 117.019 63.9221 116.222C63.5981 117.373 62.9355 118.243 62.4776 119.227C61.7266 120.839 61.9376 121.764 60.3369 123.833C59.5458 124.856 58.5608 125.81 57.5638 126.658C57.335 126.853 57.1719 127.17 56.8753 126.934C56.5716 126.651 57.1177 126.247 57.6615 125.755C58.3849 125.102 59.2428 124.216 59.8459 123.429C61.3642 121.446 61.1944 120.296 61.9485 118.774C62.3421 117.979 63.2846 116.652 63.3191 115.649C61.5487 115.347 59.8113 117.203 58.903 118.342C58.6491 118.661 58.206 119.557 57.7803 119.606L57.5693 119.44C57.5304 118.61 59.9964 116.103 61.2147 115.48C61.9554 115.102 62.4134 114.948 63.3709 114.999C63.2086 113.905 62.7256 113.224 62.2728 112.452C60.6366 109.663 59.9518 109.228 58.251 105.549C55.4144 99.4135 56.3156 93.5405 51.3855 87.0848L50.5498 86.0828C50.3886 85.8904 50.2876 85.7485 50.1146 85.599C49.8934 85.4079 49.8099 85.3617 49.6324 85.1613C47.9851 83.3018 45.059 81.7222 42.4296 81.3947C40.4452 81.1475 39.5985 81.8501 39.5288 81.0383C40.3547 80.1895 44.2058 80.878 45.7573 81.6072C50.7502 83.954 54.0835 88.7857 55.7634 94.3768C57.1116 98.864 56.9145 101.164 59.1976 106.016C60.5338 108.856 63.5975 112.624 63.9428 114.526C64.0114 114.904 63.9467 115.003 64.0921 115.315C64.2037 115.554 64.3318 115.522 64.1302 115.902C64.4836 116.176 64.77 116.305 65.3027 116.358Z" fill="#E16C35"/>
<path fill-rule="evenodd" clip-rule="evenodd" d="M78.7695 119.151C76.9966 119.267 75.4884 119.273 73.7332 119.049C72.6644 118.915 69.6496 119.297 69.1586 118.56L69.8619 117.276L72.3738 113.177C72.63 112.864 72.834 112.514 73.0766 112.184C73.3206 111.852 73.5057 111.609 73.7614 111.284C74.0547 110.91 74.9906 109.777 75.1429 109.369C75.4011 109.241 75.3304 109.257 75.5035 109.022C75.5512 108.957 75.5965 108.89 75.6485 108.83C75.7706 108.689 75.6954 108.76 75.8274 108.652C76.167 110.569 76.613 112.342 77.086 114.156C77.3131 115.027 77.6225 116.083 77.9254 116.898C78.2763 117.842 78.391 118.37 78.7695 119.151Z" fill="#B7573A"/>
<path fill-rule="evenodd" clip-rule="evenodd" d="M72.2502 61.3993C72.1617 61.4709 72.2479 61.4157 72.0817 61.5086L71.4694 61.8133C69.2172 63.0537 60.8792 67.3846 58.8778 68.0616C58.634 67.2867 58.3386 66.1948 57.8967 65.5906L58.2278 65.319C60.3202 62.8607 60.9471 63.0545 62.2278 61.8895C62.4456 61.6914 62.608 61.5185 62.9233 61.4344C64.7061 61.178 65.7124 61.0347 67.6036 61.1391C68.7866 61.2045 71.2411 61.5538 72.2502 61.3993Z" fill="#DC908D"/>
<path fill-rule="evenodd" clip-rule="evenodd" d="M67.7136 54.0037C68.1246 55.1361 69.4326 56.2987 70.2772 56.9159C70.8561 57.3389 71.348 57.6206 71.9732 57.9783C72.5617 58.3151 73.2345 58.5669 73.8257 58.8844C73.6181 59.0321 73.7401 58.9 73.5724 59.1646C73.2161 59.7268 72.6229 61.0769 72.3081 61.4124L72.2501 61.3993C71.2409 61.5538 68.7864 61.2045 67.6034 61.1391C65.7122 61.0347 64.706 61.178 62.9231 61.4344C63.1172 61.072 63.9757 60.2828 64.3698 59.7726C64.8191 59.191 65.2116 58.5682 65.5959 57.8292C66.277 56.52 66.8334 54.7126 67.0723 53.1133C67.2755 53.2754 67.2416 53.3308 67.3712 53.5649L67.6666 53.9584C67.6735 53.9443 67.6977 53.9889 67.7136 54.0037Z" fill="#DC908D"/>
<path fill-rule="evenodd" clip-rule="evenodd" d="M89.3689 24.9073C89.1067 26.4575 86.9649 29.1151 85.7763 30.4471L84.2508 31.9265C80.2275 35.8241 75.1915 36.8615 69.5727 37.5767L69.5371 37.8798C69.5154 37.8396 69.1422 36.2503 69.1412 36.1534C73.8412 35.8849 79.2109 33.8486 82.3696 31.4747C83.3391 30.746 84.7141 29.487 85.6072 28.6947L89.2504 24.3687C89.2184 24.7104 89.2522 24.6518 89.3689 24.9073Z" fill="#F0B0AE"/>
<path fill-rule="evenodd" clip-rule="evenodd" d="M104.287 126.193L102.165 130.886C101.62 131.282 100.108 131.336 99.3689 131.23C98.2056 131.064 97.806 130.652 97.1344 130.171C97.1344 129.685 97.4011 128.703 97.4734 128.115C97.5721 127.312 97.5715 126.607 97.5657 125.79C99.7354 125.74 102.136 126.032 104.287 126.193Z" fill="#FDDBCC"/>
<path fill-rule="evenodd" clip-rule="evenodd" d="M73.1182 82.4363C72.4835 80.4358 71.5912 78.3085 70.8428 76.2962C70.4614 75.2706 70.0768 74.2699 69.711 73.2616C69.3586 72.2906 68.851 71.0975 68.622 70.1144C68.5231 69.63 68.437 69.5214 68.3347 69.1784L69.2978 67.1647C69.5271 67.2068 69.5023 67.2838 69.7656 67.8051C69.9027 68.0765 70.0508 68.3599 70.1869 68.6356C71.0757 70.4351 71.6128 71.9032 72.1752 73.8958C72.6614 75.6181 73.5288 80.2964 73.2086 82.1641L73.1182 82.4363Z" fill="#E16C35"/>
<path fill-rule="evenodd" clip-rule="evenodd" d="M72.8605 44.774C72.4477 42.5888 74.0978 42.1264 75.9333 42.8378C77.4146 43.412 80.9635 45.4967 78.2759 47.1166C77.5826 47.5345 76.7605 47.6469 75.8672 47.4782C74.2872 47.1797 73.1434 46.2721 72.8605 44.774Z" fill="#DC908D"/>
<path fill-rule="evenodd" clip-rule="evenodd" d="M94.0547 133.38C94.1844 133.048 94.4275 132.729 94.5708 132.36C95.659 129.565 94.7666 126.607 93.5491 124.015C94.6906 124.377 95.929 124.808 97.0042 125.122C96.7555 126.495 97.0328 127.696 96.4675 130.181C96.0872 131.853 95.7136 132.819 94.0547 133.38Z" fill="#FDA955"/>
<path fill-rule="evenodd" clip-rule="evenodd" d="M100.002 132.859C100.228 133.152 100.644 133.401 101.036 133.429L100.421 134.778C99.504 134.938 97.2918 134.84 96.224 134.849C95.7376 134.852 92.2051 135.01 92.1851 134.771C92.5329 134.491 92.7904 134.568 93.2364 134.134C93.6918 133.69 93.5918 133.599 94.3877 133.645C95.7063 133.723 96.0015 132.954 96.401 132.362C97.0134 132.484 97.5667 132.624 98.2163 132.706C98.7883 132.778 99.4497 132.779 100.002 132.859Z" fill="#4C4543"/>
<path fill-rule="evenodd" clip-rule="evenodd" d="M115.292 101.692C113.648 101.694 109.292 103.059 107.524 103.737C106.83 104.003 105.816 104.495 105.236 104.66L107.298 103.015C107.644 102.754 107.996 102.532 108.377 102.257C109.229 101.64 111.554 101.125 112.655 100.844C113.791 100.553 114.797 100.453 115.94 100.225L115.292 101.692Z" fill="#78B5AC"/>
<path fill-rule="evenodd" clip-rule="evenodd" d="M88.3222 43.2506L88.2696 44.1921C89.4266 44.7034 88.898 44.2876 88.9332 46.2735C88.9476 47.0899 90.3062 47.8755 89.0869 48.7623C88.803 48.9687 88.8655 48.9284 88.6865 49.2647L88.268 49.7896C88.0016 49.83 87.9756 49.9264 87.6548 49.9651C87.2102 50.0187 86.7088 49.9832 86.3737 49.709C85.4886 48.9846 87.2368 48.7673 87.568 48.6716C88.1434 48.5053 88.5037 48.3248 88.9516 48.1396C88.8849 47.2152 87.0009 45.6784 87.7822 41.6484C87.8513 41.2924 87.9365 40.9354 88.0283 40.5696C88.2549 39.666 88.7214 39.8424 88.732 40.3547L88.4989 41.5285C88.3957 42.0795 88.2891 42.6661 88.3222 43.2506Z" fill="#DC908D"/>
<path fill-rule="evenodd" clip-rule="evenodd" d="M85.47 37.7112C85.2113 37.8568 82.381 37.3553 81.7852 37.2992C81.0929 37.234 78.2035 37.088 77.8522 36.9773C77.8969 36.6679 77.93 36.7132 78.2095 36.5776C80.2326 35.5958 81.9576 35.3396 84.0634 36.4546C84.4577 36.6633 85.4443 37.2879 85.47 37.7112Z" fill="#2A3652"/>
<path fill-rule="evenodd" clip-rule="evenodd" d="M102.165 130.886L101.26 132.874L100.002 132.859C99.4497 132.779 98.7883 132.778 98.2163 132.706C97.5667 132.624 97.0134 132.484 96.401 132.362C96.6903 131.573 96.9422 131.099 97.1344 130.171C97.8059 130.652 98.2056 131.064 99.3689 131.23C100.108 131.336 101.62 131.282 102.165 130.886Z" fill="#DC908D"/>
<path fill-rule="evenodd" clip-rule="evenodd" d="M64.336 40.808C64.605 40.6481 64.5855 40.5111 64.9976 40.3686C65.3033 40.2629 65.5613 40.2684 65.8919 40.2698C65.8891 39.9556 65.8475 39.6402 65.7732 39.3617C65.7311 39.204 65.6909 39.0598 65.6141 38.937C65.61 38.9305 65.5007 38.7986 65.4991 38.797C65.3547 38.6581 65.5329 38.7788 65.3401 38.6939C64.541 38.0043 63.5486 38.6877 62.9813 38.3849C62.8838 38.2688 62.7647 38.1955 62.9246 37.9926C63.1733 37.6771 64.2113 37.6713 64.5823 37.7057C67.1153 37.9401 66.6096 40.8119 66.0638 42.4978C65.7415 43.4933 64.5515 42.6605 64.3176 42.3736C63.8045 41.7441 64.0833 41.3406 64.336 40.808Z" fill="#DC908D"/>
<path fill-rule="evenodd" clip-rule="evenodd" d="M67.7137 54.0036C67.6977 53.9888 67.6735 53.9443 67.6666 53.9584L67.3713 53.5648C67.2417 53.3308 67.2756 53.2753 67.0723 53.1133C67.0696 50.1701 67.0551 48.7953 65.7476 46.5071C67.503 46.6875 68.562 47.4828 68.1728 49.4074C67.7711 51.394 67.2205 51.6944 67.7137 54.0036Z" fill="#F0B0AE"/>
<path fill-rule="evenodd" clip-rule="evenodd" d="M84.3235 43.3269C84.2042 43.4398 84.3252 43.3694 84.0978 43.4846C84.039 43.5146 83.9735 43.5349 83.9101 43.5553C80.8481 44.5403 78.7709 42.1725 78.9569 41.3169C79.3804 41.3874 79.2563 41.6864 80.0963 42.044C81.9692 42.8414 81.9685 42.0561 83.0277 42.7976C83.418 43.0709 83.8775 43.2013 84.3235 43.3269Z" fill="#3C2728"/>
<path fill-rule="evenodd" clip-rule="evenodd" d="M69.5371 37.8798C69.5075 38.6943 69.7316 39.8483 69.2019 40.3559C68.5851 40.348 68.7154 40.0999 68.7663 39.5377C68.9173 37.8692 68.6743 37.3771 67.9897 36.2248L69.1412 36.1534C69.1422 36.2502 69.5155 37.8395 69.5371 37.8798Z" fill="#DC908D"/>
<path fill-rule="evenodd" clip-rule="evenodd" d="M80.4593 53.3326C80.2152 52.9656 80.5365 52.6114 80.9819 52.9594C81.1456 53.0874 81.1373 53.1399 81.3363 53.2787C82.6599 54.2016 83.6839 53.67 83.9278 54.057C84.5259 55.0058 81.2347 54.499 80.4593 53.3326Z" fill="#DC908D"/>
<path fill-rule="evenodd" clip-rule="evenodd" d="M64.3359 40.808C64.2676 40.713 64.2855 40.7655 64.2406 40.6081C64.1686 40.3554 64.2417 40.7186 64.2102 40.4553C64.1997 40.3673 64.217 40.1307 64.2268 40.0361C64.335 38.9946 64.5398 38.7891 65.34 38.6939C65.5328 38.7788 65.3546 38.6581 65.499 38.797C65.5006 38.7986 65.6099 38.9305 65.614 38.937C65.6908 39.0598 65.731 39.204 65.7731 39.3617C65.8474 39.6403 65.889 39.9556 65.8918 40.2698C65.5612 40.2685 65.3032 40.263 64.9975 40.3687C64.5854 40.5112 64.6049 40.6481 64.3359 40.808Z" fill="#F0B0AE"/>
<path fill-rule="evenodd" clip-rule="evenodd" d="M69.1585 118.56C68.7733 118.482 68.3821 118.203 68.084 117.997C67.9167 117.882 67.8167 117.807 67.6417 117.688C67.3902 117.518 67.3482 117.538 67.1835 117.276L69.8618 117.276L69.1585 118.56Z" fill="#C4D0A6"/>
<path d="M143.817 50.3419H147.275C148.017 50.3419 148.618 50.7189 148.618 51.1839V65.4649C148.618 65.9299 148.017 66.3069 147.275 66.3069H143.817C143.075 66.3069 142.474 65.9299 142.474 65.4649V51.1839C142.474 50.7189 143.075 50.3419 143.817 50.3419Z" fill="#FBD2A8"/>
<path d="M136.665 53.4106H140.124C140.865 53.4106 141.467 53.7151 141.467 54.0907V65.6267C141.467 66.0024 140.865 66.3069 140.124 66.3069H136.665C135.923 66.3069 135.322 66.0024 135.322 65.6267V54.0907C135.322 53.7151 135.923 53.4106 136.665 53.4106Z" fill="#FBD2A8"/>
<path d="M129.53 43.6982H132.989C133.73 43.6982 134.332 44.2321 134.332 44.8906V65.1145C134.332 65.773 133.73 66.3068 132.989 66.3068H129.53C128.789 66.3068 128.187 65.773 128.187 65.1145V44.8906C128.187 44.2321 128.789 43.6982 129.53 43.6982Z" fill="#FBD2A8"/>
<path d="M122.144 36.6313H125.602C126.344 36.6313 126.945 37.3313 126.945 38.1946V64.7103C126.945 65.5737 126.344 66.2736 125.602 66.2736H122.144C121.402 66.2736 120.801 65.5737 120.801 64.7103V38.1946C120.801 37.3313 121.402 36.6313 122.144 36.6313Z" fill="#FBD2A8"/>
<path d="M114.505 38.4266H117.964C118.706 38.4266 119.307 39.0841 119.307 39.8952V64.805C119.307 65.616 118.706 66.2736 117.964 66.2736H114.505C113.764 66.2736 113.162 65.616 113.162 64.805V39.8952C113.162 39.0841 113.764 38.4266 114.505 38.4266Z" fill="#FBD2A8"/>
<path d="M107.035 6.44662H110.493C111.235 6.44662 111.836 7.8592 111.836 9.60171V63.1185C111.836 64.861 111.235 66.2736 110.493 66.2736H107.035C106.293 66.2736 105.692 64.861 105.692 63.1185V9.60171C105.692 7.8592 106.293 6.44662 107.035 6.44662Z" fill="#FBD2A8"/>
<path d="M99.7323 20.6701H103.191C103.932 20.6701 104.534 21.739 104.534 23.0576V63.5541C104.534 64.8727 103.932 65.9416 103.191 65.9416H99.7323C98.9905 65.9416 98.3892 64.8727 98.3892 63.5541V23.0576C98.3892 21.739 98.9905 20.6701 99.7323 20.6701Z" fill="#FBD2A8"/>
<path d="M135.484 49.8754L147.82 63.3849C148.206 63.8072 148.859 63.8406 149.286 63.4599C149.719 63.0729 149.753 62.4064 149.362 61.9772L137.041 48.4853L135.458 48.5149L135.484 49.8754ZM137.041 48.4853L136.232 47.5993L135.458 48.5149L137.041 48.4853ZM129.811 58.4225L137.067 49.8458L135.458 48.5149L128.201 57.0916L128.015 58.0989L129.811 58.4225ZM128.015 58.0989L128.625 59.8245L129.811 58.4225L128.015 58.0989ZM115.293 22.0696L128.015 58.0989L129.997 57.4152L117.274 21.3859L115.351 21.2525L115.293 22.0696ZM117.274 21.3859L116.469 19.1074L115.351 21.2525L117.274 21.3859ZM108.158 39.5715L117.216 22.2031L115.351 21.2525L106.293 38.6208L106.322 39.6234L108.158 39.5715ZM106.322 39.6234L107.288 41.2405L108.158 39.5715L106.322 39.6234ZM84.5156 8.58571L106.322 39.6234L108.129 38.5689L86.3228 7.53117L84.5156 8.58571ZM90.5825 6.03767L80.7893 0.30545L81.1351 11.5512L90.5825 6.03767Z" fill="#E36D34"/>
<path fill-rule="evenodd" clip-rule="evenodd" d="M96.9862 19.5199C97.164 19.6715 98.0107 20.051 98.3591 20.278C100.581 21.7254 100.165 21.7691 101.578 23.2721L102.117 24.2503C102.232 24.6966 102.536 25.2883 102.699 25.8649C103.597 29.0544 102.59 31.0574 102.634 31.8516C102.547 31.9522 102.62 31.8362 102.528 32.0183L102.075 33.2346C100.901 36.0223 97.411 40.0302 96.8874 41.1362C95.9401 42.3747 94.4637 45.0056 93.9169 46.4933C93.7891 46.8411 93.3872 48.4153 93.2484 48.564C92.5233 46.7225 92.7431 42.6003 93.2022 40.7278C94.2757 36.3505 97.014 30.8723 94.3773 26.9536C93.8246 26.1321 93.2588 25.4975 92.2788 24.9621C91.6722 24.6308 90.2068 23.6972 89.5497 23.5546C89.7784 23.8055 89.5247 24.1289 89.2506 24.3337L85.6073 28.6538C84.7143 29.445 83.008 31.2046 82.0384 31.9323C78.8797 34.3028 73.8413 35.834 69.1413 36.1022L67.9898 36.1735C63.8067 32.4916 56.8113 40.9583 62.6487 43.4661C64.3287 44.1878 64.9007 45.1559 65.7478 46.4416C67.0552 48.7266 67.2498 50.3037 67.2525 53.2429C67.0136 54.84 66.2772 56.4406 65.5961 57.748C65.2118 58.486 64.8193 59.1079 64.37 59.6887C63.9759 60.1982 63.1174 60.9863 62.9233 61.3482C62.6081 61.4322 62.4456 61.6049 62.2279 61.8027C60.9471 62.9661 60.7121 62.7513 58.6197 65.2063L57.8642 65.8701C57.747 64.8857 55.5831 62.8755 54.3388 62.3021C50.9546 60.7423 47.1507 62.3804 44.2663 64.6254C43.9874 64.8425 43.4656 64.997 43.259 65.2063C42.9086 65.5613 41.8861 66.5368 41.7118 66.8943C41.3589 67.1999 41.027 68.1519 40.7409 68.6083C40.5634 68.8916 39.6925 69.695 39.5229 69.8217C39.3709 69.7455 38.9289 70.6239 38.3067 70.8487C36.7248 71.4203 34.6696 71.3156 33.1025 70.6828C29.6545 69.2903 24.8466 60.9316 34.5295 57.3234C36.7155 56.5089 37.543 56.2769 39.0621 54.2532C41.3334 51.2275 42.5919 46.8253 42.8394 42.8853C42.953 41.0761 43.3049 39.3684 43.4365 37.3248C43.4667 36.8558 43.6216 35.8369 43.4216 35.5487L45.2804 30.6937C45.8466 29.2172 46.8877 26.9972 47.2713 25.9149C47.4991 25.5262 47.7302 24.9404 47.9227 24.5117C48.1409 24.0258 48.3852 23.6174 48.6148 23.1226C49.065 22.1525 49.6845 21.3038 50.155 20.4115C50.4145 20.0845 50.6442 19.6979 50.9131 19.3362L53.2995 16.4665L55.1642 14.7396C55.8432 14.1989 56.4026 13.7297 57.173 13.239C64.1501 8.79472 71.9984 8.48502 79.485 12.1386C81.9215 13.3276 83.0503 14.1989 84.9166 15.6455L86.7615 17.3061C88.271 18.8025 86.9565 18.0682 90.2644 18.1356C91.1081 18.1528 91.9427 18.2085 92.7697 18.3334C94.4548 18.5875 95.5224 19.0112 96.9862 19.5199Z" fill="#334160"/>
</g>
<defs>
<clipPath id="clip0_431_1674">
<rect width="159" height="141" fill="white" transform="matrix(-1 0 0 1 159 0)"/>
</clipPath>
</defs>
</svg>
