<svg width="20" height="20" viewBox="0 0 20 20" fill="none" xmlns="http://www.w3.org/2000/svg">
<g clip-path="url(#clip0_572_90)">
<path d="M10 4.87692V2.95541L9.89435 2.63554C9.1675 1.87667 7.56972 0.714355 5.19706 0.714355C4.66553 0.714355 4.18524 0.928887 3.83943 1.2779C3.49041 1.62371 3.27588 2.10401 3.27588 2.63554C3.27588 3.16706 3.49041 3.64736 3.83943 3.99317C4.18524 4.34219 4.66553 4.55672 5.19706 4.55672V4.87692H10ZM4.55667 2.63554C4.55667 2.28332 4.84164 1.99514 5.19706 1.99514C6.87169 1.99514 8.08844 2.70598 8.71923 3.27593H5.19706C4.84164 3.27593 4.55667 2.98775 4.55667 2.63554Z" fill="#FFAF45"/>
<path d="M14.803 4.87692V4.55672C15.3345 4.55672 15.8148 4.34219 16.1606 3.99317C16.5096 3.64736 16.7241 3.16706 16.7241 2.63554C16.7241 2.10401 16.5096 1.62371 16.1606 1.2779C15.8148 0.928887 15.3345 0.714355 14.803 0.714355C12.4303 0.714355 10.8325 1.87667 10.1057 2.63554L10 2.95541V4.87692H14.803ZM14.803 3.27593H11.2808C11.9116 2.70598 13.1283 1.99514 14.803 1.99514C15.1584 1.99514 15.4433 2.28332 15.4433 2.63554C15.4433 2.98775 15.1584 3.27593 14.803 3.27593Z" fill="#FFAF45"/>
<path d="M8.71924 4.87688V3.27589C8.71924 2.92207 9.00581 2.6355 9.35963 2.6355H10.6404C10.9942 2.6355 11.2808 2.92207 11.2808 3.27589V4.87688H8.71924Z" fill="#EF943A"/>
<path d="M1.35474 6.7981H18.6454V18.6454C18.6454 18.9989 18.3585 19.2858 18.005 19.2858H1.99513C1.64163 19.2858 1.35474 18.9989 1.35474 18.6454V6.7981Z" fill="#E22933"/>
<path d="M18.6454 4.55664H1.35475C1.00107 4.55664 0.714355 4.84335 0.714355 5.19703V7.11822C0.714355 7.4719 1.00107 7.75861 1.35475 7.75861H18.6454C18.9991 7.75861 19.2858 7.4719 19.2858 7.11822V5.19703C19.2858 4.84335 18.9991 4.55664 18.6454 4.55664Z" fill="#FC4444"/>
<path d="M12.2415 7.75867V19.2858H7.75879V7.75867L8.07899 7.43848H11.9214L12.2415 7.75867Z" fill="#FFAF45"/>
<path d="M7.75879 4.55664H12.2415V7.75861H7.75879V4.55664Z" fill="#FFC95C"/>
</g>
<defs>
<clipPath id="clip0_572_90">
<rect width="20" height="20" fill="white"/>
</clipPath>
</defs>
</svg>
