<svg width="161" height="160" viewBox="0 0 161 160" fill="none" xmlns="http://www.w3.org/2000/svg">
<path fill-rule="evenodd" clip-rule="evenodd" d="M39.8066 39.9477L35.9218 48.7695L35.6288 49.4898L35.1943 50.5101L40.7313 53.2096C41.543 53.3752 42.4417 54.0829 42.3459 52.2637C42.2949 51.295 42.2615 50.4922 43.1741 49.9448C44.5008 49.1492 47.5105 50.2017 46.8257 51.8924C46.2982 53.1946 43.7606 54.4667 46.4164 55.6136C47.1502 55.9306 50.4109 57.4118 50.9316 57.4789C51.2699 56.4325 53.4012 51.7123 52.8669 51.0001C52.2765 50.213 50.4926 50.9059 49.777 49.7521C49.1869 48.8005 49.7527 47.2365 50.4083 46.4621C52.3249 44.1981 53.9457 50.1346 55.7408 46.0651C56.2272 44.9624 58.2765 40.844 58.4173 40.0257C57.4756 39.6691 53.2282 37.4972 52.681 37.514C51.3651 37.5543 52.822 43.1136 48.5509 40.5344C44.961 38.3667 50.523 36.8126 48.7023 35.4673C48.4032 35.2461 43.4743 32.9693 43.0315 32.8379L39.8066 39.9477Z" fill="#EB5A16"/>
<path fill-rule="evenodd" clip-rule="evenodd" d="M119.915 103.291C120.111 103.587 120.169 104.738 120.195 105.16L120.385 107.578C123.371 108.223 131.388 109.385 134.333 110.279C139.28 111.782 138.263 113.739 140.251 115.233L150.712 115.34C154.904 112.514 153.2 102.466 147.87 100.913L127.42 100.871L119.915 103.291Z" fill="#EB771F"/>
<path fill-rule="evenodd" clip-rule="evenodd" d="M50.9354 19.0526L50.9963 24.56L52.2553 24.6378L56.7207 24.8313L56.7036 25.0876C56.8957 25.718 52.9019 28.7026 57.3931 29.3147C58.4343 29.4566 59.6735 28.9966 59.9031 27.9202C60.1662 26.6876 58.7043 25.8044 59.0326 24.9686L59.0305 24.6824L66.2063 24.6292C66.2844 23.6037 66.6023 19.0275 65.536 18.8045C64.5413 18.5966 61.4922 20.4137 61.8027 16.6948C62.0842 13.3234 64.926 15.6724 65.8853 15.1623C66.6387 14.7618 66.3673 9.97943 66.3622 8.99423L60.2886 8.83664L60.2998 8.53928C59.9535 7.55489 61.7157 7.29326 61.6622 6.02143C61.6175 4.9581 60.2886 4.42006 59.3436 4.3233C54.9838 3.87675 58.0523 8.27198 57.7708 8.83077L57.7702 9.04524L50.9429 9.02702L50.9744 15.8775L50.8072 15.8782C50.0472 16.3323 49.077 14.7 47.8562 14.9769C46.7788 15.2211 46.4117 16.7634 46.5233 17.746C47.0734 22.5891 50.9762 16.8061 50.9354 19.0526Z" fill="#EB5A16"/>
<path fill-rule="evenodd" clip-rule="evenodd" d="M109.125 40.3573L108.515 40.5795L108.327 40.5476L108.479 45.5881C109.784 46.8261 110.753 44.8214 111.848 45.9558C112.579 46.7137 112.711 48.4646 111.91 49.2418C110.304 50.8008 108.067 46.0057 108.738 54.4444L114.697 54.4777L114.695 54.7064C114.861 54.9889 112.562 59.1343 116.241 58.5896C120.126 58.0143 116.463 55.3805 116.734 54.7679L116.724 54.5582L121.442 54.3504L121.473 48.8732L121.682 48.8744C122.283 48.5791 125.068 51.8018 125.166 47.8035C125.265 43.7716 122.009 46.8045 121.569 46.5462L121.436 46.5452L121.487 40.39L115.858 40.4038L115.857 40.2303C115.569 39.7269 118.134 35.7725 114.478 36.2094C110.383 36.6987 113.924 39.359 113.678 39.9546L113.69 40.189L109.125 40.3573Z" fill="#EB5A16"/>
<path fill-rule="evenodd" clip-rule="evenodd" d="M54.302 140.3L58.9726 152.179L58.9506 152.035L67.6634 150.427L67.0478 143.942L56.3347 139.727L54.302 140.3Z" fill="#FDDBCC"/>
<path fill-rule="evenodd" clip-rule="evenodd" d="M53.6141 76.429C53.5001 77.103 53.0571 80.2953 52.9825 81.2589C52.8729 80.5176 52.7011 79.434 52.4476 78.7399C52.2919 78.3135 50.6518 76.4181 50.7004 76.1252C51.0923 79.2681 53.2987 88.702 52.0872 90.9578L45.1071 85.9636C46.3167 87.7865 53.36 91.6168 51.6332 93.2201C51.3505 93.2705 50.1943 91.8601 49.8529 91.5702C49.1716 90.9916 48.4603 90.5517 47.6117 90.2471C46.3182 89.7828 42.1932 89.7577 41.1111 90.1159C42.9947 90.5136 45.0643 89.8958 47.2619 90.6765C48.1169 90.9803 50.9387 92.6922 51.263 93.4262L50.6565 92.938L46.7829 92.6901L42.5938 93.5173C45.86 93.151 47.3182 93.3375 50.8679 93.7846C52.7389 94.6499 55.0998 96.3573 56.5885 96.9911L56.5572 96.1784C51.5411 94.8983 52.3013 92.2734 52.8971 88.1913C53.5369 83.8075 53.8425 80.9067 53.6141 76.429Z" fill="#E16C35"/>
<path fill-rule="evenodd" clip-rule="evenodd" d="M106.485 17.1799L107.49 15.233L113.019 18.7432L113.938 14.9771L113.773 14.9379C112.859 14.2057 110.47 15.7785 110.192 13.3606C110.051 12.1437 110.827 9.85627 112.382 10.2732C113.535 10.5822 114.914 12.5366 115.4 9.88836C115.634 8.61056 116.299 6.6514 116.409 5.56459L100.408 1.36743L99.3716 5.69313L99.1564 5.64201C98.3593 5.87511 97.8262 4.34923 96.7853 4.01989C94.5341 3.30746 93.2793 6.99137 95.3787 8.60661C96.7915 9.69363 97.6317 7.86847 98.3073 8.16573L98.5622 8.2381L96.0353 17.0404C97.1279 17.4855 98.3101 17.7956 99.4401 18.2805C100.286 18.6437 102.129 20.0415 102.388 18.4615C102.563 17.3893 101.514 15.5932 103.609 15.4438C104.633 15.3708 106.176 16.1924 106.485 17.1799Z" fill="#EF8B05"/>
<path fill-rule="evenodd" clip-rule="evenodd" d="M106.486 17.1798L103.95 22.7556L103.732 22.6539C103.404 22.5419 102.071 18.8119 100.694 22.1061C99.1424 25.8162 103.138 24.5882 103.153 24.5966L103.353 24.6661L101.904 28.7998L107.005 31.1439L107.076 30.992C107.821 30.4822 107.217 28.0545 108.638 27.9982C109.798 27.9522 110.933 29.346 110.455 30.5087C110.024 31.5587 108.436 31.9834 110.875 33.038C111.795 33.436 113.219 34.2061 114.059 34.4932L115.057 32.2849L115.443 32.4092L115.581 32.2042L115.224 31.8638L116.346 29.8035C117.309 29.6597 118.563 33.2515 119.641 30.3476C120.887 26.9891 117.378 28.053 117.083 27.9062L116.868 27.8145L119.039 22.7877L113.019 18.7431L107.49 15.2329L106.486 17.1798Z" fill="#D2D1D1"/>
<path fill-rule="evenodd" clip-rule="evenodd" d="M32.3742 29.2031L33.2595 28.4462L33.3794 29.2357L35.8665 29.7235C35.6395 30.7711 34.2743 33.0373 36.91 32.2659C39.6899 31.4523 37.6601 29.8485 37.7296 29.4793L37.6987 29.1992L40.9962 28.8394L40.6188 24.033L40.7983 24.02C41.4396 23.6982 43.0571 26.1755 43.4186 22.7631L44.4103 22.7469L43.1513 22.6691L43.0904 17.1617L43.0935 21.8255C42.4285 20.6496 41.3651 22.5674 40.7018 22.3737L40.5183 22.3989L39.9451 18.2881L36.8934 18.3555L36.8899 18.1749C36.6827 17.7132 39.4032 15.0571 36.3683 15.3986C33.4208 15.7303 34.9396 17.6596 35.1871 18.4616L31.0055 19.7379L30.6614 22.9258C29.6946 22.8193 27.7441 21.5241 27.7785 24.1598C27.8137 26.8594 30.1249 24.3621 30.6611 24.6076L30.792 24.6171L30.4728 28.9766L32.3742 29.2031Z" fill="#D2D1D1"/>
<path fill-rule="evenodd" clip-rule="evenodd" d="M7.69064 121.735C6.20499 123.293 5.2458 125.349 5.092 127.502C5.00059 128.781 5.74937 133.669 6.94848 134.132L52.0954 134.194L52.0951 134.379C45.919 132.114 22.6557 129.078 21.8062 121.248L7.69064 121.735Z" fill="#EB771F"/>
<path fill-rule="evenodd" clip-rule="evenodd" d="M43.0516 66.0153L39.0849 74.2571C38.9498 74.6906 37.8496 76.3649 37.4991 76.5986L37.0351 77.198L34.6804 79.8225L31.5898 84.2614L31.3443 84.9765L31.529 84.7489L24.1406 77.8077L24.2158 78.3891L15.2193 84.7321L19.2121 90.9407L30.7913 86.6568C31.185 88.6252 20.427 90.7307 19.6484 91.3588L21.0902 92.2951L30.5966 92.4271L30.2162 92.5921L34.1968 102.213L35.0285 103.249L8.42305 103.259C8.35017 103.371 28.0357 103.386 31.509 103.383C34.8256 103.38 35.0551 102.751 37.0056 105.595C37.7271 106.051 41.6457 110.014 42.6001 110.928C43.5218 111.81 44.6063 112.643 45.7086 113.291C46.2518 113.61 49.2642 114.851 49.3768 115.012L49.8548 115.023L56.5797 115.641L56.5341 114.721L56.5612 115.021C55.4572 114.77 53.7308 111.802 53.8056 110.818C53.2321 110.116 53.0461 107.034 53.1903 106.093C53.3879 104.804 54.3647 103.406 55.591 102.983C54.4431 103.1 53.3259 104.06 53.0674 105.143C53.1693 104.271 53.4928 103.696 54.1961 103.198C54.7477 102.807 55.8838 102.229 56.5526 102.19L56.5886 96.9911C55.0999 96.3573 52.739 94.65 50.868 93.7846C48.7075 92.7853 36.6366 93.8621 49.7463 92.8868L51.2631 93.4262C50.9388 92.6923 48.117 90.9804 47.262 90.6765C45.0644 89.8959 42.9948 90.5137 41.1112 90.1159C42.1933 89.7577 46.3183 89.7828 47.6118 90.2472C48.4604 90.5517 49.1717 90.9917 49.853 91.5702C50.1944 91.8602 51.3506 93.2706 51.6333 93.2202C53.3601 91.6169 46.3168 87.7865 45.1072 85.9637L52.2048 91.042L52.4734 90.4249C53.4567 86.7596 51.3362 79.7755 50.7215 74.8459C50.0117 69.1532 50.0507 62.8779 49.5333 56.9768L43.0516 66.0153Z" fill="#FDA955"/>
<path fill-rule="evenodd" clip-rule="evenodd" d="M56.5573 96.1784C57.1007 93.927 56.0612 87.2051 56.6923 85.1084C57.2277 83.3301 65.1492 84.0508 66.9909 84.0342L67.8723 77.631L53.6271 76.2852L53.6142 76.4289C53.8427 80.9066 53.5371 83.8074 52.8972 88.1912C52.3014 92.2733 51.5412 94.8982 56.5573 96.1784Z" fill="#FDA955"/>
<path fill-rule="evenodd" clip-rule="evenodd" d="M49.8708 56.5821L50.5075 67.851L50.8381 67.8741L51.5331 55.4429L49.8708 56.5821Z" fill="#EE9A0A"/>
<path fill-rule="evenodd" clip-rule="evenodd" d="M88.635 52.9228C86.9361 51.9294 84.5854 51.913 83.2685 49.4238L82.4208 44.537L81.7186 43.9869L73.9146 37.874L74.0616 40.9524C74.6911 44.1416 75.6047 45.3435 75.7033 48.7905C75.7985 52.1173 72.5937 56.7262 72.6163 57.408C75.5115 59.5741 86.1504 55.3913 88.635 52.9228Z" fill="#FDDBCC"/>
<path fill-rule="evenodd" clip-rule="evenodd" d="M73.7896 36.5232C73.7896 36.5232 72.919 38.2886 73.3875 39.8017C73.8561 41.3149 74.466 49.9596 76.1744 49.6243C77.8827 49.2889 85.5861 43.1968 87.1792 39.6568C86.8652 40.1236 86.4893 40.5122 86.0877 40.8641C85.0375 41.7843 82.8148 42.7532 81.8792 42.7655C80.9436 42.7779 78.1741 42.0474 76.7956 41.0226C75.4171 39.9977 74.3823 38.5538 73.7896 36.5232Z" fill="#DC908D"/>
<path fill-rule="evenodd" clip-rule="evenodd" d="M67.36 76.6865L70.5844 83.9323L89.3874 83.8088C88.2235 78.925 85.3024 74.6102 84.8256 69.2072C84.3334 63.6311 85.2579 57.7475 87.3488 52.6062C82.2004 55.8701 79.4768 55.6325 73.2943 54.8459C73.1053 54.9721 71.9967 60.3228 71.7971 60.8448C69.6501 66.4634 67.0227 68.0212 67.36 76.6865Z" fill="#FDFDFD"/>
<path fill-rule="evenodd" clip-rule="evenodd" d="M82.4362 44.6257L82.8486 44.6221C85.3142 44.5491 90.4453 44.6923 92.4939 45.9305C95.5134 47.7557 95.7677 49.2579 97.6326 51.5603C99.1315 52.0598 97.8526 52.7472 98.953 54.9899C99.4055 55.9124 100.992 55.6714 101.537 56.4676L106.746 59.1025C105.405 54.3629 109.299 51.2209 106.821 45.052C105.344 41.374 102.014 38.7615 99.1345 36.1689C95.1582 32.5885 95.052 33.3534 94.6053 27.8172C95.7989 20.772 93.8221 15.2985 87.2148 14.7258C84.8782 8.06341 75.2945 9.87541 73.0902 10.6689C70.8794 11.4647 67.8677 14.4828 66.2154 16.1565C60.8256 20.2024 59.3731 30.3959 59.6404 35.5555C59.9077 40.715 56.7914 43.8278 49.5334 48.637C42.2945 53.4335 44.545 63.933 49.2848 69.0968C47.6568 73.9416 47.042 77.6782 50.4359 80.2604L65.9588 92.0711L71.4358 84.6247L74.7036 84.7342C73.8873 80.8156 68.6828 77.87 69.541 74.9769C71.2264 69.2943 72.5155 70.8584 73.525 66.6186C74.185 63.9529 70.889 59.9418 73.5385 56.4886C74.7801 53.8523 77.495 52.3853 77.3998 49.0586C77.3786 48.3197 74.2202 41.365 74.1539 40.8883C73.4382 39.234 73.4293 36.912 74.7092 32.1889C77.4665 23.9219 80.8567 30.801 81.211 27.376L77.7174 27.0189L82.8212 20.6557L89.1849 25.4817L89.0447 32.5091L88.6308 34.6171C87.9843 39.3808 84.2258 43.5099 82.4362 44.6257Z" fill="#214360"/>
<path fill-rule="evenodd" clip-rule="evenodd" d="M92.1716 84.0328C94.6422 84.0605 101.481 82.6541 101.494 86.1704C101.507 89.8407 101.29 94.0496 101.501 97.6458C103.177 96.9987 107.693 94.9167 106.72 92.7137C105.673 90.3465 104.433 87.2281 103.852 84.7278C103.028 81.179 100.575 68.4759 101.924 65.7281C102.202 66.6983 102.496 72.9092 102.761 74.7518C103.167 77.577 103.575 80.5863 104.141 83.3744C106.52 95.0931 113.888 85.6769 115.892 89.0249C113.859 88.9591 115.126 87.7794 109.991 89.7624C108.632 90.2874 105.724 92.15 107.978 93.6219C108.459 93.3849 109.18 92.3657 110.467 91.8059C111.505 91.3543 112.765 91.1222 113.89 91.0096C116.362 90.7624 118.717 90.6993 120.74 92.3508C118.192 90.991 116.749 91.0084 113.888 91.4047C112.829 91.5514 108.224 92.5716 108.181 93.8284L108.183 93.4066L120.663 93.4524L120.65 93.6819L108.482 93.9515L108.447 94.3289L109.649 95.5796C108.137 95.9509 108.318 93.7437 105.397 96.3497C104.288 97.3392 103.028 98.3581 101.497 98.5889L101.502 102.306C102.536 102.971 103.962 104.385 104.695 105.376C105.594 106.591 106.387 109.744 106.445 109.814L107.027 108.699C105.964 113.321 102.299 112.992 101.69 113.878L101.57 114.21L106.546 115.615L107.114 115.543L117.478 110.82L117.49 110.691L117.789 110.47L120.933 107.725L123.737 105.154L125.057 103.95L127.42 100.871L128.093 99.4935L130.956 99.3877C130.82 99.0031 129.066 97.7194 128.628 97.2598L128.769 96.317L132.232 99.3617L136.707 99.2696C134.76 93.5725 128.452 91.2313 128.292 90.9273C129.158 90.2262 133.29 90.8292 136.732 87.0998C137.882 85.8541 141.445 80.5007 140.639 78.968C137.12 76.8817 127.48 86.309 126.685 86.4606L126.242 85.5212L126.059 85.1746L124.25 82.2247L118.66 74.72L118.127 74.019L113.104 67.8621L104.826 56.7232L100.06 54.312C98.3451 54.8834 88.9162 63.9091 88.1825 65.6773C86.6946 69.2632 90.8079 80.1456 92.1716 84.0328Z" fill="#FDA955"/>
<path fill-rule="evenodd" clip-rule="evenodd" d="M95.9562 139.894L95.6513 140.463C95.1565 142.005 93.9536 144.193 93.2491 145.747C92.8482 146.631 92.4455 147.541 92.0271 148.414C91.7665 148.958 90.917 150.517 90.7915 150.959L90.6681 151.004L90.6025 151.232C90.5339 153.303 98.3808 154.515 100.157 154.999C103.758 155.979 107.808 157.49 111.509 156.464C115.583 155.333 125.593 148.371 126.17 144.023C125.339 141.948 116.438 143.073 114.392 143.288C111.8 143.559 105.739 142.264 103.605 140.867C100.732 140.556 98.7964 137.897 95.9562 139.894Z" fill="#1F354D"/>
<path fill-rule="evenodd" clip-rule="evenodd" d="M83.2684 49.4237L84.8185 52.3331L87.3488 52.606C85.2579 57.7473 84.3333 63.6309 84.8256 69.207C85.3024 74.61 88.2235 78.9248 89.3874 83.8086L92.1715 84.0326C90.8078 80.1455 86.6945 69.2631 88.1824 65.6771C88.9161 63.9089 98.3451 54.8832 100.06 54.3118C99.5613 53.5833 99.135 52.3365 98.7209 51.4924C97.714 49.4402 97.8585 50.2785 96.4869 49.8215C94.7804 47.7146 94.5753 47.0009 91.8124 45.3308C89.9379 44.1977 84.6768 44.4702 82.4207 44.5369L83.2684 49.4237Z" fill="#FDA955"/>
<path fill-rule="evenodd" clip-rule="evenodd" d="M34.1967 102.212L30.2161 92.5919L30.5965 92.4269L21.0902 92.295C19.3677 92.3457 10.3667 91.8391 9.58058 92.5496C7.62943 94.3131 6.63686 100.196 8.2072 101.728L34.1967 102.212Z" fill="#214360"/>
<path fill-rule="evenodd" clip-rule="evenodd" d="M55.9727 120.473C57.6954 121.386 59.3674 122.401 61.0942 123.321C64.5492 125.163 73.7874 129.858 76.4651 131.882C77.5004 132.665 77.8819 131.805 78.6811 131.141C81.0274 129.192 82.8965 127.675 85.4632 125.921C88.4765 123.862 92.1174 121.455 95.3996 119.941L56.1187 119.886L55.9727 120.473Z" fill="#3F6881"/>
<path fill-rule="evenodd" clip-rule="evenodd" d="M88.8333 34.684C86.9855 35.6013 87.0114 33.1757 89.0447 32.509L89.1848 25.4815L88.6985 25.1128L82.3676 20.2417L77.7174 27.0187L81.211 27.3758C80.8567 30.8008 77.4665 23.9218 74.7092 32.1888C73.5487 35.6682 73.0817 38.6302 76.1827 40.8894C82.6114 45.573 87.8071 42.2462 88.8333 34.684Z" fill="#FDDBCC"/>
<path fill-rule="evenodd" clip-rule="evenodd" d="M48.8819 133.442L6.94835 134.132C5.77733 134.98 5.56408 140.667 5.44112 142.224C5.23224 144.868 5.38493 147.623 8.05747 149.077C9.72655 149.985 23.9777 149.33 27.0664 149.455C26.8623 148.631 21.0408 143.865 24.9303 143.092C28.966 144.247 51.1427 143.709 55.5848 141.034C59.542 138.652 45.8057 134.206 48.8819 133.442Z" fill="#214360"/>
<path fill-rule="evenodd" clip-rule="evenodd" d="M18.9287 64.0362L19.6297 64.7893L19.9549 65.2653L20.4252 66.6898L30.1324 65.4565L30.0823 65.0167L34.2607 72.2649L34.2561 71.8755L25.162 71.8328L25.3519 72.0017C25.8283 72.1223 26.5624 72.3207 26.8528 72.71L27.0898 72.971L29.1531 75.2187L34.4994 72.7177L34.3949 72.498L37.0352 77.1981L37.4991 76.5986L36.142 74.1018C37.3421 74.4279 37.8771 74.367 39.0849 74.2572L43.0517 66.0154L35.7153 73.6566L32.3442 67.4563C32.4054 67.4014 36.1389 64.8122 37.0458 63.7528C37.7661 62.911 40.427 59.1125 39.3924 58.1755C36.9583 56.2821 32.6748 66.0293 32.0578 66.9023C31.7891 66.7465 28.9659 61.6615 28.5211 60.8915C27.9483 59.9002 27.2791 58.857 26.7523 57.8589C26.2798 56.9642 25.5788 56.8064 24.6978 55.272C22.1517 50.8376 19.2694 48.0436 14.291 46.4477C10.2508 45.1526 13.842 50.1224 14.7108 51.1535C16.1762 52.8928 17.9306 54.3903 19.8281 55.6495C20.9987 56.4263 26.2553 58.6104 26.3801 58.7228C26.5425 58.8688 29.6427 64.2402 29.9131 64.7989L29.9553 64.2681L18.9287 64.0362Z" fill="#21425F"/>
<path fill-rule="evenodd" clip-rule="evenodd" d="M137.042 128.327L148.407 128.959L148.802 129.701L135.282 129.482L135.154 129.536C137.365 129.538 145.452 129.802 147.68 129.825C149.066 129.84 148.891 129.283 148.774 131.719L130.866 131.652L130.503 131.848L148.962 131.814L149.012 133.915L149.053 136.282L149.114 137.475L149.09 137.638L111.693 138.023L104.997 140.001L155.621 139.536L150.255 139.645L153.942 137.869L153.638 137.152C154.056 135.134 153.847 130.823 153.871 128.508C153.607 126.091 150.346 126.815 149.939 126.674C147.57 126.631 145.138 126.708 142.767 126.779C140.468 126.849 138.563 126.407 137.042 128.327Z" fill="#EC9C0A"/>
<path fill-rule="evenodd" clip-rule="evenodd" d="M134.74 71.2318L135.164 71.4848L137.558 67.3044C139.627 67.1021 140.788 68.759 143.936 66.4999C145.202 65.5911 147.243 62.5758 146.367 61.1345C144.533 59.7845 139.85 64.6799 138.453 65.6843C140.95 59.1728 144.069 55.5684 144.426 47.8893C144.511 46.0517 145.435 45.361 146.516 44.0267C147.834 42.3982 146.245 40.8124 144.649 42.5012C142.85 44.4039 144.787 48.8051 143.389 52.1684C143.014 51.1176 141.309 41.7339 139.152 43.1277C137.88 43.791 138.625 48.7852 138.988 50.0407C139.989 53.5038 140.616 52.83 142.828 54.3869L139.564 62.7589C139.496 62.6414 139.619 58.2411 138.527 55.9557C137.985 54.8213 135.97 51.8396 134.64 51.7808C132.737 52.4193 133.157 57.9866 133.851 59.5292C134.93 61.9273 137.544 63.4069 138.416 64.7075L134.74 71.2318Z" fill="#EB7720"/>
<path fill-rule="evenodd" clip-rule="evenodd" d="M69.3474 145.056C69.8898 145.113 69.8269 147.731 69.8157 148.233C69.7888 149.448 69.6095 150.334 69.2327 151.469C69.1426 151.291 69.468 149.373 69.4555 148.315C69.4488 147.751 69.1378 145.349 69.3474 145.056ZM93.1887 138.303C93.3196 138.061 93.8895 138.057 94.1796 137.997C94.4891 137.933 94.9995 137.723 95.2255 137.971C95.0089 138.144 93.4321 138.448 93.1887 138.303ZM97.2864 137.45C97.4371 137.208 99.2178 136.946 99.5642 136.977C99.4549 137.302 99.2775 137.213 98.4494 137.366C98.1197 137.426 97.5041 137.672 97.2864 137.45ZM101.724 136.58C102.03 136.308 103.756 135.874 104.056 136.095C103.847 136.315 102.9 136.403 102.31 136.579C101.981 136.677 101.975 136.752 101.724 136.58ZM106.232 135.611C106.315 135.34 106.212 135.408 107.209 135.254C107.652 135.185 108.042 135.067 108.489 135.074C108.448 135.173 108.703 135.23 108.047 135.343C107.859 135.376 107.669 135.405 107.48 135.44C107.074 135.516 106.632 135.639 106.232 135.611ZM110.684 134.77C110.83 134.537 110.819 134.601 111.191 134.572C111.625 134.539 112.536 134.413 112.788 134.516C112.659 134.753 112.711 134.689 112.358 134.726C111.971 134.767 110.935 134.892 110.684 134.77ZM83.6066 134.107L83.8794 134.232C83.7383 134.585 83.1804 135.33 82.9613 135.764C80.9877 139.673 80.4482 143.408 80.7019 147.74C80.736 148.322 80.9472 149.346 80.9223 149.821C80.637 149.35 80.4316 146.115 80.4213 145.423C80.3713 142.046 81.0605 138.627 82.6507 135.623C82.906 135.14 83.4399 134.52 83.6066 134.107ZM114.881 134.199C115.118 134.02 116.846 133.733 117.094 133.864C116.941 134.135 116.276 134.143 115.945 134.19C115.646 134.233 115.024 134.457 114.881 134.199ZM83.6066 134.107C82.9713 133.967 82.0637 133.517 81.3549 133.293C80.7849 133.113 79.1768 132.974 78.891 132.797C80.1985 132.651 82.3852 133.297 83.4415 133.946C83.75 134.136 83.4962 133.955 83.6066 134.107ZM119.224 133.121C119.353 132.925 121.103 132.023 121.429 132.21C121.239 132.421 120.648 132.649 120.359 132.791C120.167 132.885 119.983 132.959 119.784 133.047C119.15 133.327 119.302 133.154 119.224 133.121ZM72.0197 132.12C72.1344 132.05 72.0454 132.06 72.2322 132.029L73.2429 132.182C74.051 132.339 74.096 132.242 74.217 132.554C73.7966 132.582 72.998 132.371 72.4795 132.285L72.0197 132.12ZM68.9004 131.632C68.145 131.511 67.9669 131.629 67.8315 131.376C68.179 131.215 69.6717 131.431 69.9762 131.702C69.7054 131.858 69.2334 131.685 68.9004 131.632ZM63.3548 130.715C63.4959 130.575 63.1346 130.646 63.5851 130.601C63.6371 130.596 65.3531 130.819 65.5604 130.974C65.3703 131.211 64.7921 131.028 64.4955 130.976C64.143 130.915 63.6335 130.89 63.3548 130.715ZM59.0001 130.219C59.0995 130.129 58.7845 130.026 59.6863 130.126L60.8601 130.287C61.2491 130.351 61.1803 130.302 61.2504 130.579L59.0001 130.219ZM123.486 131.048C123.448 130.765 124.088 130.529 124.334 130.383C124.688 130.172 125.04 129.892 125.425 129.865C125.342 130.104 125.489 129.969 124.985 130.286C124.804 130.399 124.655 130.493 124.469 130.599C124.202 130.753 123.744 131.141 123.486 131.048ZM55.7999 129.936C54.9953 129.839 54.8457 130.007 54.6773 129.724C54.983 129.575 56.7499 129.695 57.0142 129.962C56.7415 130.167 56.1616 129.981 55.7999 129.936ZM51.8734 129.551C51.3633 129.497 50.4083 129.489 50.1851 129.397C50.3785 129.267 49.8393 129.221 50.7033 129.231C51.1602 129.237 52.1787 129.237 52.4877 129.475C52.2317 129.636 52.2362 129.589 51.8734 129.551ZM45.884 128.401C46.1762 128.214 47.9735 128.579 48.0896 128.858C47.8463 128.934 46.127 128.626 45.884 128.401ZM127.705 128.415C127.845 128.081 129.429 127.146 129.831 127.146C129.736 127.407 129.669 127.381 129.377 127.545C128.834 127.852 128.183 128.399 127.705 128.415ZM43.3459 127.545C43.2631 127.524 41.4923 126.568 41.4201 126.345C41.6873 126.21 42.6571 126.901 43.0232 127.115C43.363 127.313 43.4154 127.248 43.3459 127.545ZM131.936 125.642C132.008 125.413 133.488 124.436 133.807 124.422C133.707 124.72 132.316 125.7 131.936 125.642ZM38.335 124.26C38.8149 124.526 39.07 124.612 39.1712 124.969C38.745 124.879 38.2134 124.424 37.684 124.162C37.3819 124.012 37.3503 124.092 37.3621 123.819C37.6961 123.874 38.0284 124.09 38.335 124.26ZM135.994 122.935C136.049 122.501 137.462 121.684 137.847 121.74C137.771 121.975 136.279 122.926 135.994 122.935ZM33.3338 121.543C33.4203 121.481 33.2083 121.374 33.7089 121.494C33.8061 121.518 33.9225 121.567 34.0223 121.606C34.3191 121.72 35.5596 122.179 35.2936 122.578C35.143 122.531 34.6195 122.132 34.3641 122.009C34.0368 121.851 33.5655 121.779 33.3338 121.543ZM30.5456 119.609C30.262 119.449 29.7379 119.329 29.602 119.064C29.9036 118.948 30.3775 119.246 30.6635 119.407C31.3604 119.8 31.4792 119.837 31.4057 120.204C31.2367 120.137 30.8137 119.759 30.5456 119.609ZM25.4618 116.916C25.8715 116.765 27.3463 117.341 27.5701 117.731C27.3012 117.951 27.3617 117.802 27.0618 117.621C26.3802 117.21 25.5885 117.225 25.4618 116.916ZM43.3459 138.348C46.4655 139.031 53.4513 141.083 57.0142 141.083L67.0477 143.942L67.4761 149.677V149.972L67.4084 150.41C67.5552 150.557 67.725 151.527 67.7876 151.79C68.4317 152.016 75.662 149.511 76.778 149.117C78.2997 148.579 79.5546 149.49 81.0383 150.133C84.3657 151.576 83.0582 149.317 84.1698 148.481L90.4116 150.702L84.1605 148.073L83.8875 148.028L87.5551 136.775L87.6457 136.89L95.9564 139.895C98.7966 137.897 100.733 140.556 103.605 140.867L155.975 140.629L156.072 140.238L155.621 139.536L104.997 140.001L111.693 138.023L116.934 136.525L124.419 134.12L130.503 131.848L130.866 131.652L135.154 129.536L135.282 129.482L137.042 128.327C138.563 126.407 140.468 126.849 142.767 126.779C145.138 126.708 147.57 126.631 149.939 126.674L153.186 125.752L152.989 125.388L139.9 125.807L141.353 120.319C140.871 120.121 141.124 120.118 140.238 120.452L140.994 119.829L140.667 116.105L153.695 116.777L153.934 116.567L150.713 115.34L140.251 115.233C138.263 113.739 139.28 111.782 134.333 110.279C131.388 109.385 127.935 108.463 124.949 107.818L124.334 107.806C123.036 108.164 121.827 108.597 120.559 109.018C119.389 109.407 118.002 110.104 116.901 110.4L106.536 115.123C105.889 115.593 105.167 115.91 104.505 116.357C104.03 116.678 102.957 117.46 102.499 117.663C101.786 121.275 97.5125 119.209 94.7442 120.051C91.4414 121.754 88.3874 123.557 85.29 125.604C82.3091 127.573 81.3804 128.449 78.8443 130.426C78.0761 131.024 77.6798 131.919 76.6252 131.173C73.7848 129.162 70.0328 127.503 66.9057 125.844C63.6397 124.111 60.3724 122.487 57.1172 120.706C57.1163 120.565 56.522 120.214 55.9963 119.991L49.3769 115.012C49.2643 114.851 46.2518 113.61 45.7087 113.291C44.6064 112.643 43.5219 111.81 42.6002 110.928C41.6458 110.015 37.7272 106.051 37.0057 105.595C30.9567 106.123 22.901 108.673 22.3799 115.863L23.1332 116.25L22.2758 116.481L21.7747 120.207L21.8063 121.248C22.6558 129.078 29.854 132.892 36.0301 135.157L43.3459 138.348Z" fill="#6D96AD"/>
<path fill-rule="evenodd" clip-rule="evenodd" d="M118.66 74.7201L124.25 82.2248C125.113 79.2058 126.316 78.2726 125.51 74.6018C124.919 71.9101 123.194 70.1866 125.144 67.3981C126.56 65.3749 128.582 64.2209 128.478 61.4023C128.41 59.5564 127.262 55.9559 126.028 54.5542L118.66 74.7201Z" fill="#EB771F"/>
<path fill-rule="evenodd" clip-rule="evenodd" d="M113.104 67.8621L118.127 74.019L125.71 54.3657C122.887 54.5135 118.715 56.432 117.416 59.0544C115.726 62.4682 118.376 66.6382 113.104 67.8621Z" fill="#EB771F"/>
<path fill-rule="evenodd" clip-rule="evenodd" d="M90.4116 150.702L90.6683 151.004L90.7917 150.959C90.9992 149.512 94.6951 141.801 95.6514 140.463L95.9564 139.894L87.6457 136.89L87.5551 136.775L83.8875 148.028L84.1605 148.072L90.4116 150.702Z" fill="#FDDBCC"/>
<path fill-rule="evenodd" clip-rule="evenodd" d="M11.1357 71.1383L12.8845 76.7385C13.3329 76.7003 14.9834 75.747 15.5058 75.4711C16.0274 75.1956 17.5531 74.0221 18.0451 74.3756C18.5065 75.3348 13.6688 76.8915 13.3333 77.3353L14.9718 84.0234L23.6386 77.8704L23.5432 77.8157L20.8156 75.195L18.4889 73.7035C17.6248 73.3436 17.0211 72.0469 16.6662 71.2072L13.3902 68.1101C13.2971 68.3435 12.2922 69.1287 12.0479 69.389C11.8366 69.614 11.6229 69.8526 11.4263 70.092C10.9956 70.6167 11.1269 70.4346 11.1357 71.1383Z" fill="#FDA955"/>
<path fill-rule="evenodd" clip-rule="evenodd" d="M90.5125 151.255C89.193 153.885 96.6388 155.155 98.3373 155.667C100.711 156.383 106.039 158.218 108.232 158.388C114.428 158.867 119.835 152.6 124.583 149.5L126.114 148.287L154.332 147.439L126.497 147.42L126.591 147.222L127.556 145.13L129.613 145.06L127.508 145.089L127.482 144.777L126.08 144.045C125.503 148.394 115.493 155.356 111.419 156.486C107.718 157.513 103.668 156.002 100.067 155.021C98.2908 154.537 90.4439 153.325 90.5125 151.255Z" fill="#F4E7D1"/>
<path fill-rule="evenodd" clip-rule="evenodd" d="M124.419 134.119L116.934 136.525L148.592 136.305L147.767 133.938L124.419 134.119Z" fill="#FCFCF4"/>
<path fill-rule="evenodd" clip-rule="evenodd" d="M27.0666 149.455C31.6281 152.853 34.5778 157.947 41.1409 157.702C44.0086 157.595 47.9304 156.793 50.83 156.288C52.844 155.938 58.6119 155.603 58.9605 153.255C54.431 154.287 41.3081 156.849 37.3367 155.491C33.8917 154.312 25.9635 146.54 24.9305 143.092C21.0411 143.865 26.8625 148.631 27.0666 149.455Z" fill="#F4E7D1"/>
<path fill-rule="evenodd" clip-rule="evenodd" d="M30.2849 43.1081C27.0835 44.0813 27.8769 62.085 29.8138 59.2361C31.0759 57.3796 32.1644 53.476 32.3605 51.2515C32.4651 50.0667 32.4434 42.4521 30.2849 43.1081Z" fill="#21425F"/>
<path fill-rule="evenodd" clip-rule="evenodd" d="M116.934 136.525L111.693 138.023L149.09 137.638L149.114 137.475L148.591 136.305L116.934 136.525Z" fill="#FDFDFD"/>
<path fill-rule="evenodd" clip-rule="evenodd" d="M101.501 97.6457L101.497 98.5888C103.029 98.358 104.288 97.3391 105.397 96.3496C108.318 93.7436 108.137 95.9508 109.649 95.5796L108.447 94.3288L108.482 93.9515L120.65 93.6818L120.663 93.4523L108.183 93.4065L108.181 93.8283C108.224 92.5715 112.829 91.5513 113.888 91.4047C116.749 91.0083 118.192 90.9909 120.741 92.3507C118.717 90.6992 116.362 90.7623 113.89 91.0095C112.766 91.1221 111.505 91.3543 110.467 91.8058C109.18 92.3656 108.459 93.3848 107.978 93.6218C105.724 92.1499 108.632 90.2873 109.991 89.7623C115.126 87.7794 113.86 88.959 115.892 89.0248C113.889 85.6768 106.52 95.093 104.141 83.3743C103.575 80.5862 103.167 77.5769 102.761 74.7517C102.496 72.9091 102.202 66.6982 101.924 65.728C100.575 68.4758 103.028 81.1789 103.852 84.7277C104.433 87.2281 105.674 90.3464 106.72 92.7136C107.693 94.9166 103.177 96.9987 101.501 97.6457Z" fill="#E16C35"/>
<path fill-rule="evenodd" clip-rule="evenodd" d="M124.418 134.119L147.767 133.938L146.91 131.837L130.503 131.848L124.418 134.119Z" fill="#FDFEFE"/>
<path fill-rule="evenodd" clip-rule="evenodd" d="M18.4889 73.7034L20.8157 75.1949L23.0706 76.8688L22.7532 76.7163L24.7427 71.7232L20.0777 69.1718L20.1339 69.0679L20.4252 66.6897L19.9549 65.2651C19.2152 65.6186 17.6305 68.1993 17.3348 69.0264C16.6913 70.8269 17.4976 72.2578 18.4889 73.7034Z" fill="#EB771F"/>
<path fill-rule="evenodd" clip-rule="evenodd" d="M126.204 148.264L124.673 149.478L156.428 149.036L156.425 148.818C156.96 147.487 150.53 147.996 149.516 148.009C146.934 148.042 144.351 148.07 141.769 148.094C136.629 148.14 131.322 148.369 126.204 148.264Z" fill="#223E5B"/>
<path fill-rule="evenodd" clip-rule="evenodd" d="M136.707 99.2696L132.233 99.3617L130.956 99.3877L128.093 99.4935L127.42 100.871L147.87 100.913C147.772 98.2903 145.357 99.1026 143.201 99.1413C141.053 99.1799 138.848 99.2797 136.707 99.2696Z" fill="#214360"/>
<path fill-rule="evenodd" clip-rule="evenodd" d="M31.9449 76.7784L29.1532 75.2187L27.0898 72.9709L23.583 77.0684L23.7371 77.118L28.9983 81.1106L28.754 81.081L31.9449 76.7784Z" fill="#EB771F"/>
<path fill-rule="evenodd" clip-rule="evenodd" d="M101.506 113.304C108.468 111.737 105.584 105.663 101.542 102.698L101.506 113.304Z" fill="#FDA955"/>
<path fill-rule="evenodd" clip-rule="evenodd" d="M150.205 48.3152C148.347 48.6101 146.97 50.064 145.849 51.4629C145.278 52.1764 144.795 52.8825 144.324 53.6649C143.664 54.7621 142.806 55.3319 144.695 55.3384C149.841 55.3563 153.086 47.8582 150.205 48.3152Z" fill="#EB7720"/>
<path fill-rule="evenodd" clip-rule="evenodd" d="M130.865 131.652L146.722 131.741C146.839 129.306 143.257 129.702 141.871 129.688C139.643 129.664 137.365 129.537 135.154 129.536L130.865 131.652Z" fill="#FDFDFD"/>
<path fill-rule="evenodd" clip-rule="evenodd" d="M53.9822 110.215C54.2883 111.396 55.422 114.048 56.5163 114.597L56.5813 102.936C52.9334 104.322 52.965 106.815 53.9822 110.215Z" fill="#FDA955"/>
<path fill-rule="evenodd" clip-rule="evenodd" d="M11.458 65.4642L13.2176 67.939L13.3902 68.1101L16.6662 71.2072C16.2772 69.6136 16.4803 68.7696 17.3688 67.407C18.1596 66.194 18.7562 65.7797 19.6297 64.7893L18.9287 64.0361L11.458 65.4642Z" fill="#EB7720"/>
<path fill-rule="evenodd" clip-rule="evenodd" d="M20.8157 75.1949L23.5433 77.8156L23.6387 77.8702L14.9719 84.0233L15.2194 84.732L24.2158 78.389L24.1407 77.8076L31.5291 84.7488L31.3444 84.9763L31.5899 84.2613C30.5007 83.3225 29.318 81.8933 29.9246 80.5536C30.3462 79.6228 31.6705 77.7023 32.5019 77.1404L31.9449 76.7783L28.754 81.0809L28.9983 81.1104L23.7371 77.1178L23.583 77.0682L27.0898 72.9708L26.8529 72.7099C25.379 73.4769 24.2884 75.1993 23.5823 76.6255C23.4515 75.6014 24.341 72.2277 25.3519 72.0016L25.162 71.8327L24.7427 71.7231L22.7532 76.7163L23.0706 76.8688L20.8157 75.1949Z" fill="#EED2A5"/>
<path fill-rule="evenodd" clip-rule="evenodd" d="M31.5897 84.2615L34.6803 79.8225L32.5017 77.1406C31.6703 77.7026 30.346 79.623 29.9245 80.5538C29.3178 81.8935 30.5005 83.3228 31.5897 84.2615Z" fill="#EB771F"/>
<path fill-rule="evenodd" clip-rule="evenodd" d="M7.69067 121.735L21.8062 121.248L21.7746 120.207C19.2253 120.067 16.0301 120.245 13.4441 120.356C12.3264 120.404 5.54561 120.175 6.22751 121.558L6.22099 121.672L7.69067 121.735Z" fill="#EB9A07"/>
<path fill-rule="evenodd" clip-rule="evenodd" d="M101.542 102.697C105.584 105.663 108.468 111.737 101.506 113.304L101.227 116.681L101.114 116.423L102.996 117.895C103.45 117.67 104.236 117.053 104.718 116.743C105.339 116.345 105.932 115.959 106.546 115.615L101.57 114.21L101.69 113.878C102.299 112.992 105.964 113.321 107.027 108.699L106.445 109.814C106.387 109.743 105.594 106.591 104.695 105.376C103.962 104.385 102.536 102.971 101.502 102.306L101.542 102.697Z" fill="#E16C35"/>
<path fill-rule="evenodd" clip-rule="evenodd" d="M129.171 72.1182C127.002 73.0941 128.699 78.1123 130.915 77.4462C133.087 76.7931 131.37 71.1284 129.171 72.1182Z" fill="#EB7720"/>
<path fill-rule="evenodd" clip-rule="evenodd" d="M132.871 75.0728L133.826 75.1479C135.902 74.6972 135.821 73.0273 135.164 71.4848L134.74 71.2318C131.803 70.0212 130.382 73.8151 132.871 75.0728Z" fill="#EA9909"/>
<path fill-rule="evenodd" clip-rule="evenodd" d="M6.92742 101.711C5.38374 102.567 4.25762 113.127 6.57766 112.854C7.35922 112.761 6.57288 111.138 6.4944 110.311C6.39006 109.213 6.40726 108.029 6.51374 106.931C6.59853 106.055 8.15513 101.03 6.92742 101.711Z" fill="#EC9A09"/>
<path fill-rule="evenodd" clip-rule="evenodd" d="M107.785 141.679L107.794 141.697C107.831 141.825 129.483 141.605 131.484 141.595L149.35 141.538C150.566 141.536 154.24 141.786 155.105 141.284C147.18 141.262 139.243 141.315 131.317 141.354C127.356 141.374 123.395 141.4 119.434 141.417C117.667 141.425 108.759 141.289 107.785 141.679Z" fill="#2B445B"/>
<path fill-rule="evenodd" clip-rule="evenodd" d="M118.127 74.019L118.66 74.72L126.028 54.5542L125.71 54.3657L118.127 74.019Z" fill="#EBD3A4"/>
<path fill-rule="evenodd" clip-rule="evenodd" d="M56.5796 115.641L49.8547 115.023L54.0113 118.245L53.847 117.692L56.9807 116.31L57.1088 116.656L56.5796 115.641Z" fill="#214461"/>
<path fill-rule="evenodd" clip-rule="evenodd" d="M19.2122 90.9406L19.6484 91.3587C20.427 90.7306 31.1851 88.6251 30.7914 86.6567L19.2122 90.9406Z" fill="#E9CEA9"/>
<path fill-rule="evenodd" clip-rule="evenodd" d="M88.5229 77.2647C88.5229 75.2601 87.4556 70.7916 87.8352 67.6921C88.1149 65.4082 88.8698 63.3441 89.8983 61.3103C91.1101 58.9141 92.8074 54.9673 94.4828 52.8773C95.125 52.0761 95.9432 50.8029 96.4812 50.0718C93.3145 51.8995 90.9189 56.9708 89.3115 60.1945C87.4825 63.8624 86.737 66.7736 87.4583 70.7811C87.6724 71.9704 88.3205 76.1577 88.5229 77.2647Z" fill="#E16C35"/>
<path fill-rule="evenodd" clip-rule="evenodd" d="M53.8056 110.818C53.8139 110.756 53.8127 110.528 53.8149 110.518C53.8712 110.256 53.7637 110.364 53.9821 110.215C52.9649 106.815 52.9333 104.322 56.5812 102.936L56.5525 102.19C55.8838 102.229 54.7477 102.807 54.1961 103.198C53.4928 103.696 53.1693 104.271 53.0674 105.143C53.3258 104.06 54.443 103.1 55.5909 102.983C54.3646 103.406 53.3878 104.804 53.1902 106.093C53.046 107.034 53.2321 110.116 53.8056 110.818Z" fill="#E16C35"/>
<path fill-rule="evenodd" clip-rule="evenodd" d="M53.8056 110.818C53.7308 111.802 55.4571 114.77 56.5612 115.021L56.534 114.721L56.5162 114.597C55.4219 114.048 54.2882 111.396 53.9821 110.215C53.7637 110.364 53.8712 110.256 53.8149 110.518C53.8127 110.528 53.8139 110.756 53.8056 110.818Z" fill="#22415A"/>
<path fill-rule="evenodd" clip-rule="evenodd" d="M70.5844 83.9323L66.9908 84.0344C65.1491 84.051 54.5583 83.1412 54.023 84.9194C53.3919 87.0162 54.4314 93.738 53.888 95.9894L53.9194 96.802L53.8833 102.001L53.912 102.747L53.847 114.408L53.8648 114.532L53.9104 115.452L54.4396 116.467L54.3115 116.12L53.847 117.692L54.0113 118.245L49.8547 115.023L49.3767 115.012L55.9961 119.991L57.3691 119.995L94.5003 120.045C94.8057 119.948 94.592 119.966 94.744 120.051C97.5124 119.208 102.363 121.695 103.076 118.083C102.966 118.007 102.984 118.207 102.996 117.895L102.607 116.307L102.721 116.566L102.999 113.188L103.036 102.582L102.996 102.19L102.991 98.4733L102.994 97.5302C102.784 93.934 103.001 89.7251 102.987 86.0548C102.974 82.5385 94.6421 84.0605 92.1715 84.0328L89.3874 83.8088L70.5844 83.9323Z" fill="#B1BECB"/>
<path fill-rule="evenodd" clip-rule="evenodd" d="M135.281 129.482L145.275 129.678L145.341 128.913L137.042 128.327L135.281 129.482Z" fill="#FDFDFD"/>
<path fill-rule="evenodd" clip-rule="evenodd" d="M127.573 144.754L127.598 145.067L129.703 145.038C133.825 145.072 137.992 144.998 142.12 144.984C143.581 144.979 153.973 145.107 154.467 144.8C154.268 144.434 130.16 144.983 127.573 144.754Z" fill="#354758"/>
<path fill-rule="evenodd" clip-rule="evenodd" d="M141.198 142.893L125.145 142.97C124.958 143.294 128.767 143.173 129.232 143.171L150.68 143.1C151.441 143.098 154.114 143.205 154.639 142.973C154.492 142.718 142.515 142.889 141.198 142.893Z" fill="#223E5B"/>
<path fill-rule="evenodd" clip-rule="evenodd" d="M154.422 147.416C154.109 146.977 153.49 147.184 152.923 147.177L126.681 147.199L126.587 147.398L154.422 147.416Z" fill="#223E5B"/>
<path fill-rule="evenodd" clip-rule="evenodd" d="M76.5006 31.939C74.5318 32.3231 75.8441 35.0543 77.947 34.6651C79.7908 34.3242 78.4368 31.561 76.5006 31.939Z" fill="#DC908D"/>
<path fill-rule="evenodd" clip-rule="evenodd" d="M16.6662 71.2073C17.0212 72.047 17.6249 73.3436 18.4889 73.7035C17.4976 72.2579 16.6913 70.8271 17.3348 69.0265C17.6305 68.1994 19.2152 65.6187 19.9549 65.2653L19.6297 64.7893C18.7562 65.7798 18.1596 66.194 17.3688 67.4071C16.4804 68.7697 16.2773 69.6137 16.6662 71.2073Z" fill="#ECCEA3"/>
<path fill-rule="evenodd" clip-rule="evenodd" d="M117.789 110.47C118.262 110.347 118.904 110.028 119.376 109.836C119.906 109.619 120.473 109.435 121.015 109.235C121.701 108.98 123.836 108.213 124.449 108.164C123.993 107.895 121.561 107.665 120.933 107.725L117.789 110.47Z" fill="#214360"/>
<path fill-rule="evenodd" clip-rule="evenodd" d="M26.8527 72.71C26.5623 72.3206 25.8282 72.1223 25.3518 72.0017C24.3408 72.2278 23.4514 75.6015 23.5822 76.6257C24.2883 75.1994 25.3789 73.4771 26.8527 72.71Z" fill="#EC751B"/>
<path fill-rule="evenodd" clip-rule="evenodd" d="M88.8333 34.684L89.0446 32.509C87.1272 31.5063 86.1564 33.4771 86.4864 34.5536C86.7168 35.3056 87.7474 35.3973 88.8333 34.684Z" fill="#DC908D"/>
<path fill-rule="evenodd" clip-rule="evenodd" d="M134.191 68.7023C134.947 67.8403 134.521 64.5671 133.062 65.7697C132.383 66.3288 132.262 66.7551 132.87 67.4445C133.009 67.602 134.122 68.6722 134.191 68.7023Z" fill="#EB771F"/>
<path fill-rule="evenodd" clip-rule="evenodd" d="M126.059 85.1745L126.243 85.5212C128.12 82.5472 130.551 79.3154 132.592 76.2057C133.054 75.5006 132.988 75.2075 133.826 75.1479L132.871 75.0728C132.562 75.7846 131.701 76.9033 131.24 77.5902C130.678 78.4294 130.111 79.2801 129.532 80.1067C128.459 81.6383 126.96 83.6039 126.059 85.1745Z" fill="#E16C1E"/>
<path fill-rule="evenodd" clip-rule="evenodd" d="M11.1558 67.8213C11.154 68.3426 11.0412 68.9059 11.136 69.4043C11.3724 69.2848 11.8339 68.8447 12.1171 68.6297C12.4327 68.3901 12.8501 68.0832 13.2174 67.9388L11.4579 65.4641L11.1558 67.8213Z" fill="#EC9A09"/>
<path fill-rule="evenodd" clip-rule="evenodd" d="M12.8845 76.7385C12.9436 77.054 13.0355 77.2044 13.3333 77.3352C13.6688 76.8914 18.5065 75.3348 18.0452 74.3756C17.5531 74.0221 16.0274 75.1956 15.5059 75.4711C14.9835 75.747 13.3329 76.7002 12.8845 76.7385Z" fill="#EED2A5"/>
<path fill-rule="evenodd" clip-rule="evenodd" d="M130.956 99.3877L132.233 99.3617L128.769 96.3169L128.628 97.2597C129.066 97.7193 130.82 99.0031 130.956 99.3877Z" fill="#EED1A2"/>
<path fill-rule="evenodd" clip-rule="evenodd" d="M140.714 124.538C141.007 124.783 151.295 125.045 151.497 124.915C151.362 124.6 150.706 124.707 150.351 124.696L142.12 124.428C141.702 124.413 140.995 124.258 140.714 124.538Z" fill="#25425D"/>
<path fill-rule="evenodd" clip-rule="evenodd" d="M141.463 117.835C141.626 118.176 143.499 117.983 143.915 117.974L150.431 117.828C150.759 117.821 151.405 117.936 151.576 117.659C151.305 117.406 147.176 117.633 146.526 117.649C145.747 117.669 141.826 117.581 141.463 117.835Z" fill="#2A4562"/>
<path fill-rule="evenodd" clip-rule="evenodd" d="M90.7915 150.959C90.917 150.517 91.7665 148.958 92.0271 148.414C92.4455 147.541 92.8482 146.631 93.2491 145.747C93.9536 144.193 95.1564 142.005 95.6512 140.463C94.6949 141.801 90.9991 149.512 90.7915 150.959Z" fill="#474747"/>
<path fill-rule="evenodd" clip-rule="evenodd" d="M87.6487 51.9837C88.6249 51.5744 88.4411 47.9866 89.2516 46.1683C89.4814 45.653 90.0616 45.0477 90.1926 44.7039C89.1043 45.1253 88.496 46.5842 88.2879 47.6417C88.2234 47.9689 87.6432 51.9472 87.6487 51.9837Z" fill="#E16C35"/>
<path fill-rule="evenodd" clip-rule="evenodd" d="M141.661 122.204C141.967 122.479 145.938 122.498 146.608 122.52L151.069 122.684C151.457 122.699 151.379 122.778 151.525 122.528C151.284 122.323 149.601 122.346 149.187 122.331L144.185 122.157C143.621 122.135 142.023 121.925 141.661 122.204Z" fill="#2B445B"/>
<path fill-rule="evenodd" clip-rule="evenodd" d="M141.367 119.643C141.541 119.902 142.124 119.797 142.452 119.801L150.347 119.916C150.708 119.921 151.36 120.068 151.499 119.738C151.329 119.629 141.673 119.408 141.367 119.643Z" fill="#2B445B"/>
<path fill-rule="evenodd" clip-rule="evenodd" d="M84.8803 28.1914C83.9987 28.3028 83.4492 31.741 84.399 32.3189C84.7824 32.5519 85.1064 32.8194 84.8974 32.3543C84.624 31.7454 84.6221 31.5603 84.614 30.7004C84.6054 29.7961 84.8764 28.9013 84.8803 28.1914Z" fill="#DC908D"/>
<path fill-rule="evenodd" clip-rule="evenodd" d="M84.7136 36.7859C83.2043 37.3005 82.0314 37.5846 80.2835 36.6763C79.848 36.45 79.4901 35.9878 79.2085 35.8774C79.333 36.8724 80.6825 37.6709 82.0143 37.8275C83.3412 37.9835 84.6507 37.5008 84.7136 36.7859Z" fill="#DC908D"/>
<path fill-rule="evenodd" clip-rule="evenodd" d="M85.7043 28.099C86.0621 28.4996 88.4999 28.4891 88.9434 28.1733C88.8621 27.8518 89.0654 28.0872 88.7073 27.8427C88.189 27.489 86.4647 27.4403 85.963 27.7497C85.5894 27.9802 85.8048 27.7425 85.7043 28.099Z" fill="#25425D"/>
<path fill-rule="evenodd" clip-rule="evenodd" d="M11.1356 71.1383C11.1268 70.4347 10.9956 70.6168 11.4263 70.0921C11.6228 69.8526 11.8366 69.6141 12.0478 69.3891C12.2921 69.1288 13.297 68.3436 13.3901 68.1102L13.2175 67.939C12.8501 68.0834 12.4328 68.3903 12.1171 68.6299C11.8339 68.8449 11.3724 69.285 11.136 69.4045C11.0413 68.9061 11.1541 68.3428 11.1558 67.8215C10.9261 68.2283 10.9554 70.7615 11.1356 71.1383Z" fill="#EDD1A1"/>
<path fill-rule="evenodd" clip-rule="evenodd" d="M86.6644 29.8719C85.7475 30.3445 86.4772 31.7953 87.4836 31.2547C88.311 30.8105 87.6912 29.3425 86.6644 29.8719Z" fill="#233D54"/>
<path fill-rule="evenodd" clip-rule="evenodd" d="M78.4744 29.584C77.4959 29.8956 77.9492 31.4225 78.9629 31.0959C79.935 30.7826 79.4583 29.2707 78.4744 29.584Z" fill="#22415A"/>
<path fill-rule="evenodd" clip-rule="evenodd" d="M83.6065 134.106C83.496 133.955 83.7499 134.136 83.4414 133.946C82.3851 133.297 80.1984 132.65 78.8909 132.797C79.1767 132.974 80.7848 133.113 81.3548 133.293C82.0635 133.517 82.9712 133.967 83.6065 134.106Z" fill="#EBF4F9"/>
<path fill-rule="evenodd" clip-rule="evenodd" d="M114.701 143.127C113.969 143.033 112.049 143.039 111.326 143.157C111.966 143.403 113.742 143.374 114.524 143.193C114.86 143.115 114.597 143.18 114.701 143.127Z" fill="#455767"/>
<path fill-rule="evenodd" clip-rule="evenodd" d="M119.224 133.121C119.302 133.154 119.15 133.327 119.784 133.047C119.983 132.959 120.167 132.885 120.359 132.791C120.648 132.649 121.239 132.421 121.429 132.21C121.103 132.023 119.353 132.925 119.224 133.121Z" fill="#FAFCFB"/>
<path fill-rule="evenodd" clip-rule="evenodd" d="M97.2864 137.45C97.504 137.672 98.1196 137.426 98.4493 137.365C99.2774 137.213 99.4549 137.302 99.5642 136.977C99.2178 136.946 97.437 137.208 97.2864 137.45Z" fill="#F5F6F7"/>
<path fill-rule="evenodd" clip-rule="evenodd" d="M127.705 128.415C128.183 128.398 128.834 127.852 129.377 127.545C129.669 127.381 129.736 127.407 129.83 127.146C129.428 127.146 127.845 128.081 127.705 128.415Z" fill="#FAFCFB"/>
<path fill-rule="evenodd" clip-rule="evenodd" d="M101.724 136.58C101.975 136.751 101.981 136.676 102.31 136.579C102.9 136.403 103.847 136.315 104.056 136.095C103.756 135.874 102.03 136.308 101.724 136.58Z" fill="#F5F6F7"/>
<path fill-rule="evenodd" clip-rule="evenodd" d="M135.994 122.935C136.279 122.926 137.771 121.974 137.847 121.74C137.462 121.684 136.048 122.501 135.994 122.935Z" fill="#F5FBFD"/>
<path fill-rule="evenodd" clip-rule="evenodd" d="M123.485 131.047C123.744 131.141 124.202 130.752 124.469 130.599C124.655 130.493 124.804 130.399 124.985 130.285C125.489 129.969 125.342 130.104 125.425 129.865C125.04 129.891 124.688 130.172 124.334 130.383C124.088 130.529 123.448 130.765 123.485 131.047Z" fill="#F5FBFD"/>
<path fill-rule="evenodd" clip-rule="evenodd" d="M33.3337 121.543C33.5654 121.778 34.0367 121.851 34.364 122.009C34.6194 122.132 35.1429 122.531 35.2935 122.578C35.5595 122.179 34.319 121.72 34.0222 121.606C33.9224 121.567 33.806 121.518 33.7088 121.494C33.2082 121.374 33.4202 121.481 33.3337 121.543Z" fill="#F5F6F7"/>
<path fill-rule="evenodd" clip-rule="evenodd" d="M54.6772 129.724C54.8457 130.007 54.9952 129.838 55.7999 129.936C56.1616 129.981 56.7415 130.167 57.0142 129.962C56.7499 129.695 54.983 129.575 54.6772 129.724Z" fill="#F5F6F7"/>
<path fill-rule="evenodd" clip-rule="evenodd" d="M25.4617 116.916C25.5884 117.225 26.3801 117.21 27.0617 117.621C27.3616 117.802 27.3012 117.951 27.57 117.73C27.3462 117.341 25.8714 116.765 25.4617 116.916Z" fill="#EBF4F9"/>
<path fill-rule="evenodd" clip-rule="evenodd" d="M50.1851 129.397C50.4083 129.488 51.3633 129.497 51.8734 129.551C52.2362 129.588 52.2317 129.636 52.4877 129.475C52.1787 129.237 51.1602 129.237 50.7033 129.231C49.8393 129.221 50.3785 129.267 50.1851 129.397Z" fill="#F5FBFD"/>
<path fill-rule="evenodd" clip-rule="evenodd" d="M114.881 134.199C115.024 134.457 115.646 134.233 115.945 134.19C116.276 134.142 116.94 134.135 117.093 133.864C116.846 133.733 115.118 134.02 114.881 134.199Z" fill="#FAFCFB"/>
<path fill-rule="evenodd" clip-rule="evenodd" d="M106.232 135.611C106.632 135.639 107.074 135.515 107.48 135.44C107.669 135.405 107.858 135.376 108.047 135.343C108.703 135.23 108.447 135.173 108.489 135.073C108.042 135.067 107.652 135.185 107.209 135.254C106.212 135.408 106.315 135.339 106.232 135.611Z" fill="#F5F6F7"/>
<path fill-rule="evenodd" clip-rule="evenodd" d="M41.4199 126.345C41.4921 126.568 43.263 127.524 43.3457 127.545C43.4152 127.247 43.3628 127.313 43.023 127.114C42.6569 126.901 41.6871 126.21 41.4199 126.345Z" fill="#EBF4F9"/>
<path fill-rule="evenodd" clip-rule="evenodd" d="M29.6021 119.064C29.7379 119.329 30.262 119.449 30.5456 119.608C30.8137 119.759 31.2367 120.137 31.4057 120.204C31.4792 119.837 31.3604 119.799 30.6635 119.407C30.3775 119.245 29.9036 118.948 29.6021 119.064Z" fill="#EBF4F9"/>
<path fill-rule="evenodd" clip-rule="evenodd" d="M45.8838 128.401C46.1269 128.626 47.8461 128.933 48.0894 128.858C47.9734 128.579 46.176 128.214 45.8838 128.401Z" fill="#F5F6F7"/>
<path fill-rule="evenodd" clip-rule="evenodd" d="M63.3547 130.715C63.6334 130.89 64.1429 130.915 64.4954 130.976C64.792 131.027 65.3702 131.211 65.5603 130.974C65.353 130.819 63.637 130.596 63.585 130.601C63.1345 130.645 63.4958 130.575 63.3547 130.715Z" fill="#F5F6F7"/>
<path fill-rule="evenodd" clip-rule="evenodd" d="M110.684 134.77C110.934 134.892 111.971 134.767 112.357 134.726C112.71 134.689 112.659 134.753 112.788 134.516C112.536 134.413 111.625 134.539 111.191 134.572C110.819 134.601 110.83 134.537 110.684 134.77Z" fill="#F5F6F7"/>
<path fill-rule="evenodd" clip-rule="evenodd" d="M131.936 125.642C132.316 125.7 133.707 124.72 133.807 124.422C133.488 124.436 132.008 125.413 131.936 125.642Z" fill="#F5FBFD"/>
<path fill-rule="evenodd" clip-rule="evenodd" d="M67.8315 131.376C67.9669 131.629 68.1451 131.511 68.9005 131.631C69.2334 131.685 69.7054 131.858 69.9762 131.701C69.6717 131.43 68.1791 131.215 67.8315 131.376Z" fill="#F5F6F7"/>
<path fill-rule="evenodd" clip-rule="evenodd" d="M93.1887 138.303C93.4321 138.448 95.009 138.143 95.2256 137.971C94.9995 137.723 94.4891 137.933 94.1797 137.997C93.8896 138.057 93.3196 138.06 93.1887 138.303Z" fill="#F5F6F7"/>
<path fill-rule="evenodd" clip-rule="evenodd" d="M72.0195 132.12L72.4793 132.285C72.9978 132.37 73.7964 132.582 74.2168 132.554C74.0958 132.242 74.0508 132.339 73.2427 132.182L72.232 132.029C72.0452 132.06 72.1341 132.05 72.0195 132.12Z" fill="#F5F6F7"/>
<path fill-rule="evenodd" clip-rule="evenodd" d="M39.1712 124.969C39.07 124.612 38.8149 124.526 38.335 124.26C38.0284 124.09 37.6961 123.873 37.3621 123.819C37.3503 124.092 37.3819 124.012 37.684 124.162C38.2134 124.424 38.745 124.879 39.1712 124.969Z" fill="#F5F6F7"/>
<path fill-rule="evenodd" clip-rule="evenodd" d="M59 130.219L61.2503 130.579C61.1803 130.302 61.2491 130.351 60.86 130.287L59.6863 130.126C58.7844 130.026 59.0995 130.129 59 130.219Z" fill="#F5F6F7"/>
<path fill-rule="evenodd" clip-rule="evenodd" d="M83.3496 34.7312C83.8897 34.8865 84.8077 34.6605 84.8316 34.0623L83.3496 34.7312Z" fill="#DC908D"/>
<path fill-rule="evenodd" clip-rule="evenodd" d="M33.1338 142.425C31.497 142.356 25.2856 140.671 24.9304 143.092C25.9634 146.54 33.8916 154.312 37.3366 155.491C41.308 156.849 54.4309 154.287 58.9604 153.255L58.9725 152.179L54.3019 140.3C52.589 137.752 46.8056 140.658 44.3709 141.434C40.4774 142.674 37.2566 143.716 33.1338 142.425Z" fill="#1F354D"/>
</svg>
