<svg width="193" height="222" viewBox="0 0 193 222" fill="none" xmlns="http://www.w3.org/2000/svg">
<path d="M44.5052 109.225C55.3483 122.753 38.4657 148.591 19.5742 165.58C7.10862 190.918 18.5595 202.422 28.9958 202.422C36.5289 202.422 80.8872 204.606 87.9897 202.422C95.0921 200.238 138.577 148.98 138.577 144.028C138.577 139.077 157.855 96.5564 160.029 92.7703C162.203 88.9842 196.701 42.9683 172.929 21.271C149.158 -0.426365 94.9472 14.8637 69.1464 26.2221C43.3456 37.5804 22.3282 81.5576 44.5052 109.225Z" fill="#BBE6FF"/>
<path d="M65.0835 191.692C59.5012 192.684 28.816 195.779 14.1712 197.203C9.13167 200.647 9.64854 203.678 14.1712 207.123C18.6939 210.567 36.5261 211.118 48.1558 211.118C59.7855 211.118 83.135 209.383 94.7647 209.383C106.394 209.383 129.047 209.603 142.615 211.118C156.183 212.634 187.195 204.643 181.897 197.203C176.599 189.763 134.474 186.043 121.811 186.043C109.147 186.043 72.0613 190.452 65.0835 191.692Z" fill="#C9DCEF"/>
<path fill-rule="evenodd" clip-rule="evenodd" d="M56.7908 156.694C56.8303 157.304 58.3545 156.499 58.9409 156.3C59.7474 156.026 60.564 155.793 61.3881 155.598C62.5608 155.32 69.6136 155.628 69.7013 155.598L64.4235 131.637C61.2231 130.587 56.2565 130.723 52.8694 131.637L53.5595 154.425C54.4888 155.044 56.7301 155.398 56.7908 156.694Z" fill="#FCFBFB"/>
<path fill-rule="evenodd" clip-rule="evenodd" d="M57.0339 164.481C57.3073 164.474 56.6701 164.555 56.2246 164.621L53.7569 165.001L53.3529 179.157L53.1788 179.153C52.3941 179.561 44.6007 179.163 43.1492 179.089C39.8985 178.923 36.858 178.242 33.843 178.014C34.14 182.061 37.429 187.769 41.0491 189.644C41.0849 189.639 46.9335 186.025 47.8206 185.581C49.0355 184.973 50.3316 184.39 51.6021 183.915C52.1593 183.706 53.1078 183.341 53.6789 183.281C54.3515 183.21 55.4018 183.896 55.1653 184.33L58.4891 186.923C59.2123 186.1 63.1309 184.888 64.175 184.808C66.1673 184.656 68.2876 185.946 69.7875 187.156C72.2147 189.113 76.8524 192.764 76.5081 196.22L76.7181 195.302C77.2104 195.102 83.9925 194.331 85.1504 194.164C88.0523 193.744 90.0046 193.473 92.561 191.917C96.2574 189.666 100.496 185.643 103.922 183.808C101.854 186.577 97.6427 189.684 95.1882 192.346C93.984 193.652 92.1094 195.216 90.7546 196.428C88.5801 198.373 87.7798 198.428 85.443 199.701C90.8181 199.712 108.812 200.579 112.728 198.147C116.154 196.02 116.786 191.257 114.459 188.08C112.561 185.488 107.429 184.114 104.359 183.517C106.909 180.241 110.533 180.321 110.358 174.096C110.246 170.123 107.748 166.601 104.093 165.111C100.96 163.739 92.0661 163.881 88.2395 163.594C86.6069 163.471 72.5774 162.38 72.305 162.224C71.8374 162.39 71.7001 162.396 71.2516 162.208L67.9562 162.223L57.0339 164.481Z" fill="#6D96AD"/>
<path fill-rule="evenodd" clip-rule="evenodd" d="M60.5445 163.372L68.7671 162.219L82.0494 162.701L98.2119 164.063C98.2119 164.063 80.7114 164.425 74.8811 163.563C69.0509 162.701 57.3723 165.087 57.3723 165.087L59.4121 163.989L60.5445 163.372Z" fill="#496695"/>
<path fill-rule="evenodd" clip-rule="evenodd" d="M40.1868 103.597L43.6347 100.23C43.9006 94.4522 45.2159 84.0622 45.8325 78.2241C46.4764 72.1282 47.1348 66.034 47.7726 59.9373C48.4089 53.8558 49.0873 47.7791 49.7077 41.6963C50.0173 38.6611 50.3623 35.629 50.6696 32.5934C50.8135 31.1731 51.111 29.3399 51.1509 27.9661C51.2082 25.9821 48.9814 25.906 48.3967 26.8569C47.9236 27.6261 43.4109 71.3266 41.4103 91.0064C40.9665 95.3735 40.3117 102.327 40.1868 103.597Z" fill="#2E567A"/>
<path fill-rule="evenodd" clip-rule="evenodd" d="M42.9433 97.4623C38.981 103.762 33.5672 102.188 31.8516 106.856C28.1869 116.827 26.5269 114.845 23.1446 117.504C14.7583 124.095 26.0898 132.459 21.1254 137.275C16.2149 142.038 7.11874 149.673 11.8001 158.007C14.6886 163.149 25.1809 166.724 31.0889 165.579L31.4546 163.857C28.8848 163.415 26.0959 162.173 23.7094 161.111C21.5266 160.139 22.6501 154.074 22.8871 152.068C23.9157 143.36 28.1008 128.651 34.0696 122.085C37.8337 117.944 36.7568 122.512 40.3777 123.234C44.238 124.004 43.0608 119.918 46.3991 119.019L50.031 118.445C53.2805 117.32 52.6454 111.811 53.2807 110.877C53.2055 108.824 54.7314 108.073 56.148 107.045C58.8799 105.063 56.7675 104.491 58.7193 102.816C60.1784 101.564 61.9333 100.587 63.3138 99.4745C65.5773 97.6507 65.0147 96.8622 65.8969 95.4543C67.6264 96.4249 69.3608 101.467 68.5441 103.567L67.7602 102.551C67.4265 102.616 67.3796 102.814 66.9697 103.339L67.046 103.399C67.7556 105.014 69.0082 102.96 67.3196 107.288C66.1719 110.229 65.4658 112.393 62.4561 114.134C60.359 115.347 59.2625 115.189 57.2032 115.092L57.5936 118.142C57.4924 119.054 59.1178 121.01 59.8755 121.51C60.8111 122.128 61.7969 122.996 62.6472 123.713C63.8952 124.767 66.5454 125.181 66.5146 126.884L72.6829 137.795C84.142 127.596 70.1914 125.314 73.7343 120.744C76.247 117.502 76.5278 114.988 74.1485 111.498C71.1076 107.039 77.3661 104.172 75.8369 95.8375C75.0766 93.6944 72.7784 91.8148 67.9738 92.3817C67.8238 92.3994 67.9289 92.0766 67.904 91.9099C67.6197 90.0061 65.7454 86.4915 59.2064 86.354C55.926 86.171 53.0724 86.7598 50.031 88.0554C44.5961 92.3817 45.03 94.338 42.9433 97.4623Z" fill="#334160"/>
<path fill-rule="evenodd" clip-rule="evenodd" d="M53.1633 134.035C53.0677 134.706 53.2588 132.79 53.1633 134.035V134.035ZM63.8769 137.176C64.493 139.198 67.021 143.75 67.0139 145.248L67.8706 155.331L69.3981 156.058C69.7944 155.883 70.7029 156.591 71.1456 156.742L71.1778 156.614L71.0335 156.508L71.7744 156.629C72.9479 154.152 70.1918 142.531 69.3433 139.79L66.381 129.683L66.2836 129.535L62.9778 133.971L63.1376 134.173C61.8233 132.544 66.2691 127.181 66.4119 126.461C66.4428 124.759 64.261 124.545 63.013 123.492C62.1627 122.774 61.2672 122.104 60.3316 121.486C59.5739 120.986 57.7218 120.28 57.8231 119.368L58.2573 122.06V126.839C59.3258 127.138 62.6806 132.313 62.8792 133.699L63.8769 137.176ZM53.0502 132.822L52.7305 127.757L52.6118 128.139L51.5251 127.58C51.8335 127.004 52.3504 126.88 52.9708 126.976L52.7716 124.693L51.6837 120.707L51.1903 118.157L47.0237 118.395C46.8179 118.535 46.5484 118.591 46.546 118.592C43.2078 119.49 44.1721 123.548 40.3119 122.778C36.6909 122.056 37.6074 117.141 33.8434 121.282C27.8745 127.849 23.3374 143.554 22.3088 152.262C22.0719 154.268 21.4092 160.211 23.592 161.183C25.9785 162.245 28.7674 163.487 31.3373 163.929C38.1665 165.006 42.1218 164.479 48.7334 163.955C49.6506 163.882 50.5937 163.833 51.5016 163.69C53.1206 163.433 52.7286 163.069 53.6387 162.666L53.6396 165.074L56.1073 164.693L56.4375 164.65L56.9166 164.553L67.8389 162.295L56.4974 161.867L54.4226 161.835L56.791 156.694C56.7302 155.398 54.489 155.044 53.5597 154.425L53.6122 148.946C53.645 148.359 53.4186 147.958 53.4791 144.632L53.2715 135.171L53.0502 132.822Z" fill="#FDA955"/>
<path fill-rule="evenodd" clip-rule="evenodd" d="M139.158 126.483C140.584 126.504 140.355 127.739 140.744 129.066C141.661 132.187 142.955 135.027 143.805 138.164C144.982 142.504 145.065 147.757 146.38 151.771C147.101 153.973 148.278 154.951 149.515 156.771C152.803 161.606 154.358 169.805 155.541 175.427L163.959 175.88L164.028 175.726L163.886 173.76L164.165 175.751C165.32 176.212 165.672 175.341 165.929 176.702H166.075C166.124 170.798 166.929 166.108 164.812 160.317C164.033 158.185 163.102 156.046 162.44 153.88C161.494 150.787 162.603 149.395 161.573 146.322C159.673 140.654 159.864 136.471 159.683 130.59C159.513 125.101 159.091 119.741 158.29 114.308L156.671 115.297L156.602 115.392C156.198 115.629 155.96 115.764 155.48 115.741C155.493 116.08 155.317 116.081 155.299 115.841L154.112 115.773C154.151 115.873 153.826 115.9 153.607 115.794C153.136 115.491 151.579 115.559 149.196 113.89C148.265 113.238 147.684 112.678 146.852 111.93C146.133 111.285 144.246 110.951 144.081 110.508L143.923 110.514L137.028 110.466C137.034 112.27 136.677 125.991 138.918 126.29C138.946 126.196 138.321 123.505 138.249 123.043C137.908 120.856 137.168 111.567 137.785 110.58C137.965 110.68 137.802 118.032 137.867 119.019C137.954 120.365 138.249 122.181 138.468 123.02C138.577 123.681 139.364 126.09 139.158 126.483Z" fill="#315679"/>
<path fill-rule="evenodd" clip-rule="evenodd" d="M122.138 112.601L121.708 118.781C122.227 128.204 123.18 136.322 125.617 145.472C126.378 148.33 126.105 149.594 126.41 152.351C126.648 154.505 127.102 156.736 127.54 158.863C128.231 162.222 129.19 168.391 130.34 171.355C130.486 171.235 134.711 173.931 135.382 174.196C136.385 174.593 140.367 175.546 141.233 175.605L141.388 175.538C142.534 169.086 142.989 163.808 141.35 157.391C141.004 156.037 140.616 154.689 140.204 153.357C139.717 151.785 141.258 151.977 141.097 149.696C140.918 147.174 138.993 143.605 138.997 141.531C138.792 141.462 136.474 134.221 136.146 133.388C134.812 130.004 132.775 126.902 137.675 126.204L138.254 126.068C138.232 125.625 137.624 123.642 137.484 122.851C136.776 118.847 136.673 114.494 136.726 110.451L129.933 109.504C129.596 110.465 127.559 111.367 126.59 111.693C125.668 112.003 123.092 112.588 122.138 112.601Z" fill="#315679"/>
<path fill-rule="evenodd" clip-rule="evenodd" d="M91.5634 36.2438L84.7997 35.5855L82.1253 53.4594L50.2603 49.7987L49.2415 58.2876L80.7174 61.9102L78.1199 79.8237L85.454 80.6233L87.8566 62.8001L119.29 66.1463C119.681 64.0387 120.189 60.0796 120.53 57.7664L89.1208 54.3205L91.5634 36.2438Z" fill="#F4625B"/>
<path fill-rule="evenodd" clip-rule="evenodd" d="M80.8354 159.312L104.726 163.677C106.379 161.211 108.579 156.134 110.012 153.268C111.723 149.847 113.644 146.346 115.235 142.892C116.639 139.845 113.858 139.852 111.697 139.304C109.612 138.776 107.524 138.252 105.437 137.727C102.702 137.038 95.2089 134.781 92.9194 134.655C91.3304 134.659 89.948 138.956 89.3429 140.312C88.4055 142.413 87.4539 144.554 86.4749 146.634C85.866 147.927 80.9404 159.217 80.8354 159.312Z" fill="#B1BECB"/>
<path fill-rule="evenodd" clip-rule="evenodd" d="M106.348 71.1936C103.629 69.1909 99.917 65.482 96.231 66.3592L114.368 79.6835C115.676 76.2943 117.795 78.1157 106.348 71.1936Z" fill="#F4625B"/>
<path fill-rule="evenodd" clip-rule="evenodd" d="M52.3355 171.874C51.9894 171.359 52.0951 170.695 52.8552 170.883C53.0847 171.4 53.038 172.004 52.3355 171.874ZM31.0701 166.054C30.5628 167.605 30.1232 171.78 29.9223 173.567C29.338 178.765 30.6285 176.447 33.8431 178.014C36.858 178.242 39.8985 178.923 43.1492 179.089C44.6007 179.163 52.3942 179.561 53.1789 179.153L53.3529 179.157L53.7569 165.001C52.8325 164.962 49.7321 165.487 48.5088 165.592C46.6261 165.752 44.7466 165.87 42.8603 165.979C38.8053 166.212 35.0093 165.946 31.0701 166.054Z" fill="#FDA955"/>
<path fill-rule="evenodd" clip-rule="evenodd" d="M80.6581 50.5705L82.9199 35.3955L54.4609 32.1546L80.6581 50.5705Z" fill="#294886"/>
<path fill-rule="evenodd" clip-rule="evenodd" d="M78.4639 64.0443L49.4165 76.4943L49.4174 76.5424L76.2228 79.6491L78.4639 64.0443Z" fill="#294886"/>
<path fill-rule="evenodd" clip-rule="evenodd" d="M113.202 83.7521L113.325 82.9736L89.3828 65.5232L87.3354 80.9083L113.202 83.7521Z" fill="#294886"/>
<path fill-rule="evenodd" clip-rule="evenodd" d="M91.3279 52.0522L118.355 39.3226C118.326 39.2337 99.7806 37.1677 98.0495 36.9838C97.1295 36.8861 93.5352 36.0088 93.3606 37.0488C93.0952 38.6306 92.9222 40.4271 92.7061 42.0431C92.2618 45.3656 91.8317 48.7423 91.3279 52.0522Z" fill="#294886"/>
<path fill-rule="evenodd" clip-rule="evenodd" d="M69.0423 139.231L69.0647 138.776C69.3549 139.155 72.6494 150.613 73.1607 151.972C73.9969 154.195 75.921 158.077 77.9214 159.136L79.6793 159.192L83.1493 150.434L82.8493 150.209C81.562 150.189 79.3495 149.713 78.7835 148.544C78.1688 147.274 77.5368 146.049 76.8785 144.802C76.1924 143.502 73.2027 138.31 72.9604 137.382L66.5292 126.389C66.3864 127.108 62.3486 131.179 62.7966 133.125L63.2206 134.634L66.2146 129.946L66.312 130.094L69.0423 139.231Z" fill="#E16C35"/>
<path fill-rule="evenodd" clip-rule="evenodd" d="M66.779 105.692C67.9239 105.204 67.9774 106.86 67.1684 107.178C66.1863 107.564 65.8244 106.098 66.779 105.692ZM61.0797 104.22C62.0331 103.698 62.6296 105.241 61.7129 105.635C60.7603 106.044 60.2435 104.678 61.0797 104.22ZM58.7195 102.816C59.1019 102.243 60.8976 101.761 61.5902 101.583C62.255 101.412 65.0149 101.138 63.4981 102.524C62.7923 102.652 61.8823 102.373 60.8936 102.508C60.4211 102.573 59.0502 102.952 58.7195 102.816ZM52.8985 110.015C53.3818 112.597 56.6261 114.9 57.5049 115.234C59.1111 115.667 60.4396 115.908 62.5367 114.695C65.5464 112.953 66.5303 110.334 67.678 107.393C69.3666 103.066 67.7558 105.014 67.0462 103.399L66.9699 103.339C67.3798 102.814 67.4267 102.616 67.7604 102.551L68.846 103.958C69.6628 101.859 67.5437 95.6135 65.8141 94.6428C64.9319 96.0508 65.5775 97.6507 63.314 99.4745C61.9335 100.587 59.9519 100.768 58.4929 102.02C56.541 103.696 58.5794 104.76 55.8476 106.742C54.431 107.77 52.8234 107.962 52.8985 110.015Z" fill="#FDDBCC"/>
<path fill-rule="evenodd" clip-rule="evenodd" d="M58.4893 186.923L59.9862 187.554L60.5388 187.829L62.5786 189.012C63.1492 189.332 63.8822 189.784 64.3595 190.2C64.6295 190.435 65.8026 191.589 65.928 191.631L68.1314 195.942L67.798 198.182C69.7973 198.173 76.013 200.072 76.5082 196.22C76.8525 192.764 72.2148 189.114 69.7876 187.156C68.2877 185.946 66.1675 184.656 64.1751 184.808C63.131 184.888 59.2124 186.1 58.4893 186.923Z" fill="#DAE1DE"/>
<path fill-rule="evenodd" clip-rule="evenodd" d="M76.5082 196.22C76.013 200.072 69.7973 198.173 67.798 198.182L67.2432 198.253C70.2237 199.054 72.9651 199.432 76.0243 199.778C80.1258 200.241 81.4308 200.127 85.4431 199.701C87.78 198.428 88.5802 198.373 90.7547 196.428C92.1095 195.216 93.9841 193.652 95.1884 192.346C97.6429 189.684 101.855 186.577 103.922 183.808C100.496 185.643 96.2575 189.666 92.5612 191.917C90.0047 193.473 88.0525 193.745 85.1505 194.164C83.9926 194.331 77.2105 195.102 76.7182 195.302L76.5082 196.22Z" fill="#3F6881"/>
<path fill-rule="evenodd" clip-rule="evenodd" d="M155.763 176.82L155.239 176.94C156.069 179.459 156.417 183.313 158.356 185.137C162.461 185.904 162.032 185.82 165.856 184.623L166.571 184.151C166.67 182.41 166.586 179.828 166.595 177.931C166.604 176.2 166.757 176.976 166.046 176.304H165.901L155.763 176.82Z" fill="#476D91"/>
<path fill-rule="evenodd" clip-rule="evenodd" d="M131.145 175.815C130.454 176.076 130.514 175.133 130.609 177.553L130.84 181.913C130.939 183.553 130.892 182.666 131.516 183.387C135.314 184.054 135.367 184.408 139.254 183.616C140.43 183.073 140.187 183.319 140.555 181.873C140.737 181.158 140.907 180.43 141.065 179.708C141.227 178.97 141.385 178.236 141.535 177.494C142.009 175.151 141.593 176.419 141.388 175.538L141.233 175.605L131.145 175.815Z" fill="#476D91"/>
<path fill-rule="evenodd" clip-rule="evenodd" d="M105.021 53.6915L120.82 55.3251L120.917 55.3183L122.29 45.7731L105.021 53.6915Z" fill="#294886"/>
<path fill-rule="evenodd" clip-rule="evenodd" d="M52.6422 123.346L52.8413 125.629L52.6011 126.41L52.9208 131.475C54.3457 131.605 56.2374 131.214 58.1194 131.423C59.8413 131.614 61.1171 131.978 62.7497 132.353C62.5511 130.966 60.7513 122.767 59.6828 122.467L52.6422 123.346Z" fill="#FCFBFB"/>
<path fill-rule="evenodd" clip-rule="evenodd" d="M64.7704 62.6599L48.9684 60.7368L47.9534 69.9058L64.7704 62.6599Z" fill="#294886"/>
<path fill-rule="evenodd" clip-rule="evenodd" d="M115.676 76.2942L118.644 69.9338L118.83 68.5773L102.784 66.9565L115.676 76.2942Z" fill="#294886"/>
<path fill-rule="evenodd" clip-rule="evenodd" d="M41.0492 189.644C41.1736 189.959 30.3406 200.621 35.5869 201.689L38.6448 197.458L43.3991 191.044C44.7975 189.048 52.6758 185.175 55.1653 184.33C55.4018 183.896 54.3515 183.21 53.6789 183.281C53.1078 183.342 52.1594 183.706 51.6022 183.915C50.3316 184.39 49.0356 184.973 47.8207 185.581C46.9335 186.025 41.085 189.639 41.0492 189.644Z" fill="#FED9AC"/>
<path fill-rule="evenodd" clip-rule="evenodd" d="M50.5955 47.3633L65.427 49.128L51.5027 39.3458L50.5955 47.3633Z" fill="#294886"/>
<path fill-rule="evenodd" clip-rule="evenodd" d="M56.6963 159.972L71.5941 160.379L72.1216 160.375C73.9764 160.823 78.5403 160.582 80.8146 160.772C83.4608 160.994 86.16 161.469 88.7852 161.89C91.2827 162.292 103.23 164.487 104.432 164.544L104.726 163.677L80.8354 159.312L79.6794 159.192L77.9215 159.136L76.6907 159.166L73.8978 159.251L73.328 159.241L70.1152 159.158L69.8857 159.151L66.6325 158.907L66.5108 158.965L56.982 158.845L56.6963 159.972Z" fill="#28445B"/>
<path fill-rule="evenodd" clip-rule="evenodd" d="M138.997 141.531L139.133 128.779L139.158 126.483C139.364 126.09 138.577 123.681 138.468 123.02C138.249 121.687 138.149 120.365 138.061 119.02C137.996 118.032 137.965 110.68 137.785 110.58C137.168 111.567 137.814 120.669 138.154 122.856C138.226 123.318 138.946 126.196 138.918 126.29C137.133 126.054 137.034 112.27 137.028 110.466L136.726 110.451C136.673 114.494 136.685 118.645 137.393 122.649C137.533 123.439 138.232 125.625 138.254 126.068L137.523 125.855C132.622 126.554 134.152 129.896 135.486 133.28C135.814 134.113 138.792 141.462 138.997 141.531Z" fill="#1F3953"/>
<path fill-rule="evenodd" clip-rule="evenodd" d="M97.9185 52.7957L97.9349 52.8664C97.9436 52.9543 101.742 53.33 102.077 53.2676C102.503 53.1879 111.021 49.2352 111.759 48.8864L121.374 44.4405C122.729 43.8187 123.113 42.8947 122.906 41.3245L97.9185 52.7957Z" fill="#F4625B"/>
<path fill-rule="evenodd" clip-rule="evenodd" d="M73.1025 49.7869L52.0577 34.8397C51.822 35.2972 51.8118 36.2465 51.7376 36.8336C51.6234 37.7357 51.8676 37.6199 52.573 38.1141C56.9792 41.2016 61.6992 44.6689 66.0943 47.6477C66.737 48.0833 68.2396 49.2919 68.8936 49.4298C69.5889 49.5764 72.5504 49.9587 73.1025 49.7869Z" fill="#F4625B"/>
<path fill-rule="evenodd" clip-rule="evenodd" d="M43.3992 191.044L47.8743 190.813C48.5263 190.508 48.7246 189.598 50.0169 190.005C51.037 190.327 50.997 191.112 51.2518 191.934L54.4145 188.299L54.7086 188.55L53.0651 190.705C53.6024 190.831 54.0639 190.787 54.609 190.712L59.9862 187.554L58.4892 186.923L55.1653 184.33C52.6759 185.175 44.7975 189.047 43.3992 191.044Z" fill="#284864"/>
<path fill-rule="evenodd" clip-rule="evenodd" d="M56.9082 156.622L54.5398 161.763L56.6146 161.795L56.6962 159.972L56.9819 158.845L66.5106 158.965C66.0353 158.793 65.3447 158.087 65.0871 157.668C65.3712 157.835 66.5024 158.666 66.6323 158.907L69.8856 159.151C69.3714 158.652 68.9745 158.139 68.3405 157.667C67.8304 157.287 67.0572 156.887 66.6906 156.404C67.5359 156.612 69.8332 158.457 70.1151 159.158L73.3279 159.241C72.2392 158.665 72.276 158.47 71.4973 157.569C70.9304 156.913 70.3658 156.383 69.5153 155.986L67.9878 155.259L67.0111 154.967C66.9233 154.997 62.6781 155.248 61.5055 155.526C60.6814 155.721 59.8648 155.954 59.0583 156.228C58.4719 156.427 56.9477 157.232 56.9082 156.622Z" fill="#FDDBCC"/>
<path fill-rule="evenodd" clip-rule="evenodd" d="M42.3915 200.51C42.1851 200.146 42.0339 198.722 41.9496 198.197C41.823 197.408 41.4857 196.415 42.3893 196.204C42.776 196.701 42.93 197.837 42.9972 198.476C43.1047 199.499 43.4601 200.174 42.3915 200.51ZM43.3991 191.044L38.6448 197.458C39.7799 198.205 40.1984 201.007 38.984 202.068L39.3924 202.153L44.5835 200.515L44.8619 199.448L43.503 200.084C43.4756 199.333 43.2732 195.876 43.7427 195.55C44.9059 194.743 45.2031 197.909 45.3393 198.562C46.3921 197.615 45.779 196.851 45.617 195.658C45.5409 195.099 45.7503 194.531 46.324 194.78C46.7389 194.96 46.6943 195.665 47.0221 195.901C47.1239 195.283 46.8837 194.713 47.2445 194.485C47.7459 194.168 48.0732 194.785 47.8131 193.695C47.4112 192.012 47.7631 192.145 47.8743 190.813L43.3991 191.044Z" fill="#1F354D"/>
<path fill-rule="evenodd" clip-rule="evenodd" d="M46.1233 199.765C46.2135 199.224 46.2554 198.583 46.9019 198.506L47.3357 199.335C47.6294 199.385 47.5729 199.245 47.6072 199.76C47.741 201.767 45.4803 201.041 46.1233 199.765ZM48.4146 196.115C48.2072 195.82 48.2029 195.613 48.391 195.355C48.5291 195.599 48.536 195.856 48.4146 196.115ZM49.1894 193.58C48.8002 192.926 48.7119 191.247 49.7356 191.367C50.125 191.875 49.6084 193.242 49.1894 193.58ZM47.8743 190.813C47.7631 192.145 47.4112 192.012 47.8131 193.695C48.0732 194.785 47.7459 194.168 47.2445 194.485C46.8837 194.713 47.1239 195.283 47.0221 195.901C46.6943 195.665 46.7389 194.96 46.324 194.78C45.7503 194.531 45.5409 195.099 45.617 195.658C45.779 196.851 46.3921 197.615 45.3393 198.562C45.2032 197.909 44.9059 194.743 43.7427 195.55C43.2732 195.876 43.4756 199.333 43.503 200.084L44.8619 199.448L44.5835 200.515C45.0873 200.932 45.359 203.5 47.7859 202.224C49.4749 201.336 49.0239 200.085 49.5518 198.847C49.59 197.451 50.31 197.753 49.8637 196.304C49.4463 194.948 49.47 195.457 50.2137 194.21C50.7925 193.239 52.1258 191.454 53.0107 190.791L53.065 190.705L54.7085 188.551L54.4145 188.299L51.2517 191.934C50.9969 191.112 51.0369 190.327 50.0169 190.005C48.7245 189.598 48.5262 190.508 47.8743 190.813Z" fill="#6E98AD"/>
<path fill-rule="evenodd" clip-rule="evenodd" d="M141.028 194.991L130.468 194.736L130.019 194.708L122.015 194.321L120.364 194.551C116.906 195.6 121.905 198.336 126.493 198.432C128.465 198.588 135.623 197.487 137.597 197.642C138.467 197.71 139.72 197.918 140.413 197.345C140.998 196.862 141.363 195.661 141.028 194.991Z" fill="#F4F4F4"/>
<path fill-rule="evenodd" clip-rule="evenodd" d="M52.8372 193.574C53.7482 193.659 53.8236 197.525 53.472 198.168C52.4374 198.164 52.7337 197.154 52.6918 196.229C52.6635 195.603 52.4666 194.032 52.8372 193.574ZM51.5549 193.237C52.0874 193.84 52.5037 197.566 52.0913 198.203C49.7848 199.57 49.9172 193.596 51.5549 193.237ZM49.5518 198.847L59.0759 198.062C59.0896 197.839 59.3696 197.219 59.4354 196.837C59.5308 196.285 59.4797 195.782 59.3404 195.244C59.1512 194.514 58.5996 193.402 58.123 192.821C56.3806 190.699 54.7361 191.271 53.0107 190.791C52.1258 191.454 50.7925 193.239 50.2137 194.21C49.47 195.457 49.4463 194.948 49.8637 196.304C50.31 197.753 49.59 197.451 49.5518 198.847Z" fill="#1F354D"/>
<path fill-rule="evenodd" clip-rule="evenodd" d="M71.2813 63.5497C71.6984 63.2592 68.2443 62.9929 67.99 62.9947C67.1786 63.0007 65.6575 63.7778 64.8512 64.1329C62.8544 65.0124 60.8425 65.8652 58.8376 66.7264C56.8094 67.5976 54.7863 68.4791 52.7589 69.3518C51.022 70.0993 47.6591 70.6934 47.5925 72.8841C47.5528 74.1883 49.2024 72.9883 50.0741 72.6072L59.1078 68.7264C61.3033 67.7724 69.9629 64.4676 71.2813 63.5497Z" fill="#F4625B"/>
<path fill-rule="evenodd" clip-rule="evenodd" d="M72.305 162.224C72.5774 162.38 86.607 163.471 88.2395 163.594C92.0662 163.881 100.96 163.739 104.093 165.111L104.432 164.544C103.23 164.487 91.2827 162.292 88.7852 161.89C86.1601 161.469 83.4608 160.994 80.8146 160.772C78.5403 160.582 73.9764 160.823 72.1216 160.375C72.4976 160.631 72.8916 160.627 72.9073 161.264C72.9187 161.73 72.6744 162.016 72.305 162.224Z" fill="#818EA0"/>
<path fill-rule="evenodd" clip-rule="evenodd" d="M31.4546 163.857L31.0888 165.579L31.0701 166.054C35.0092 165.946 38.8053 166.212 42.8603 165.979C44.7465 165.87 46.6261 165.752 48.5088 165.592C49.732 165.487 52.8325 164.962 53.7569 165.001L53.756 162.594C52.8459 162.997 53.2378 163.361 51.6189 163.618C50.711 163.761 49.7679 163.81 48.8507 163.883C42.2391 164.407 38.2838 164.934 31.4546 163.857Z" fill="#E16C35"/>
<path fill-rule="evenodd" clip-rule="evenodd" d="M54.6091 190.712C55.4637 190.957 56.0702 190.841 56.9648 191.291C57.5999 191.609 58.1102 192.137 58.4971 192.726C59.5142 194.273 59.9309 195.397 59.6646 197.291C60.8261 196.894 61.9867 196.715 63.1273 196.129C63.4671 194.733 63.0827 192.406 62.5367 191.07C61.5217 188.588 60.469 189.059 59.6265 188.013L60.5388 187.829L59.9863 187.554L54.6091 190.712Z" fill="#FDDBCC"/>
<path fill-rule="evenodd" clip-rule="evenodd" d="M122.015 194.321C122.973 197.604 131.548 196.754 134.223 189.645C134.415 189.164 134.717 188.608 134.702 188.088L132.213 186.811C131.168 187.089 130.902 188.562 130.319 189.431C129.767 190.254 128.952 191.092 128.103 191.612C126.639 192.509 123.844 193.411 122.015 194.321Z" fill="#2D4D92"/>
<path fill-rule="evenodd" clip-rule="evenodd" d="M42.1937 151.302C42.7671 149.865 40.6817 149.42 42.098 144.5C43.832 138.477 45.7601 133.988 43.8687 127.847C43.4225 126.399 43.4387 124.944 43.1743 123.761C42.7862 125.31 43.5007 129.799 43.1494 132.43C42.8113 134.963 41.9824 137.853 41.2378 140.285C40.5408 142.563 40.2706 144.047 39.4958 146.301C39.316 146.824 38.2941 149.407 38.4466 149.715C38.5627 149.948 41.8767 151.377 42.1937 151.302Z" fill="#E16C35"/>
<path fill-rule="evenodd" clip-rule="evenodd" d="M82.8494 150.209L83.1494 150.434L79.6794 159.192L80.8354 159.312C80.9404 159.217 85.866 147.927 86.4749 146.634C87.4538 144.554 88.4055 142.413 89.3429 140.312C89.948 138.956 91.3304 134.659 92.9194 134.655C90.0255 133.253 88.0475 139.881 87.2057 141.716C86.6722 142.879 83.8209 150.449 82.8494 150.209Z" fill="#818EA0"/>
<path fill-rule="evenodd" clip-rule="evenodd" d="M69.0425 139.231C69.891 141.971 72.2952 154.276 71.8919 156.557L71.151 156.436L71.2952 156.542C72.3099 156.763 75.9422 158.499 76.6908 159.166L77.9216 159.136C75.9212 158.077 73.7917 151.723 72.9556 149.5C72.4443 148.141 69.3551 139.155 69.0649 138.776L69.0425 139.231Z" fill="#B7573A"/>
<path fill-rule="evenodd" clip-rule="evenodd" d="M134.721 190.116L134.77 190.236C135.273 190.631 135.704 191.058 136.251 191.43C137.196 192.073 137.303 191.816 138.298 191.863C137.944 193.257 137.52 193.218 136.076 193.128C135.528 193.094 133.237 192.959 132.983 192.617C132.185 192.987 132.275 192.923 131.638 193.53C131.278 193.874 128.345 195.148 128.223 195.647C129.843 196.384 132.98 196.251 135.286 196.133C137.249 196.032 139.874 195.558 141.029 194.991L139.11 188.454C137.156 190.264 137.179 189.136 135.225 188.464C135.048 188.699 134.744 189.745 134.721 190.116Z" fill="#314D92"/>
<path fill-rule="evenodd" clip-rule="evenodd" d="M50.6982 118.122L51.5544 119.36L55.3835 121.414L58.7408 120.94L57.3765 116.796L57.1898 114.96C56.2225 114.06 53.3764 112.122 52.8984 110.015C52.2631 110.949 53.4331 116.345 50.6982 118.122Z" fill="#DC908D"/>
<path fill-rule="evenodd" clip-rule="evenodd" d="M158.356 185.137L159.269 188.448L162.321 189.793C162.544 189.868 162.423 189.7 162.498 189.903C164.19 190.852 164.945 191.259 166.167 189.69L165.856 184.623C162.032 185.82 162.46 185.904 158.356 185.137Z" fill="#DC908D"/>
<path fill-rule="evenodd" clip-rule="evenodd" d="M65.7901 161.592C65.6162 161.242 65.6569 160.738 65.8999 160.453C65.9462 160.83 65.9395 161.243 65.7901 161.592ZM63.8823 161.482C63.7234 161.191 63.782 160.822 63.8861 160.463C64.0568 160.675 64.0597 160.519 64.0344 160.976C64.0193 161.25 63.9929 161.283 63.8823 161.482ZM61.9061 161.44C61.7478 161.129 61.7773 160.535 62.0439 160.325C62.1032 160.639 62.157 161.239 61.9061 161.44ZM56.6147 161.795L67.9562 162.223L71.2516 162.208C70.8633 161.954 70.6385 161.605 70.787 161.106C70.9296 160.627 71.3004 160.673 71.594 160.379L56.6963 159.972L56.6147 161.795Z" fill="#818EA0"/>
<path fill-rule="evenodd" clip-rule="evenodd" d="M51.5962 119.355L52.6844 123.153L60.4072 123.546C59.9592 122.348 59.3081 121.653 58.6839 120.707C58.3591 120.991 56.8344 121.283 55.8733 121.264C54.7486 121.243 52.2715 119.76 51.5962 119.355Z" fill="#E9EDEC"/>
<path fill-rule="evenodd" clip-rule="evenodd" d="M145.783 110.279L145.275 110.471C145.638 110.962 145.906 110.979 146.283 111.265C145.855 111.253 144.532 110.737 144.155 110.5L144.081 110.508C144.247 110.951 146.133 111.285 146.852 111.93C147.684 112.678 148.309 113.578 149.24 114.23C151.623 115.898 153.136 115.491 153.607 115.794C153.935 116.004 154.171 116.76 154.595 117.024L154.112 115.773L153.043 113.914C152.834 113.796 151.606 112.444 151.048 112.035C150.616 111.719 149.02 110.532 148.825 110.214L148.369 109.926L145.783 110.279Z" fill="#213A55"/>
<path fill-rule="evenodd" clip-rule="evenodd" d="M131.145 175.815L141.233 175.605C140.367 175.546 136.429 174.161 135.426 173.765C134.755 173.5 130.486 171.235 130.34 171.355L131.145 175.815Z" fill="#213A55"/>
<path fill-rule="evenodd" clip-rule="evenodd" d="M66.0874 146.336C65.7053 146.905 65.0367 146.704 64.9411 148.045L64.5588 151.014L64.7162 155.149L67.9879 155.259L67.1312 145.176L66.0874 146.336Z" fill="#B7573A"/>
<path fill-rule="evenodd" clip-rule="evenodd" d="M132.213 186.811L134.702 188.088L135.225 188.464C137.179 189.136 137.156 190.264 139.11 188.454L138.96 185.776C135.713 186.445 134.899 186.387 131.929 185.169L132.213 186.811Z" fill="#FDDBCC"/>
<path fill-rule="evenodd" clip-rule="evenodd" d="M131.929 185.169C134.899 186.387 135.713 186.445 138.96 185.776L139.284 183.394C135.397 184.186 135.314 184.054 131.516 183.387L131.929 185.169Z" fill="#DC908D"/>
<path fill-rule="evenodd" clip-rule="evenodd" d="M155.512 175.028L155.795 177.047L165.901 176.304C165.644 174.943 165.291 175.813 164.136 175.352L163.857 173.362L164 175.328L163.93 175.482L155.512 175.028Z" fill="#233B58"/>
<path fill-rule="evenodd" clip-rule="evenodd" d="M63.9873 192.014C64.2707 193.345 64.6876 194.966 63.9086 196.17L63.4998 197.035L68.1313 195.942L65.9279 191.631L63.9873 192.014Z" fill="#6D96AA"/>
<path fill-rule="evenodd" clip-rule="evenodd" d="M122.363 110.494L122.277 111.26C122.558 111.142 123.577 111.012 123.958 110.946C127.201 110.383 127.807 109.32 128.405 109.258L123.203 107.741L122.363 110.494Z" fill="#192943"/>
<path d="M137.915 113.967L148.518 113.218C149.215 113.917 151.176 115.224 150.459 114.865C149.563 114.416 144.486 115.912 141.349 115.314C138.213 114.715 135.077 115.314 134.181 114.865C133.464 114.505 130.149 114.715 127.61 113.068L137.915 113.967Z" fill="#1F3953"/>
<path fill-rule="evenodd" clip-rule="evenodd" d="M35.5869 201.689L39.3924 202.153L38.984 202.068C40.1984 201.007 39.7799 198.205 38.6448 197.458L35.5869 201.689Z" fill="#6D96AD"/>
<path fill-rule="evenodd" clip-rule="evenodd" d="M63.1273 196.129C63.2611 196.043 63.3816 195.957 63.5498 195.952C64.1585 195.931 63.8441 195.968 63.9087 196.17C64.6876 194.966 64.2707 193.345 63.9874 192.014C63.4175 190.815 63.4721 190.251 62.5786 189.012L60.5388 187.829L59.6265 188.013C60.4689 189.059 61.5217 188.588 62.5367 191.071C63.0827 192.406 63.4671 194.733 63.1273 196.129Z" fill="#DC908D"/>
<path fill-rule="evenodd" clip-rule="evenodd" d="M63.4999 197.035L62.6714 197.361L62.8988 197.427L62.0459 197.943C63.1068 199.119 65.6155 197.689 67.2432 198.253L67.798 198.182L68.1314 195.942L63.4999 197.035Z" fill="#6A94AA"/>
<path fill-rule="evenodd" clip-rule="evenodd" d="M132.982 192.617C133.236 192.959 135.528 193.094 136.076 193.128C137.52 193.218 137.944 193.257 138.298 191.863C137.303 191.816 137.195 192.073 136.251 191.43C135.704 191.058 135.273 190.631 134.77 190.236C134.445 190.304 134.157 191.129 133.958 191.449C133.722 191.827 133.346 192.412 132.982 192.617Z" fill="white"/>
<path fill-rule="evenodd" clip-rule="evenodd" d="M51.5549 193.237C49.9172 193.596 49.7847 199.57 52.0912 198.203C52.5037 197.566 52.0874 193.84 51.5549 193.237Z" fill="#759BB2"/>
<path fill-rule="evenodd" clip-rule="evenodd" d="M56.5547 164.578L56.2245 164.621C56.4052 165.945 56.6355 172.907 56.3714 174.423C56.119 175.872 56.0349 175.766 55.385 176.848C56.908 176.951 57.5179 172.669 57.544 171.518L57.4211 166.057C57.4058 165.735 57.3916 165.408 57.3723 165.087C57.3436 164.611 57.4313 164.471 57.0338 164.481C57.2097 165.899 57.4516 173.83 56.711 174.56C56.6287 173.822 56.8408 172.891 56.8524 172.089C56.865 171.235 56.8305 170.353 56.7811 169.5C56.6892 167.915 56.7525 166.124 56.5547 164.578Z" fill="#5A8499"/>
<path fill-rule="evenodd" clip-rule="evenodd" d="M44.8672 119.871L44.584 120.347L44.8849 120.013C45.1709 121.736 47.0682 126.683 49.8734 126.639C48.8669 125.666 48.5425 126.769 46.5902 123.33C46.1799 122.608 45.8779 122.072 45.5389 121.318C45.2795 120.741 45.1651 120.295 44.8672 119.871Z" fill="#B54B28"/>
<path fill-rule="evenodd" clip-rule="evenodd" d="M62.5518 109.153C62.5518 109.919 64.3822 109.782 64.9411 109.632C64.9411 109.249 64.8903 108.554 64.75 107.812C64.6479 106.058 65.2801 105.06 65.2278 104.815C64.7245 105.32 64.4453 106.733 64.4633 107.428C64.4633 108.578 64.5415 108.997 64.4633 109.249C64.1655 109.421 63.1493 109.376 62.5518 109.153Z" fill="#DC908D"/>
<path fill-rule="evenodd" clip-rule="evenodd" d="M153.043 113.914C154.501 114.354 155.469 114.459 156.603 115.392L158.29 114.308C157.938 113.819 158.303 112.793 157.674 112.32C156.082 111.123 150.398 110.296 148.825 110.214C149.02 110.532 150.616 111.719 151.048 112.035C151.606 112.444 152.834 113.796 153.043 113.914Z" fill="#213A55"/>
<path fill-rule="evenodd" clip-rule="evenodd" d="M122.201 111.808L122.138 112.601C123.092 112.588 126.144 112.432 127.066 112.122C128.035 111.796 129.597 110.465 129.933 109.504L129.082 109.343C129.241 109.691 128.941 109.7 128.561 109.901C127.618 110.401 127.196 110.617 126.101 110.983C125.699 111.118 122.513 111.822 122.201 111.808Z" fill="#334C71"/>
<path fill-rule="evenodd" clip-rule="evenodd" d="M26.5324 148.061C29.4154 148.967 31.2023 148.428 29.8627 148.724C26.6146 148.428 24.4403 149.738 24.1296 150.344C26.8205 149.819 30.6223 148.94 33.3849 149.278C32.636 149.386 28.6191 150.691 27.796 152.534C28.0944 152.498 29.3088 151.84 29.6731 151.589C30.9572 150.706 32.3741 150.144 33.8785 149.769C34.3448 149.653 36.7583 149.026 36.937 148.907C36.6811 148.759 35.9649 148.706 35.5989 148.715C35.1232 148.728 34.1469 148.317 33.6873 148.236C32.9333 148.104 27.0997 147.652 26.5324 148.061Z" fill="#E16C35"/>
<path fill-rule="evenodd" clip-rule="evenodd" d="M73.8978 159.251L76.6906 159.166C75.9421 158.499 72.3097 156.763 71.2951 156.542L71.2629 156.67C71.8669 156.936 73.7978 158.712 73.8978 159.251Z" fill="#F9A44A"/>
<path fill-rule="evenodd" clip-rule="evenodd" d="M122.277 111.261L122.201 111.808C122.513 111.822 125.699 111.118 126.101 110.983C127.196 110.617 127.618 110.401 128.562 109.901C128.941 109.7 129.241 109.691 129.082 109.343L128.405 109.258C127.807 109.32 127.201 110.383 123.958 110.946C123.577 111.012 122.558 111.142 122.277 111.261Z" fill="#1F3953"/>
<path fill-rule="evenodd" clip-rule="evenodd" d="M58.7192 102.816C59.0499 102.952 60.4208 102.573 60.8933 102.508C61.882 102.373 62.792 102.652 63.4978 102.524C65.0146 101.138 62.2547 101.412 61.5899 101.583C60.8973 101.761 59.1016 102.243 58.7192 102.816Z" fill="#334160"/>
<path fill-rule="evenodd" clip-rule="evenodd" d="M63.1272 196.129C61.9866 196.715 60.826 196.894 59.6645 197.291L59.4077 197.88L61.4286 197.867C61.5098 197.541 62.33 197.464 62.6713 197.361L63.4997 197.035L63.9086 196.17C63.844 195.967 64.1584 195.931 63.5498 195.952C63.3816 195.957 63.261 196.043 63.1272 196.129Z" fill="#DC908D"/>
<path fill-rule="evenodd" clip-rule="evenodd" d="M52.8374 193.574C52.4668 194.032 52.6637 195.603 52.692 196.229C52.7339 197.154 52.4376 198.164 53.4722 198.168C53.8238 197.525 53.7484 193.659 52.8374 193.574Z" fill="#759BB2"/>
<path fill-rule="evenodd" clip-rule="evenodd" d="M154.112 115.773L155.299 115.841L155.48 115.741C155.96 115.764 156.198 115.629 156.602 115.392C155.58 114.017 154.5 114.354 153.043 113.914L154.112 115.773Z" fill="#213A55"/>
<path fill-rule="evenodd" clip-rule="evenodd" d="M42.3916 200.51C43.4601 200.174 43.1048 199.499 42.9973 198.476C42.93 197.837 42.7761 196.701 42.3894 196.204C41.4858 196.415 41.8231 197.408 41.9497 198.197C42.0339 198.722 42.1852 200.146 42.3916 200.51Z" fill="#759BB2"/>
<path fill-rule="evenodd" clip-rule="evenodd" d="M59.0759 198.062L59.4077 197.88L59.6645 197.291C59.9308 195.397 59.514 194.273 58.4969 192.726C58.1101 192.137 57.5998 191.609 56.9647 191.29C56.0701 190.841 55.4635 190.957 54.609 190.712C54.0639 190.787 53.6024 190.831 53.065 190.705L53.0107 190.791C54.7361 191.271 56.3806 190.699 58.123 192.821C58.5996 193.402 59.1512 194.514 59.3404 195.244C59.4797 195.782 59.5308 196.285 59.4355 196.837C59.3696 197.219 59.0896 197.839 59.0759 198.062Z" fill="#2A4682"/>
<path fill-rule="evenodd" clip-rule="evenodd" d="M63.9872 192.014L65.9278 191.631C65.8024 191.589 64.6293 190.435 64.3593 190.2C63.882 189.784 63.149 189.332 62.5784 189.012C63.4719 190.251 63.4173 190.815 63.9872 192.014Z" fill="#7297AB"/>
<path fill-rule="evenodd" clip-rule="evenodd" d="M71.2517 162.208C71.7002 162.396 71.8375 162.39 72.305 162.224C72.6744 162.016 72.9187 161.73 72.9073 161.264C72.8916 160.627 72.4976 160.631 72.1216 160.375L71.5941 160.379C71.3005 160.673 70.9296 160.627 70.7871 161.106C70.6386 161.605 70.8634 161.954 71.2517 162.208Z" fill="#284864"/>
<path fill-rule="evenodd" clip-rule="evenodd" d="M73.3279 159.241L73.8978 159.251C73.7977 158.712 71.8668 156.936 71.2629 156.67C70.8201 156.519 69.9116 155.811 69.5154 155.986C70.3659 156.383 70.9304 156.913 71.4973 157.569C72.276 158.47 72.2392 158.665 73.3279 159.241Z" fill="#DC908D"/>
<path fill-rule="evenodd" clip-rule="evenodd" d="M130.019 194.708L130.468 194.736C130.59 194.238 131.278 193.874 131.638 193.53C132.275 192.923 132.185 192.987 132.983 192.617C133.346 192.412 133.722 191.827 133.958 191.449C134.157 191.129 134.445 190.304 134.77 190.236L134.721 190.116C134.451 189.945 134.564 190.147 134.487 189.633L134.223 189.645C133.425 191.766 131.702 193.467 130.019 194.708Z" fill="#233B58"/>
<path fill-rule="evenodd" clip-rule="evenodd" d="M66.7787 105.692C65.8241 106.098 66.1861 107.565 67.1682 107.178C67.9771 106.86 67.9236 105.205 66.7787 105.692Z" fill="#232B33"/>
<path fill-rule="evenodd" clip-rule="evenodd" d="M61.0795 104.22C60.2433 104.678 60.7601 106.044 61.7128 105.635C62.6294 105.241 62.0329 103.698 61.0795 104.22Z" fill="#2A3036"/>
<path fill-rule="evenodd" clip-rule="evenodd" d="M59.5888 110.685C60.3377 111.26 61.4299 111.969 62.3996 112.01C62.7158 112.048 63.6081 112.12 63.9986 111.735C63.1202 111.843 62.5544 111.733 61.7361 111.433C58.8909 110.392 59.4882 110.143 59.5888 110.685Z" fill="#FFFEFC"/>
<path fill-rule="evenodd" clip-rule="evenodd" d="M49.1893 193.58C49.6084 193.242 50.125 191.875 49.7355 191.367C48.7118 191.247 48.8001 192.926 49.1893 193.58Z" fill="#21354D"/>
<path fill-rule="evenodd" clip-rule="evenodd" d="M62.3996 112.01C61.4299 111.969 60.3248 111.116 59.5759 110.542C59.6017 110.817 59.8122 111.246 60.287 111.624C60.4088 111.721 60.5389 111.828 60.673 111.948C61.3849 112.584 62.9766 112.675 63.6987 112.026C63.5166 111.998 63.3041 112.219 62.3996 112.01Z" fill="#DC908D"/>
<path fill-rule="evenodd" clip-rule="evenodd" d="M52.5301 127.58L52.7703 126.799C52.15 126.703 51.6331 126.827 51.3247 127.403L52.4114 127.962L52.5301 127.58Z" fill="#B2461C"/>
<path fill-rule="evenodd" clip-rule="evenodd" d="M61.2889 111.281C62.1073 111.581 63.1202 111.843 63.9986 111.735C64.4131 111.608 63.7155 111.631 63.527 111.609C63.2833 111.581 63.0363 111.538 62.7913 111.495C61.1964 111.216 60.2568 110.441 59.7869 110.42C59.9866 110.834 60.7978 111.101 61.2889 111.281Z" fill="#DC908D"/>
<path fill-rule="evenodd" clip-rule="evenodd" d="M69.8857 159.151L70.1152 159.158C69.8333 158.457 67.536 156.612 66.6907 156.405C67.0573 156.887 67.8305 157.287 68.3406 157.667C68.9746 158.139 69.3715 158.652 69.8857 159.151Z" fill="#DC908D"/>
<path fill-rule="evenodd" clip-rule="evenodd" d="M46.1233 199.765L47.3357 199.335L46.9019 198.506C46.2554 198.583 46.2135 199.224 46.1233 199.765Z" fill="#28445B"/>
<path fill-rule="evenodd" clip-rule="evenodd" d="M134.223 189.645L134.487 189.633C134.563 190.147 134.451 189.945 134.721 190.116C134.744 189.745 135.048 188.699 135.225 188.464L134.702 188.088C134.717 188.608 134.415 189.164 134.223 189.645Z" fill="#243A6D"/>
<path fill-rule="evenodd" clip-rule="evenodd" d="M52.3354 171.874C53.0379 172.004 53.0847 171.4 52.8552 170.883C52.0951 170.695 51.9893 171.359 52.3354 171.874Z" fill="#AB4626"/>
<path fill-rule="evenodd" clip-rule="evenodd" d="M155.48 115.741L155.299 115.841L155.408 117.266C155.114 116.855 154.778 116.028 154.315 115.951C154.352 116.298 154.556 116.516 154.783 116.809L155.56 117.56L155.48 115.741Z" fill="#213A55"/>
<path fill-rule="evenodd" clip-rule="evenodd" d="M144.155 110.5C144.533 110.737 145.855 111.253 146.283 111.265C145.906 110.979 145.638 110.962 145.275 110.471L145.783 110.279L144.155 110.5Z" fill="#335474"/>
<path fill-rule="evenodd" clip-rule="evenodd" d="M61.4287 197.867L62.0459 197.943L62.8987 197.427L62.6714 197.361C62.3301 197.464 61.5099 197.541 61.4287 197.867Z" fill="#495672"/>
<path fill-rule="evenodd" clip-rule="evenodd" d="M66.5109 158.965L66.6326 158.907C66.5027 158.665 65.3714 157.835 65.0874 157.668C65.345 158.087 66.0355 158.793 66.5109 158.965Z" fill="#DC908D"/>
<path fill-rule="evenodd" clip-rule="evenodd" d="M61.906 161.44C62.1569 161.239 62.1031 160.639 62.0438 160.325C61.7772 160.535 61.7477 161.129 61.906 161.44Z" fill="#D06934"/>
<path fill-rule="evenodd" clip-rule="evenodd" d="M63.8825 161.482C63.9931 161.283 64.0195 161.25 64.0346 160.976C64.0599 160.519 64.057 160.675 63.8863 160.463C63.7822 160.822 63.7236 161.191 63.8825 161.482Z" fill="#AB6437"/>
<path fill-rule="evenodd" clip-rule="evenodd" d="M65.7901 161.592C65.9396 161.243 65.9462 160.83 65.8999 160.453C65.6569 160.738 65.6162 161.242 65.7901 161.592Z" fill="#AB6437"/>
<path fill-rule="evenodd" clip-rule="evenodd" d="M48.4147 196.115C48.5361 195.856 48.5292 195.599 48.3911 195.355C48.203 195.613 48.2073 195.82 48.4147 196.115Z" fill="#284864"/>
<path fill-rule="evenodd" clip-rule="evenodd" d="M147.689 47.7952C146.419 49.713 138.45 54.7063 136.061 52.6084L134.458 50.7137L131.327 50.511L124.12 52.9698L124.177 53.1158C122.664 56.7992 122.204 57.3264 121.858 61.5963C121.591 64.8895 121.437 68.1618 120.807 71.4205L123.292 72.2509C123.465 71.9336 123.357 72.095 123.806 72.0835C124.686 72.0604 124.829 73.227 124.796 75.5128L126.475 79.7541L128.022 79.9358C128.324 79.3037 136.72 85.9708 145.222 82.7195L156.214 82.3178L155.694 79.058L154.03 72.3394C156.779 71.9055 164.001 71.7352 165.845 69.3809C166.508 64.4481 165.721 56.7999 161.589 53.4037C159.552 51.7294 157.329 50.907 154.982 49.7735C153.29 48.9558 149.333 46.5147 147.689 47.7952Z" fill="#456C91"/>
<path fill-rule="evenodd" clip-rule="evenodd" d="M129.45 90.5983C129.181 90.7836 127.266 90.8657 126.774 90.8601C126.016 90.8515 124.962 90.8106 124.865 89.9462L124.593 89.9605L123.812 90.1569L123.845 90.3013L123.491 93.508C122.77 96.6014 122.28 99.6684 121.508 102.848C120.922 105.264 120.288 110.229 122.829 111.756C124.768 112.043 126.961 113.33 129.274 113.766C130.537 114.005 131.8 114.122 133.083 114.174C133.91 114.207 136.906 113.904 136.863 114.733L136.891 114.237L137.193 114.231L158.023 112.287C159.018 106.437 159.57 99.9084 157.374 94.1724C151.782 93.9968 148.341 93.5025 142.998 91.8656C140.858 91.2098 138.78 90.4344 136.582 89.9582C133.722 89.3389 132.636 90.7287 129.45 90.5983Z" fill="#456C91"/>
<path fill-rule="evenodd" clip-rule="evenodd" d="M134.07 89.8942C134.07 89.8942 143.601 93.6343 146.277 96.6996C148.954 99.765 158.889 102.664 158.889 102.664C158.889 102.664 158.97 100.953 158.597 98.9612C158.224 96.969 157.374 94.1724 157.374 94.1724L143.888 89.3235L134.07 89.8942Z" fill="#23456D"/>
<path fill-rule="evenodd" clip-rule="evenodd" d="M153.18 68.0699C153.18 68.0699 153.541 74.8587 153.732 76.9662C153.924 79.0737 153.063 80.6064 153.063 80.6064C153.063 80.6064 146.078 82.6694 142.253 82.8765C138.427 83.0835 158.033 84.3423 158.033 84.3423L155.835 74.6671L153.901 71.6193L153.18 68.0699Z" fill="#23456D"/>
<path fill-rule="evenodd" clip-rule="evenodd" d="M155.694 79.058C155.898 78.7563 155.698 78.8423 156.215 78.8391C156.51 79.29 157.442 84.9865 157.274 85.3647L156.772 85.3571L156.214 82.3178L145.222 82.7194C142.89 82.7413 137.169 83.4835 135.353 82.4789C133.771 81.6036 134.684 80.3682 132.319 80.2704C131.5 80.2366 128.392 79.9578 127.907 79.3972L126.475 79.7541L126.783 80.6219C126.926 80.4254 126.873 80.7461 126.959 80.3356C127.18 80.4382 127.464 80.4799 127.712 80.5669L129.447 81.468L129.043 81.5967L126.058 81.2381C125.097 81.0887 119.901 79.6256 120 81.1858C121.059 80.1519 129.382 82.1085 129.192 83.8948C128.944 84.01 128.556 84.142 128.36 83.9341L128.2 84.1813C127.402 84.9895 124.795 84.3206 123.707 84.2436L124.951 84.6152L125.105 84.5614L125.295 86.0367L125.362 86.1591L125.328 86.469C126.043 86.6309 128.22 86.5355 128.605 86.8669C127.804 87.517 125 86.7895 123.896 86.8867C124.385 88.8353 125.101 87.8598 125.818 88.6657L125.934 88.6371C126.231 88.5263 127.781 88.7412 128.119 88.8649C127.871 89.1287 127.959 89.0374 127.534 89.0602L125.53 89.1743C125.038 89.1881 124.655 89.2732 124.195 89.2741C123.737 89.275 123.364 89.0993 122.932 89.245C123.323 89.5525 124.02 89.6759 124.547 89.7454C125.737 90.0144 128.303 90.547 129.45 90.5983C132.636 90.7287 133.722 89.3389 136.582 89.9582C138.78 90.4344 140.859 91.2098 142.999 91.8656C148.341 93.5025 151.782 93.9968 157.374 94.1724C164.343 93.747 166.905 94.1212 167.179 85.9972C167.35 80.9409 166.199 74.635 165.845 69.3809C164.001 71.7352 156.779 71.9055 154.03 72.3394L155.694 79.058Z" fill="#FDDBCC"/>
<path fill-rule="evenodd" clip-rule="evenodd" d="M111.659 71.9289C110.88 73.2207 113.242 77.9531 113.925 79.4254L114.347 79.7092L117.146 80.0311L117.191 80.1387L117.363 81.0769C118.376 81.039 118.907 81.2942 118.715 82.5508L118.809 82.9331C119.337 83.2068 119.038 83.8957 118.84 84.2743L119.125 84.2406L122.378 84.0696C122.332 83.6424 122.449 84.0264 122.383 83.808C121.858 83.8316 121.118 83.9109 120.69 83.6903C121.041 83.4931 121.062 83.5925 121.505 83.6018C120.977 83.2854 120.519 83.5482 119.977 82.8571C119.565 82.3309 119.559 80.9977 119.692 81.1555L119.825 81.0735L120 81.1858C119.901 79.6256 125.097 81.0887 126.058 81.2381C125.853 80.5469 122.721 73.6275 122.23 73.0233C120.383 70.7484 114.45 71.9154 111.659 71.9289Z" fill="#2C3855"/>
<path fill-rule="evenodd" clip-rule="evenodd" d="M126.865 37.7987C127.643 37.4399 127.864 38.69 126.922 38.4904C126.729 38.1491 126.673 38.1379 126.865 37.7987ZM132.095 36.9347C133.021 36.7945 132.836 37.6964 132.504 37.8487C132.012 38.0754 131.704 37.4219 132.095 36.9347ZM135.23 35.8927C134.719 36.0457 133.077 35.624 132.443 35.5203C131.936 35.4375 129.86 35.3535 130.782 34.3961C131.381 33.7742 132.845 34.2113 133.593 34.4491C134.335 34.6849 135.52 34.9495 135.23 35.8927ZM124.844 33.423L125.443 35.6224C125.84 35.4153 126.281 35.1684 126.746 35.3003C127.217 35.4336 127.312 35.8261 127.026 36.2105C126.551 36.505 126.076 36.7997 125.601 37.0943C126.881 38.3403 126.491 39.8434 126.589 40.9405C126.691 42.0797 127.604 42.8746 128.417 43.6889C129.577 43.255 130.204 42.8348 131.049 42.4927C131.745 42.2111 132.258 41.7858 133.197 41.417C136.164 40.2523 136.535 42.2171 138.381 41.6008C138.52 41.3463 139.268 35.9085 139.209 35.7497C138.317 33.348 138.739 28.8823 138.918 26.3875C136.585 27.9411 134.575 28.864 131.559 29.5486C130.179 29.8618 129.627 30.9724 128.213 30.8898C125.72 30.7442 126.902 32.0782 124.844 33.423Z" fill="#FDDBCC"/>
<path fill-rule="evenodd" clip-rule="evenodd" d="M135.933 52.6752C138.472 54.9044 147.153 49.542 148.502 47.5039C143.567 47.045 144.676 43.6051 143.006 41.76C142.013 46.067 140.057 50.5636 135.933 52.6752Z" fill="#FDDBCC"/>
<path fill-rule="evenodd" clip-rule="evenodd" d="M117.316 89.3486L118.593 89.1669L117.752 86.7834C117.087 86.8992 116.598 87.0466 115.979 86.9287C115.876 86.6806 115.874 86.7139 115.693 86.354C116.923 86.041 117.841 85.4128 118.768 84.6174L118.753 84.303C117.786 84.9075 115.004 86.6595 114.871 84.2705C115.834 84.2359 118.567 84.0138 118.847 83.2885L118.749 82.2371C117.516 82.8603 113.897 84.8549 113.703 81.8812L116.464 81.4997L116.449 81.3062L113.781 81.1812L113.494 80.4147L113.552 80.2712L114.347 79.7092L113.925 79.4254C112.901 79.3899 110.938 79.2876 112.281 81.1705C112.935 82.0876 112.429 83.1777 113.217 84.6436C115.039 88.0341 114.825 87.0483 117.316 89.3486Z" fill="#986766"/>
<path fill-rule="evenodd" clip-rule="evenodd" d="M134.443 50.6051L135.933 52.6752C140.056 50.5636 142.11 46.1786 143.102 41.8715L142.597 40.5851C141.703 43.4404 141.712 44.3338 139.642 46.7287C138.943 47.5379 138.133 48.3088 137.26 48.9243C136.827 49.2296 134.525 50.3936 134.443 50.6051Z" fill="#DC908D"/>
<path fill-rule="evenodd" clip-rule="evenodd" d="M141.722 36.1768C141.231 35.5559 142.529 33.6024 143.116 33.3581C143.054 33.7956 142.598 34.2932 142.362 34.7039C142.122 35.1211 141.97 35.9628 141.722 36.1768ZM142.158 39.1172C143.512 38.1667 144.042 37.8158 144.417 36.04C144.948 33.5176 144.276 33.6842 143.155 32.2045C140.231 31.8776 140.328 39.0276 142.158 39.1172Z" fill="#FDDBCC"/>
<path fill-rule="evenodd" clip-rule="evenodd" d="M111.659 71.9289C114.45 71.9154 121.141 71.8892 122.23 73.0233C122.721 73.6275 125.853 80.5469 126.058 81.2381L129.043 81.5967C128.695 81.4511 128.104 81.5448 127.684 81.364C127.303 81.1999 127.001 80.7184 126.783 80.6219L126.475 79.7541L124.796 75.5128C124.277 74.4968 123.757 72.5854 123.052 71.6976L120.807 71.4204C119.518 71.2947 112.147 71.0781 111.659 71.9289Z" fill="#242B44"/>
<path fill-rule="evenodd" clip-rule="evenodd" d="M117.083 81.0109L116.918 81.4265C116.603 81.2623 116.68 81.3533 116.622 80.9845L117.083 81.0109ZM118.715 82.5509C118.907 81.2942 118.376 81.0391 117.363 81.077L117.191 80.1387L117.145 80.0311L114.347 79.7092L113.072 80.1525L113.015 80.2961L113.436 81.3137L116.449 81.3062L116.464 81.4997L113.491 81.9104C113.686 84.8841 117.481 83.174 118.715 82.5509Z" fill="#DC908D"/>
<path fill-rule="evenodd" clip-rule="evenodd" d="M117.316 89.3486C118.195 91.3225 121.187 93.5162 123.491 93.5081L123.845 90.3013C121.469 90.372 120.106 90.9847 118.593 89.1669L117.316 89.3486Z" fill="#DC908D"/>
<path fill-rule="evenodd" clip-rule="evenodd" d="M117.752 86.7834L118.592 89.1669C120.106 90.9847 121.469 90.372 123.845 90.3013L123.812 90.1569C122.552 89.9308 122.124 89.4321 121.113 88.6109C120.136 87.8174 119.78 86.9893 119.616 85.7006L118.924 85.2322C118.896 85.2103 118.626 85.21 118.754 84.9292C118.826 86.2374 118.697 86.1155 117.752 86.7834Z" fill="#273658"/>
<path fill-rule="evenodd" clip-rule="evenodd" d="M154.693 110.873C156.225 109.834 150.046 110.979 149.988 110.994C146.383 111.886 143.43 112.96 139.552 112.574C138.813 112.501 134.839 111.619 134.537 111.831C132.88 112.997 143.381 113.089 144.524 112.897C146.211 112.614 147.789 112.084 149.441 111.695C150.12 111.535 154.573 110.954 154.693 110.873Z" fill="#23456D"/>
<path fill-rule="evenodd" clip-rule="evenodd" d="M120 81.1858C120.402 82.042 126.874 83.3251 128.115 83.4991L129.193 83.8947C129.382 82.1085 121.059 80.1519 120 81.1858Z" fill="#DC908D"/>
<path fill-rule="evenodd" clip-rule="evenodd" d="M119.125 84.2406C118.983 84.7102 118.924 84.6809 118.924 85.2322L119.616 85.7006L119.805 85.7152C121.75 85.8008 123.333 85.8334 125.295 86.0367L125.105 84.5614L124.951 84.6152L123.708 84.2436L122.378 84.0697L119.125 84.2406Z" fill="#DC908D"/>
<path fill-rule="evenodd" clip-rule="evenodd" d="M121.526 83.8411C122.454 83.8177 123.856 83.8252 124.863 83.8957C125.473 83.9384 125.977 83.9407 126.585 83.941C127.005 83.9413 127.913 83.805 128.197 83.8771L128.115 83.4991C126.874 83.3251 120.402 82.0421 120 81.1858L119.825 81.0736L119.692 81.1555C119.559 80.9978 119.39 82.2834 119.802 82.8096C120.344 83.5007 120.999 83.5247 121.526 83.8411Z" fill="#1B293C"/>
<path fill-rule="evenodd" clip-rule="evenodd" d="M135.097 41.7776C134.733 43.23 132.254 44.7444 130.827 44.0282L129.875 43.7276C129.94 45.623 132.824 45.9726 134.221 45.367C135.765 44.698 136.867 41.8763 135.205 41.6451L135.097 41.7776Z" fill="#FDDBCC"/>
<path fill-rule="evenodd" clip-rule="evenodd" d="M123.916 72.0872L124.845 72.1462C124.867 69.6178 124.74 67.0788 124.723 64.5441C124.715 63.3751 125.884 57.0431 125.728 56.4666C124.39 58.9571 124.021 62.8707 124.008 63.5552C123.929 67.5864 123.731 68.2399 123.916 72.0872Z" fill="#23456D"/>
<path fill-rule="evenodd" clip-rule="evenodd" d="M152.369 54.311C151.854 54.2876 151.891 54.8653 151.815 55.3521C151.568 56.9367 151.434 58.6334 151.472 60.2308C151.247 63.0763 153.458 72.1295 154.03 72.3394C154.116 72.6608 162.655 71.4842 163.386 70.6439C163.79 70.1791 157.685 72.607 155.74 70.7397C153.782 68.8602 152.697 64.6118 152.681 64.5132C152.51 63.4544 152.045 61.6861 151.994 60.6161C151.943 59.5434 151.98 58.3311 152.091 57.2618C152.148 56.7225 152.589 54.6095 152.369 54.311Z" fill="#23456D"/>
<path fill-rule="evenodd" clip-rule="evenodd" d="M118.753 84.303L118.84 84.2743C119.037 83.8958 119.337 83.2069 118.809 82.9332C118.529 83.6584 115.405 83.9316 114.635 84.2811C114.768 86.6701 117.786 84.9075 118.753 84.303Z" fill="#DC908D"/>
<path fill-rule="evenodd" clip-rule="evenodd" d="M125.818 88.6657C125.1 87.8598 124.385 88.8353 123.896 86.8867C123.507 86.7896 122.957 86.7898 122.541 86.752C122.134 86.7152 121.48 86.7992 121.327 86.4046L120.48 86.2138C120.067 87.702 124.672 88.5331 125.818 88.6657Z" fill="#DC908D"/>
<path fill-rule="evenodd" clip-rule="evenodd" d="M123.812 90.1569L124.593 89.9605L124.547 89.7454C124.02 89.6759 123.323 89.5525 122.932 89.245C122.321 89.1659 121.854 88.6555 121.789 88.0146C123.062 88.3205 124.571 88.8397 125.917 88.862L125.934 88.6371L125.818 88.6657C124.672 88.5331 120.068 87.702 120.481 86.2138C120.217 85.7809 120.448 85.8157 120.466 85.907C120.103 85.8888 120.099 85.9298 119.805 85.7152L119.42 85.6834C119.584 86.9721 119.877 87.9553 120.854 88.7488C121.865 89.57 122.552 89.9307 123.812 90.1569Z" fill="#1D293A"/>
<path fill-rule="evenodd" clip-rule="evenodd" d="M135.23 35.8927C135.52 34.9495 134.335 34.6849 133.593 34.4491C132.845 34.2113 131.381 33.7742 130.782 34.3961C129.86 35.3535 131.936 35.4375 132.443 35.5203C133.077 35.624 134.719 36.0457 135.23 35.8927Z" fill="#4E3951"/>
<path fill-rule="evenodd" clip-rule="evenodd" d="M117.752 86.7834C118.697 86.1155 118.826 86.2373 118.754 84.9292L118.769 84.6174C117.841 85.4128 116.62 85.6991 115.389 86.0121C115.571 86.372 115.673 86.897 115.776 87.1451C116.395 87.263 117.087 86.8992 117.752 86.7834Z" fill="#DC908D"/>
<path fill-rule="evenodd" clip-rule="evenodd" d="M155.694 79.058L156.214 82.3178L156.772 85.3571L157.274 85.3647C157.442 84.9865 156.51 79.29 156.215 78.8391C155.698 78.8423 155.898 78.7563 155.694 79.058Z" fill="#DC908D"/>
<path fill-rule="evenodd" clip-rule="evenodd" d="M122.378 84.0697L123.707 84.2436C124.795 84.3206 127.402 84.9895 128.2 84.1813L128.197 83.8771C127.913 83.805 127.005 83.9412 126.585 83.941C125.978 83.9407 125.473 83.9384 124.863 83.8957C123.856 83.8252 122.433 83.5784 121.505 83.6018C121.062 83.5925 121.041 83.4931 120.69 83.6903C121.118 83.9109 121.858 83.8316 122.383 83.808C122.449 84.0264 122.332 83.6424 122.378 84.0697Z" fill="#23456D"/>
<path fill-rule="evenodd" clip-rule="evenodd" d="M122.932 89.245C123.364 89.0992 123.737 89.275 124.195 89.274C124.655 89.2731 125.038 89.1881 125.53 89.1743L127.534 89.0602C127.959 89.0374 127.871 89.1287 128.119 88.8649C127.781 88.7412 126.231 88.5263 125.934 88.6371L125.917 88.862C124.571 88.8397 123.062 88.3205 121.789 88.0146C121.854 88.6555 122.321 89.1659 122.932 89.245Z" fill="#DC908D"/>
<path fill-rule="evenodd" clip-rule="evenodd" d="M120.481 86.2138L121.327 86.4046C123.026 86.6201 123.729 86.8681 125.362 86.1591L125.295 86.0368C123.333 85.8334 121.75 85.8009 119.805 85.7152C120.099 85.9298 120.103 85.8888 120.466 85.907C120.448 85.8157 120.217 85.7809 120.481 86.2138Z" fill="#273658"/>
<path fill-rule="evenodd" clip-rule="evenodd" d="M129.885 43.7878L130.827 44.0282C131.642 43.9609 132.595 43.612 133.287 43.2083C133.997 42.7933 134.587 42.0713 135.097 41.7776L135.205 41.6451C133.769 41.81 132.943 42.7706 131.305 43.2633C130.825 43.4077 130.319 43.4651 129.864 43.6673L129.885 43.7878Z" fill="#FBF7F5"/>
<path fill-rule="evenodd" clip-rule="evenodd" d="M121.327 86.4046C121.48 86.7992 122.135 86.7151 122.541 86.752C122.958 86.7898 123.507 86.7896 123.896 86.8867C125 86.7895 127.804 87.517 128.605 86.8669C128.22 86.5355 126.043 86.6309 125.328 86.469L125.362 86.1591C123.729 86.8681 123.026 86.6201 121.327 86.4046Z" fill="#DC908D"/>
<path fill-rule="evenodd" clip-rule="evenodd" d="M124.796 75.5128L124.845 72.1461L124.391 72.1276C124.243 72.1198 123.927 72.0803 123.806 72.0835C123.357 72.095 123.465 71.9335 123.292 72.2509C123.997 73.1386 124.277 74.4968 124.796 75.5128Z" fill="#FDDBCC"/>
<path fill-rule="evenodd" clip-rule="evenodd" d="M124.594 89.9605L124.866 89.9462C124.962 90.8106 126.016 90.8515 126.774 90.8601C127.266 90.8657 129.181 90.7836 129.45 90.5983C128.303 90.547 125.737 90.0143 124.547 89.7454L124.594 89.9605Z" fill="#23456D"/>
<path fill-rule="evenodd" clip-rule="evenodd" d="M125.443 35.6224C124.64 36.1588 125.315 36.6519 125.601 37.0942C125.704 36.5969 125.681 36.4901 126.475 36.1665C127.101 35.9115 126.947 36.1406 127.026 36.2105C127.312 35.826 127.217 35.4336 126.746 35.3003C126.28 35.1683 125.84 35.4153 125.443 35.6224Z" fill="#4E3951"/>
<path fill-rule="evenodd" clip-rule="evenodd" d="M130.827 44.0283C132.254 44.7444 134.733 43.23 135.097 41.7776C134.587 42.0714 133.997 42.7933 133.287 43.2083C132.595 43.612 131.642 43.9609 130.827 44.0283Z" fill="#4E3951"/>
<path fill-rule="evenodd" clip-rule="evenodd" d="M126.783 80.6219C127.001 80.7184 127.303 81.1999 127.684 81.364C128.104 81.5448 128.695 81.4511 129.043 81.5967L129.447 81.468L127.712 80.5669C127.464 80.4799 127.18 80.4382 126.959 80.3355C126.873 80.7461 126.926 80.4254 126.783 80.6219Z" fill="#DC908D"/>
<path fill-rule="evenodd" clip-rule="evenodd" d="M141.722 36.1768C141.97 35.9628 142.122 35.1211 142.362 34.7039C142.597 34.2932 143.054 33.7956 143.115 33.3581C142.529 33.6024 141.231 35.5559 141.722 36.1768Z" fill="#DC908D"/>
<path fill-rule="evenodd" clip-rule="evenodd" d="M132.095 36.9347C131.703 37.4219 132.012 38.0754 132.504 37.8487C132.835 37.6964 133.021 36.7945 132.095 36.9347Z" fill="#192437"/>
<path fill-rule="evenodd" clip-rule="evenodd" d="M125.601 37.0942L127.026 36.2105C126.947 36.1406 127.101 35.9115 126.475 36.1665C125.681 36.4901 125.704 36.5969 125.601 37.0942Z" fill="#4E3951"/>
<path fill-rule="evenodd" clip-rule="evenodd" d="M126.865 37.7987C126.673 38.1379 126.729 38.1491 126.922 38.4904C127.864 38.69 127.642 37.4399 126.865 37.7987Z" fill="#171D37"/>
<path fill-rule="evenodd" clip-rule="evenodd" d="M128.197 83.8771L128.2 84.1813L128.36 83.9341C128.556 84.142 128.943 84.01 129.192 83.8947L128.115 83.4991L128.197 83.8771Z" fill="#DC908D"/>
<path fill-rule="evenodd" clip-rule="evenodd" d="M118.768 84.6174L118.754 84.9292C118.626 85.21 118.897 85.2103 118.924 85.2322C118.924 84.6809 118.982 84.7102 119.125 84.2406L118.84 84.2743L118.753 84.303L118.768 84.6174Z" fill="#656267"/>
<path fill-rule="evenodd" clip-rule="evenodd" d="M116.919 81.4265L117.083 81.0109L116.622 80.9845C116.68 81.3533 116.603 81.2623 116.919 81.4265Z" fill="#31496C"/>
<path fill-rule="evenodd" clip-rule="evenodd" d="M129.636 37.9886C130.042 38.0905 130.436 39.7343 130.944 40.0397C131.452 40.345 132.245 41.1748 131.87 41.2533L130.448 41.5512L129.524 41.4636L129.229 40.3255V38.2925L129.636 37.9886Z" fill="#DC908D"/>
<path fill-rule="evenodd" clip-rule="evenodd" d="M139.182 35.0366C137.862 34.833 136.136 36.5636 136.136 36.5636L135.12 39.9227C135.12 39.9227 134.917 40.7371 135.628 41.4496C136.339 42.1621 139.284 42.3657 139.284 42.3657L139.182 35.0366Z" fill="#DC908D"/>
<path fill-rule="evenodd" clip-rule="evenodd" d="M129.94 44.0993L129.864 43.6673C130.319 43.4651 131.034 43.0646 131.261 42.6711C133.285 43.2147 133.887 42.1233 135.323 41.9585C135.954 42.1279 135.126 44.6721 133.41 44.0961C132.496 45.2157 130.751 44.9119 129.94 44.0993ZM124.844 33.423C126.902 32.0782 125.562 33.0406 127.067 34.1467C126.78 32.5181 128.118 31.7519 130.89 33.5719C131.463 32.0393 134.769 31.0067 137.102 29.4529C136.923 31.9479 138.317 33.348 139.209 35.7497C139.268 35.9085 138.52 41.3463 138.381 41.6008C136.535 42.2171 136.36 40.183 133.393 41.3477C132.454 41.7165 131.44 41.5446 130.744 41.8263C129.899 42.1684 129.577 42.9496 128.417 43.3835C127.411 44.1649 130.412 50.0961 131.31 50.6583L134.636 50.8736C134.719 50.662 137.429 49.1855 137.862 48.8803C138.735 48.2648 138.943 47.5379 139.642 46.7287C141.712 44.3338 141.703 43.4403 142.597 40.5851L142.158 39.1172C140.328 39.0276 140.231 31.8776 143.155 32.2045C143.436 31.0338 143.511 30.211 143.55 29.0309C143.627 26.6852 143.036 26.3707 142.382 25.3522C142.153 23.8707 141.945 22.7093 140.503 21.4983C138.878 20.134 138.332 20.6889 137.253 20.9893C136.378 20.7775 136.375 19.434 134.803 19.3607C133.8 18.3427 127.644 20.7008 126.589 20.9893C131.769 22.6181 129.162 21.6434 126.69 22.5163C123.862 23.0401 120.601 27.2186 120.906 31.392C120.689 33.5563 122.531 36.0308 122.933 34.5276C123.424 32.691 123.867 34.0067 124.844 33.423Z" fill="#334160"/>
<path fill-rule="evenodd" clip-rule="evenodd" d="M131.87 41.3477C131.001 40.9905 129.458 42.4883 129.354 40.4432C129.321 39.805 129.602 37.2504 129.124 36.89C128.792 37.1302 129.031 37.9719 129.044 38.3897C129.089 39.8812 128.608 41.2612 129.534 41.8567C129.936 42.1147 131.483 41.7104 131.87 41.3477Z" fill="#B87D7B"/>
<path fill-rule="evenodd" clip-rule="evenodd" d="M168.189 196.125L157.628 195.87L157.18 195.842L149.176 195.455L147.525 195.685C144.067 196.735 149.066 199.47 153.654 199.566C155.626 199.723 162.784 198.622 164.758 198.776C165.627 198.844 166.88 199.053 167.574 198.48C168.159 197.996 168.524 196.795 168.189 196.125Z" fill="#F4F4F4"/>
<path fill-rule="evenodd" clip-rule="evenodd" d="M149.176 195.455C150.133 198.738 158.709 197.888 161.383 190.78C161.576 190.299 161.878 189.742 161.862 189.222L159.374 187.945C158.329 188.223 158.063 189.696 157.48 190.565C156.928 191.388 156.112 192.227 155.263 192.747C153.8 193.643 151.005 194.545 149.176 195.455Z" fill="#2D4D92"/>
<path fill-rule="evenodd" clip-rule="evenodd" d="M161.882 191.25L161.93 191.37C162.434 191.765 162.864 192.192 163.411 192.564C164.356 193.207 164.464 192.95 165.459 192.998C165.105 194.391 164.681 194.352 163.236 194.262C162.688 194.228 160.397 194.093 160.143 193.751C159.345 194.121 159.435 194.057 158.798 194.665C158.438 195.008 155.505 196.282 155.383 196.781C157.003 197.518 160.141 197.385 162.446 197.267C164.409 197.167 167.034 196.692 168.189 196.125L166.271 189.588C164.316 191.398 164.339 190.27 162.386 189.598C162.208 189.834 161.905 190.879 161.882 191.25Z" fill="#314D92"/>
<path fill-rule="evenodd" clip-rule="evenodd" d="M160.143 193.751C160.397 194.093 162.689 194.228 163.236 194.262C164.681 194.352 165.105 194.391 165.459 192.998C164.464 192.95 164.356 193.207 163.411 192.564C162.865 192.192 162.434 191.765 161.931 191.37C161.605 191.439 161.318 192.263 161.119 192.583C160.883 192.962 160.506 193.546 160.143 193.751Z" fill="white"/>
<path fill-rule="evenodd" clip-rule="evenodd" d="M157.18 195.842L157.628 195.87C157.75 195.372 158.438 195.008 158.798 194.665C159.435 194.057 159.346 194.121 160.143 193.751C160.506 193.546 160.883 192.962 161.119 192.583C161.318 192.263 161.605 191.439 161.931 191.37L161.882 191.25C161.612 191.079 161.724 191.281 161.648 190.768L161.383 190.78C160.586 192.9 158.862 194.601 157.18 195.842Z" fill="#233B58"/>
<path fill-rule="evenodd" clip-rule="evenodd" d="M161.383 190.78L161.648 190.768C161.724 191.281 161.612 191.079 161.882 191.25C161.905 190.879 162.208 189.834 162.386 189.598L161.862 189.222C161.878 189.742 161.576 190.299 161.383 190.78Z" fill="#243A6D"/>
<path fill-rule="evenodd" clip-rule="evenodd" d="M126.57 40.3524C126.57 40.3524 127.64 40.1816 127.735 40.469C127.831 40.7564 128.078 41.9044 128.404 42.5765C128.731 43.2486 128.868 43.3342 128.706 43.261C128.544 43.1878 128.404 43.8219 127.826 43.0999C127.258 42.4642 126.977 42.0632 126.629 41.2094L126.57 40.3524Z" fill="#DC908D"/>
<path d="M45.2522 182.051C45.2522 182.051 65.1322 179.752 67.5217 177.836C69.9112 175.921 92.4674 169.023 93.6143 169.023C94.7612 169.023 105.848 168.928 98.202 172.664C90.5559 176.399 77.8442 181.572 75.4547 183.584C73.0652 185.596 69.7875 187.156 69.7875 187.156" stroke="#496695" stroke-width="0.320126" stroke-miterlimit="22.9256" stroke-dasharray="0.64 0.96"/>
<path fill-rule="evenodd" clip-rule="evenodd" d="M57.3211 106.655C57.1302 105.613 57.8935 105.393 58.7425 105.732C59.4277 106.006 61.0694 106.999 59.8261 107.771C59.5054 107.97 59.1252 108.024 58.7119 107.944C57.9811 107.801 57.452 107.369 57.3211 106.655Z" fill="#DC908D"/>
<path fill-rule="evenodd" clip-rule="evenodd" d="M67.1479 108.728C67.1479 108.578 67.1009 108.538 66.2518 108.877C65.5666 109.151 64.9078 110.075 65.5051 110.674C65.8258 110.873 65.8386 110.904 66.2518 110.823C66.2518 110.823 66.8492 109.327 67.1479 108.728Z" fill="#DC908D"/>
</svg>
