<svg width="33" height="32" viewBox="0 0 33 32" fill="none" xmlns="http://www.w3.org/2000/svg">
<path fill-rule="evenodd" clip-rule="evenodd" d="M28.2186 13.5213C28.2656 13.1263 29.4587 11.3637 27.9217 9.39097C26.5094 7.57849 24.8323 8.09044 23.9492 8.04297C24.1535 3.49256 18.4374 2.6974 16.8469 6.16101C16.2902 7.37338 16.66 8.80042 16.5056 10.0948C15.9394 9.88968 15.8114 9.67214 15.0692 9.63303C12.1162 9.47747 11.0034 13.205 13.5125 14.6358C14.9148 15.4355 16.0549 14.6433 16.5276 14.5396L16.5533 16.0284C17.9253 16.1499 18.5997 16.0142 19.6937 16.9998C21.4599 18.5911 21.2667 21.2734 19.6588 22.5684C18.4974 23.5038 17.9885 23.3955 16.5532 23.4995C16.0278 29.4235 24.0871 29.3808 23.9591 24.069C24.3897 24.0878 26.2402 24.9474 27.9428 23.4428C29.4862 22.0789 29.172 20.9088 29.1014 19.6016C30.0792 18.6121 30.5971 17.606 30.3205 16.1472C30.0488 14.7138 29.3149 14.2446 28.2186 13.5213Z" fill="#0091F2"/>
<path fill-rule="evenodd" clip-rule="evenodd" d="M4.48206 8.98969C4.143 9.30976 3.87502 9.61583 3.69287 10.0421C3.49198 10.5122 3.34237 11.1045 3.34376 11.622C3.34543 12.2415 3.49927 12.9163 3.95925 13.3554C3.91935 13.514 2.91653 13.8676 2.20203 14.9044C1.72419 15.3521 1.53247 16.8425 1.68109 17.5317C1.9164 18.6228 2.5114 19.1163 3.05824 19.5861C2.89823 20.1259 2.60245 20.9023 3.00307 21.9412C3.64868 23.6153 5.2568 24.5081 7.10588 24.279C7.51254 24.2286 7.77534 24.0385 8.01651 24.0128C8.1239 24.8173 8.00567 25.0161 8.33389 25.8289C9.33399 28.3058 13.5249 29.0376 15.0498 25.9848C15.9017 24.2793 15.1487 23.1828 15.5166 22.1813C15.8419 22.0405 15.8297 22.1947 16.177 22.3101C16.3446 22.3658 16.7448 22.4245 16.9327 22.4359C18.3255 22.5204 19.6275 21.5964 19.8446 20.2235C19.9931 19.2836 19.6305 18.3428 18.9429 17.7285C17.9578 16.8484 16.8089 17.1621 16.349 17.1514C16.1662 17.3505 15.7369 17.5535 15.4202 17.5302L15.3798 16.0768C14.9613 16.057 14.1255 16.2827 13.8748 15.9645C13.0198 15.8937 10.5517 14.1734 11.1269 11.5895C11.3457 10.6061 11.8008 9.93255 12.5553 9.34067C13.4522 8.63705 14.2793 8.55483 15.438 8.5945C15.9698 4.1814 11.2071 2.80133 9.08284 5.09295C8.10983 6.14261 8.1132 6.63783 8.03368 8.03257C7.7103 8.07307 7.19376 7.9665 6.78005 7.97765C5.96023 7.99997 5.06525 8.43921 4.48206 8.98969Z" fill="#FF7C33"/>
<path fill-rule="evenodd" clip-rule="evenodd" d="M16.349 17.1514C16.0277 17.1746 15.8329 17.1859 15.5563 17.1552C15.4552 16.4894 15.5165 16.1953 15.495 15.993C15.0402 15.9652 14.7374 16.0428 13.8376 15.9612C14.0719 16.3325 14.1608 18.721 15.2632 16.4406L15.4083 17.8834C15.725 17.9067 16.1662 17.3505 16.349 17.1514Z" fill="#FF7C33"/>
</svg>
